<svg width="165" height="215" viewBox="0 0 165 215" fill="none" xmlns="http://www.w3.org/2000/svg">
<path fill-rule="evenodd" clip-rule="evenodd" d="M85.6336 37.8618C82.3688 39.8259 79.1609 40.7748 77.6551 40.3874C73.8792 39.416 73.532 25.6298 76.4536 20.1948C79.3752 14.7599 94.3947 12.3909 95.1517 23.1593C95.4145 26.8967 93.8421 30.2321 91.5189 32.9537L95.6845 52.3313H83.5843L85.6336 37.8618Z" fill="#B28B67"/>
<path fill-rule="evenodd" clip-rule="evenodd" d="M71.0931 12.6604C71.3436 11.7814 72.0176 11.0287 72.9259 10.8054C73.1461 10.7513 73.3736 10.7294 73.6002 10.7385C73.6815 10.7418 73.7043 10.7651 73.7423 10.7084C73.7705 10.6663 73.7711 10.5636 73.7827 10.5141C73.8188 10.3604 73.864 10.2086 73.9197 10.0607C74.1097 9.55636 74.4291 9.10998 74.8141 8.73396C75.5342 8.0305 76.5073 7.545 77.5182 7.45716C78.0715 7.40911 78.6207 7.49883 79.1438 7.67847C79.4146 7.77145 79.6772 7.88725 79.933 8.01526C80.01 8.05379 80.2598 8.24251 80.3371 8.23029C80.4225 8.2168 80.594 8.00512 80.6634 7.95198C81.5212 7.29514 82.5805 7.03689 83.6489 7.04479C84.8549 7.05368 86.0162 7.11382 87.022 7.84756C87.2349 8.0029 87.4377 8.17299 87.6307 8.35206C87.7324 8.44634 87.8309 8.54415 87.9248 8.64603C87.9815 8.70749 88.0367 8.77034 88.0898 8.83488C88.1799 8.94443 88.1655 8.98041 88.2916 8.90398C88.7757 8.61047 89.3366 8.4732 89.9016 8.5425C90.2371 8.58367 90.5635 8.68419 90.8734 8.81651C90.9789 8.86155 91.2232 9.04121 91.3357 9.04297C91.4473 9.04468 91.6881 8.87814 91.803 8.83581C92.4238 8.6071 93.0929 8.55073 93.7453 8.6564C94.4184 8.76545 95.0795 9.03345 95.6497 9.40379C95.924 9.58193 96.1633 9.77931 96.3555 10.0442C96.4385 10.1586 96.5135 10.2795 96.6076 10.3856C96.6626 10.4477 96.7717 10.5114 96.8012 10.59C96.7836 10.5429 97.5373 10.2529 97.6084 10.2344C97.9874 10.1356 98.3732 10.1556 98.7442 10.2775C99.442 10.5067 100.042 11.0206 100.535 11.5475C100.788 11.8181 101.01 12.1173 101.198 12.436C101.288 12.5887 101.371 12.7457 101.446 12.9061C101.483 12.9838 101.507 13.081 101.555 13.1509C101.617 13.2411 101.659 13.2428 101.772 13.2822C102.343 13.4818 102.863 13.8198 103.26 14.2764C103.661 14.7384 103.921 15.3074 104.03 15.9065C104.036 15.9418 104.04 16.0881 104.061 16.1072C104.089 16.1335 104.204 16.1218 104.247 16.1269C104.398 16.1445 104.547 16.1707 104.695 16.2056C104.966 16.2697 105.231 16.3642 105.481 16.4877C106.456 16.9692 107.153 17.8719 107.494 18.8876C107.853 19.9536 107.846 21.1749 107.418 22.2209C107.349 22.3899 107.267 22.5539 107.17 22.7091C107.111 22.8043 107.092 22.8045 107.13 22.9044C107.173 23.0156 107.252 23.1236 107.303 23.2323C107.469 23.5867 107.585 23.9627 107.659 24.3467C107.779 24.9765 107.839 25.6385 107.72 26.2731C107.665 26.5678 107.569 26.8559 107.422 27.1184C107.347 27.2522 107.26 27.3792 107.161 27.4966C107.109 27.5575 107.055 27.6158 106.998 27.6715C106.965 27.7034 106.923 27.7313 106.895 27.7669C106.827 27.8537 106.813 27.7823 106.848 27.9097C106.897 28.0879 107.007 28.2636 107.075 28.437C107.145 28.6156 107.208 28.7967 107.266 28.9796C107.382 29.3499 107.481 29.7269 107.543 30.1104C107.662 30.8467 107.641 31.6312 107.292 32.3069C107.143 32.596 106.929 32.8495 106.669 33.0468C106.542 33.1433 106.404 33.2265 106.26 33.2948C106.186 33.3299 106.091 33.345 106.057 33.4166C106.021 33.4936 106.075 33.6465 106.087 33.7326C106.194 34.4815 106.248 35.2677 106.025 36.0016C105.82 36.6775 105.367 37.2743 104.78 37.6694C103.641 38.4359 102.105 38.3927 100.908 37.7791C100.596 37.6191 100.304 37.4205 100.044 37.1863C99.3808 38.0772 98.0163 38.049 97.0472 37.7951C95.8397 37.4789 94.8709 36.641 94.3127 35.54C93.5494 36.4674 91.9476 36.1665 91.4183 35.1605C91.2887 34.9142 91.2119 34.6429 91.174 34.3683C91.1541 34.2239 91.1668 34.0782 91.1519 33.9349C91.1328 33.7524 91.0106 33.575 90.9404 33.3984C90.8036 33.0548 90.7187 32.6998 90.7151 32.3291C90.7132 32.1355 90.7377 31.9469 90.7562 31.7549C90.7728 31.5821 90.7247 31.421 90.6974 31.2505C91.0071 31.3014 91.3844 31.218 91.6761 31.1284C91.9624 31.0405 92.2306 30.8088 92.4326 30.5973C92.9018 30.1061 93.1885 29.4623 93.3845 28.8214C93.8148 27.4149 93.6384 25.7274 92.2209 24.9554C91.5606 24.5958 89.5823 24.597 88.7958 24.7747C87.9688 24.9616 87.0313 26.7828 86.9852 26.9539C86.9566 27.0599 86.971 27.191 86.8735 27.2616C86.6592 27.4168 86.3057 27.1474 86.1477 27.0145C85.8749 26.7851 85.6803 26.4798 85.5118 26.1704C85.1447 25.4962 84.8487 24.7733 84.6396 24.0353C84.4784 23.4663 84.3753 22.8796 84.1646 22.3252C83.955 21.7734 83.6245 21.2803 83.1106 20.9678C82.5516 20.6278 81.9108 20.4487 81.2971 20.235C80.6888 20.0233 80.0911 19.7645 79.6195 19.3151C79.5159 19.2163 79.4152 19.1114 79.3317 18.995C79.2658 18.9032 79.2007 18.7274 79.1003 18.6692C78.9443 18.5786 78.7166 18.8142 78.5816 18.8997C77.9159 19.3217 77.3605 19.9102 76.9125 20.5531C76.4671 21.1925 76.1015 21.8078 75.8045 22.5218C75.5842 23.0514 75.4467 23.7296 75.0592 24.1635C74.8862 24.3573 73.6002 24.4745 73.1837 24.3054C72.7672 24.1362 72.3004 23.6969 72.1606 23.4216C72.0175 23.1398 71.9833 22.8303 72.0444 22.5218C72.0804 22.3403 72.1539 22.1708 72.194 21.9926C72.2279 21.8428 72.2586 21.7013 72.3316 21.5641C72.47 21.3042 72.7064 21.1174 72.9916 21.0392C72.6948 20.7662 72.449 20.4395 72.2788 20.0744C72.102 19.695 71.9522 19.2337 71.9097 18.8173C71.8751 18.4791 71.9285 18.1288 72.114 17.8381C72.3086 17.5333 72.6533 17.3344 72.9516 17.1442C72.496 16.7884 72.106 16.3558 71.7855 15.8767C71.1621 14.9452 70.7764 13.771 71.0931 12.6604Z" fill="#191847"/>
<path fill-rule="evenodd" clip-rule="evenodd" d="M121.531 115.229C130.368 115.229 137.531 122.393 137.531 131.229V161.624C137.531 170.461 130.367 177.624 121.531 177.624H79.4174C70.5808 177.624 63.4174 170.461 63.4174 161.624V131.229C63.4174 122.393 70.5808 115.229 79.4174 115.229H121.531ZM119.414 129.319C121.623 129.319 123.414 131.109 123.414 133.319V159.535C123.414 161.744 121.623 163.535 119.414 163.535H81.5342C79.3251 163.535 77.5342 161.744 77.5342 159.535V133.319C77.5342 131.109 79.3251 129.319 81.5342 129.319H119.414Z" fill="#C5CFD6"/>
<path fill-rule="evenodd" clip-rule="evenodd" d="M40.3711 142.693C38.4959 149.249 33.8241 161.674 27.3643 175.944L21.2258 174.156C26.5961 141.321 31.0655 119.582 33.6256 112.966C35.3171 108.595 48.114 109.107 46.6418 117.903C46.0245 121.591 43.5819 131.469 40.3711 142.693ZM65.6019 119.437C75.6124 121.507 96.3682 128.824 102.295 131.162C106.02 132.632 103.619 137.615 100.441 137.179C99.9027 137.105 97.999 136.893 95.1583 136.576C86.0338 135.557 67.2432 133.459 52.9918 131.412C45.4877 130.334 49.5244 116.305 57.3158 117.79C59.9371 118.289 62.7252 118.842 65.6019 119.437Z" fill="#B28B67"/>
<path fill-rule="evenodd" clip-rule="evenodd" d="M33.2331 109.261C34.2565 105.927 80.78 94.0956 80.78 94.0956H84.5927V97.6414L52.5337 113.929C52.5763 114.455 52.5501 115.01 52.4468 115.596C52.6783 127.671 47.5002 136.692 42.3736 145.623C39.0211 151.463 35.6906 157.265 33.9092 163.858L22.1308 162.104C22.4739 161.228 23.0165 157.28 23.7582 151.881C25.6286 138.268 28.7657 115.435 33.1669 109.394C33.1822 109.373 33.1979 109.352 33.2138 109.331C33.2195 109.308 33.2259 109.284 33.2331 109.261Z" fill="#1F28CF"/>
<path fill-rule="evenodd" clip-rule="evenodd" d="M81.9291 123.603C84.8624 123.017 87.5636 122.494 89.8751 122.089C104.805 119.475 109.159 111.499 106.585 94.0956H79.0761C74.5825 95.384 51.2294 105.158 39.1128 110.357C31.0934 113.798 33.6214 126.201 38.1628 129.429C38.1875 129.627 38.2692 129.762 38.4148 129.822C55.6327 136.944 70.3155 136.413 79.7441 136.071C83.6931 135.928 86.7203 135.819 88.6261 136.319L91.6123 126.918L81.9291 123.603Z" fill="#2B44FF"/>
<path fill-rule="evenodd" clip-rule="evenodd" d="M99.0777 131.755C99.1912 130.589 100.171 129.642 101.331 129.811C102.209 129.939 103.141 130.126 103.677 130.387C104.903 130.984 107.055 132.536 107.055 132.536C106.362 133.956 94.5897 158.045 94.5897 158.045C94.5897 158.045 90.8102 157.436 91.5945 155.166C92.3788 152.896 92.8596 151.376 92.8596 151.376L93.34 137.453C93.3595 136.89 93.8408 136.454 94.4037 136.489L96.1179 136.596C96.1179 136.596 98.0142 135.065 98.6201 133.825C98.8668 133.32 99.003 132.522 99.0777 131.755Z" fill="#E4E4E4"/>
<path fill-rule="evenodd" clip-rule="evenodd" d="M27.9099 173.142C29.0059 172.733 30.2835 173.198 30.6399 174.312C30.9099 175.156 31.1503 176.075 31.1503 176.671C31.1503 178.032 30.6959 180.644 30.6959 180.644C29.1138 180.644 2.25955 180.644 2.25955 180.644C2.25955 180.644 1.15111 176.986 3.53926 176.695C5.92741 176.403 7.50702 176.168 7.50702 176.168L20.2591 170.494C20.7733 170.265 21.375 170.506 21.5899 171.026L22.2449 172.612C22.2449 172.612 24.4557 173.642 25.8379 173.642C26.4026 173.642 27.1836 173.413 27.9099 173.142Z" fill="#E4E4E4"/>
<path fill-rule="evenodd" clip-rule="evenodd" d="M41.046 100.012L55.3282 86.1063L60.0718 94.2982L45.2202 103.037C41.4963 108.892 39.3092 111.421 38.6589 110.626C38.1106 109.956 38.3619 109.221 38.5934 108.544C38.7737 108.016 38.942 107.524 38.7109 107.125C38.183 106.213 35.2013 106.735 32.3929 107.352C29.5845 107.968 30.2343 106.591 30.8312 105.872C33.4855 103.734 36.8904 101.781 41.046 100.012ZM125.23 120.215C123.753 117.224 118.721 88.0674 118.721 88.0674L108.185 88.1088C108.185 88.1088 117.944 119.548 118.721 121.472C119.732 123.971 118.015 127.601 116.852 130.063C116.672 130.444 116.505 130.797 116.363 131.114C117.978 131.835 118.754 130.963 119.572 130.044C120.495 129.006 121.472 127.908 123.773 128.976C124.662 129.389 125.503 129.877 126.325 130.354C129.163 132 131.771 133.513 135.318 131.329C135.881 130.982 136.497 129.678 135.008 128.659C131.298 126.121 125.952 121.678 125.23 120.215Z" fill="#B28B67"/>
<path fill-rule="evenodd" clip-rule="evenodd" d="M88.7798 43.9442L84.4201 43.1979C76.9142 61.9114 63.8097 78.9151 45.1065 94.2088L59.2396 111.345C77.9406 89.5693 89.4679 67.1021 88.7798 43.9442Z" fill="#191847"/>
<path fill-rule="evenodd" clip-rule="evenodd" d="M107.785 98.6243H68.9633C68.9633 98.6243 82.4543 65.8859 82.4543 43.0026L94.1648 41.2612C103.368 56.0339 105.967 74.2221 107.785 98.6243Z" fill="#DDE3E9"/>
<path fill-rule="evenodd" clip-rule="evenodd" d="M125.431 115.229C121.185 67.4248 94.4221 41.2612 94.4221 41.2612L94.4128 41.2694C94.4112 41.2667 94.4097 41.2639 94.4081 41.2612H93.6437C92.2717 41.3083 89.4642 41.4311 89.4642 41.4311L86.6345 49.5018C86.1855 64.2619 81.3906 108.993 81.3906 108.993H106.802C106.758 111.044 106.663 113.124 106.509 115.229H125.431Z" fill="#2F3676"/>
<path fill-rule="evenodd" clip-rule="evenodd" d="M106.797 109.191C107 100.26 106.206 91.8735 104.882 84.2844C104.189 93.2898 102.741 104.126 99.7179 109.191H106.797Z" fill="black" fill-opacity="0.1"/>
<path fill-rule="evenodd" clip-rule="evenodd" d="M101.174 93.5924L88.6261 87.7702V93.5924H101.174Z" fill="white" fill-opacity="0.2"/>
</svg>
