<svg width="157" height="214" viewBox="0 0 157 214" fill="none" xmlns="http://www.w3.org/2000/svg">
<path fill-rule="evenodd" clip-rule="evenodd" d="M79.1347 37.7122C82.3795 39.6684 85.5676 40.6136 87.0642 40.2278C90.8169 39.2603 91.1619 25.5285 88.2583 20.115C85.3547 14.7015 70.4276 12.342 69.6752 23.0678C69.4141 26.7904 70.9768 30.1126 73.2857 32.8234L69.1457 52.1245H81.1714L79.1347 37.7122Z" fill="#B28B67"/>
<path fill-rule="evenodd" clip-rule="evenodd" d="M87.4729 18.0159C87.3675 17.3617 87.5761 17.0407 84.9468 15.1979C82.3174 13.3551 78.0722 11.1816 73.7964 12.1275C68.2475 13.3551 66.0435 17.0162 63.9037 18.7961C61.9748 20.4007 60.0394 20.5878 58.8924 22.5789C57.7454 24.5699 57.1351 30.298 58.1325 32.5753C59.5083 35.7167 62.2214 36.5627 64.202 37.4678C67.5987 39.0199 72.3999 37.3806 72.5162 37.1091C73.4158 35.0085 78.2586 29.0829 81.1713 26.5933C83.3133 24.7626 87.9674 21.0859 87.4729 18.0159Z" fill="#5C63AB"/>
<mask id="mask0" mask-type="alpha" maskUnits="userSpaceOnUse" x="57" y="11" width="31" height="28">
<path fill-rule="evenodd" clip-rule="evenodd" d="M87.4729 18.0159C87.3675 17.3617 87.5761 17.0407 84.9468 15.1979C82.3174 13.3551 78.0722 11.1816 73.7964 12.1275C68.2475 13.3551 66.0435 17.0162 63.9037 18.7961C61.9748 20.4007 60.0394 20.5878 58.8924 22.5789C57.7454 24.5699 57.1351 30.298 58.1325 32.5753C59.5083 35.7167 62.2214 36.5627 64.202 37.4678C67.5987 39.0199 72.3999 37.3806 72.5162 37.1091C73.4158 35.0085 78.2586 29.0829 81.1713 26.5933C83.3133 24.7626 87.9674 21.0859 87.4729 18.0159Z" fill="white"/>
</mask>
<g mask="url(#mask0)">
<path fill-rule="evenodd" clip-rule="evenodd" d="M70.9663 33.1907C65.2158 26.0971 63.8628 17.5419 63.8628 17.5419L62.1306 18.6377C62.1306 18.6377 64.261 27.9868 70.9663 33.1907ZM73.1542 37.0885C63.8482 28.9096 61.6288 19.7181 61.6288 19.7181L59.6253 20.309C59.6253 20.309 62.3862 30.5872 73.1542 37.0885Z" fill="black" fill-opacity="0.2"/>
</g>
<path fill-rule="evenodd" clip-rule="evenodd" d="M66.1393 93.7238L103.372 155.986L131.286 208.623H137.298L90.5283 93.7238L66.1393 93.7238Z" fill="#997659"/>
<path fill-rule="evenodd" clip-rule="evenodd" d="M130.005 206.044C128.907 205.635 127.628 206.099 127.272 207.215C127.005 208.053 126.769 208.962 126.769 209.553C126.769 210.909 127.221 213.51 127.221 213.51C128.793 213.51 155.482 213.51 155.482 213.51C155.482 213.51 156.583 209.867 154.21 209.577C151.837 209.286 150.267 209.052 150.267 209.052L137.6 203.404C137.085 203.174 136.483 203.415 136.268 203.936L135.619 205.51C135.619 205.51 133.422 206.535 132.049 206.535C131.491 206.535 130.722 206.311 130.005 206.044Z" fill="#E4E4E4"/>
<path fill-rule="evenodd" clip-rule="evenodd" d="M123.534 200.194L135.128 196.686C135.128 196.686 127.508 173.901 116.45 146.537C105.391 119.173 92.6961 93.7238 92.6961 93.7238H59.9481C59.9481 93.7238 74.0619 125.916 89.8731 152.226C105.684 178.536 123.534 200.194 123.534 200.194Z" fill="#DB2721"/>
<path fill-rule="evenodd" clip-rule="evenodd" d="M63.6924 93.7238C60.1783 115.603 53.4006 143.556 52.7609 144.419C52.3345 144.994 36.9833 150.14 6.70715 159.855L8.00591 165.158C44.1101 159.948 63.1339 155.905 65.0774 153.031C67.9926 148.719 82.5486 114.655 88.1864 93.7238H63.6924Z" fill="#B28B67"/>
<path fill-rule="evenodd" clip-rule="evenodd" d="M17.3497 155.271L19.6373 163.812C46.6411 166.181 63.1869 164.469 69.2748 158.677C75.3627 152.884 82.301 131.233 90.0899 93.7238H58.8627C53.9279 124.439 51.169 140.441 50.586 141.731C50.0031 143.02 38.9243 147.534 17.3497 155.271Z" fill="#FF4133"/>
<path fill-rule="evenodd" clip-rule="evenodd" d="M8.75333 159.978C8.96509 158.826 8.28563 157.647 7.1254 157.491C6.25442 157.373 5.31794 157.298 4.73577 157.401C3.401 157.636 0.918665 158.533 0.918665 158.533C1.19169 160.082 5.82619 186.372 5.82619 186.372C5.82619 186.372 9.60406 186.824 9.4779 184.436C9.35173 182.048 9.30957 180.461 9.30957 180.461L12.6712 167.002C12.8077 166.455 12.4661 165.904 11.916 165.783L10.2534 165.417C10.2534 165.417 8.86225 163.431 8.62371 162.078C8.5269 161.529 8.61475 160.731 8.75333 159.978Z" fill="#E4E4E4"/>
<path fill-rule="evenodd" clip-rule="evenodd" d="M103.083 100.372C93.5666 120.195 53.5078 106.81 53.5078 106.81C53.5078 103.375 54.8699 99.9311 56.3005 96.3143C57.8343 92.4362 59.4469 88.3591 59.5434 83.8806C59.7208 75.6412 61.2611 50.6772 67.6891 42.2443C67.8061 41.8633 67.9249 41.4813 68.0454 41.0981L68.4903 41.3075C68.5597 41.2359 68.6297 41.1661 68.7001 41.0981L82.7254 43.2673C82.7254 49.6126 86.785 55.6295 90.4395 61.0459C91.3287 62.3638 92.194 63.6461 92.9709 64.889C93.9885 66.5169 95.1369 68.174 96.3138 69.8721C102.274 78.4718 108.963 88.123 103.083 100.372Z" fill="#C1DEE2"/>
<path fill-rule="evenodd" clip-rule="evenodd" d="M85.1113 96.6243C86.0492 91.7826 86.6577 88.5502 86.9367 86.9272C94.4086 95.3728 98.7252 99.6446 99.8865 99.7425C102.07 99.9268 103.684 97.9896 104.144 98.5342C104.903 100.79 102.758 106.435 98.6578 107.256C96.6999 107.648 93.67 103.609 92.4217 102.178C91.9307 101.616 89.4939 99.7642 85.1113 96.6243V96.6243ZM98.0179 70.8102C99.9548 70.8102 100.995 71.6112 102.141 73.2272C103.286 74.8431 104.369 82.4644 102.531 82.4644C100.692 82.4644 92.9883 79.5183 92.9883 77.5376C92.9883 75.557 98.2449 74.7182 98.2449 73.2272C98.2449 71.7361 96.081 70.8102 98.0179 70.8102Z" fill="#B28B67"/>
<path fill-rule="evenodd" clip-rule="evenodd" d="M65.4204 50.4793C60.501 70.9945 62.5049 88.2971 81.2006 103.992C80.9809 104.78 80.8491 105.251 80.8491 105.251C58.904 89.9098 58.8937 71.3182 65.4204 50.4793Z" fill="black" fill-opacity="0.2"/>
</svg>
