<svg width="146" height="214" viewBox="0 0 146 214" fill="none" xmlns="http://www.w3.org/2000/svg">
<path fill-rule="evenodd" clip-rule="evenodd" d="M65.4255 43.0353C68.9525 44.0492 72.1733 44.1327 73.4776 43.3969C76.748 41.5517 73.6332 28.6352 69.56 24.3055C65.4869 19.9759 50.9238 21.5151 52.9048 31.7253C53.5923 35.2689 55.8868 37.9809 58.7266 39.9346L59.6835 59.0064L70.94 55.9902L65.4255 43.0353Z" fill="#B28B67"/>
<path fill-rule="evenodd" clip-rule="evenodd" d="M63.6377 19.9882C61.9741 19.932 59.6987 20.3715 58.7882 20.7306C58.98 19.3093 58.8105 17.8285 58.2661 16.4883C57.7371 15.1861 56.8268 14.2005 55.947 13.1478C55.5415 12.6626 55.1026 12.1896 54.5547 11.8822C53.9966 11.569 53.3601 11.4341 52.7364 11.4554C52.0982 11.4773 51.4729 11.6573 50.9048 11.9449C50.6535 12.0721 50.4471 12.2576 50.2041 12.3952C49.9552 12.5361 49.7807 12.4037 49.5416 12.2878C48.9654 12.0085 48.2261 11.9924 47.6152 12.0795C46.9297 12.1773 46.2676 12.4619 45.6927 12.8495C45.1332 13.2267 44.6334 13.7299 44.3223 14.3512C44.1837 14.6277 44.0717 14.9303 44.0299 15.2424C44.0128 15.3704 44.0231 15.4408 43.9193 15.5139C43.8232 15.5815 43.699 15.616 43.5991 15.6826C42.6326 16.3267 41.9437 17.39 41.731 18.5752C41.6069 19.2667 41.7598 20.3845 42.122 21.5863C42.4842 22.7881 44.4274 25.6565 45.7615 26.5352C46.9524 27.3196 48.4793 27.6386 49.8569 27.5882C49.2589 28.8022 49.0146 30.1844 48.9253 31.5475C48.8283 33.0282 48.9211 34.5148 49.2009 35.9799C49.4667 37.372 49.8443 38.8182 50.5228 40.0683C51.1575 41.2374 52.0735 42.0906 53.3183 42.454C53.8885 42.6205 54.4761 42.7029 55.0616 42.7652C55.6386 42.8266 56.2157 42.882 56.7938 42.8483C57.888 42.7844 59.0728 42.4276 59.6507 41.3896C59.859 41.0154 60.0755 40.5573 60.1883 40.1382C60.2289 39.9874 60.2515 39.8899 60.1256 39.7869C59.9748 39.6636 59.7656 39.5942 59.5924 39.5125C58.6047 39.0468 57.8626 38.2707 57.4473 37.2233C57.026 36.1606 56.9417 34.6658 57.8816 33.9009C59.0417 32.9567 60.6755 33.2459 62.0168 33.5641C62.0446 31.6757 62.6438 29.8214 64.0314 28.5868C65.5665 27.2209 67.5739 26.5713 69.192 25.3188C69.6136 24.9924 70.0369 24.6367 70.2779 24.1373C70.3786 23.9285 70.4911 23.6626 70.4893 23.4227C70.4871 23.1076 70.2306 22.9116 70.022 22.7213C68.9163 21.7125 65.3013 20.0443 63.6377 19.9882Z" fill="#191847"/>
<path fill-rule="evenodd" clip-rule="evenodd" d="M62.153 97.8594L79.7573 159.539L92.6015 205H101.97L88.3208 97.8594H62.153Z" fill="#191847"/>
<path fill-rule="evenodd" clip-rule="evenodd" d="M57.445 97.8594C57.0378 129.65 55.6493 146.989 55.2218 149.877C54.7943 152.766 48.3298 171.14 35.8284 205H45.5332C61.4484 172.517 70.3327 154.143 72.186 149.877C74.0394 145.612 79.759 128.273 88.3737 97.8594H57.445Z" fill="#2F3676"/>
<path fill-rule="evenodd" clip-rule="evenodd" d="M34.961 213.726L35.4466 203.546L45.6435 203.546C52.8962 208.636 64.5808 211.787 64.5808 211.787V213.726H46.1291L39.8167 212.757V213.726H34.961Z" fill="#191847"/>
<path fill-rule="evenodd" clip-rule="evenodd" d="M91.2871 213.726L91.7727 203.546L101.97 203.546C109.222 208.636 120.907 211.787 120.907 211.787V213.726H102.455L96.1428 212.757V213.726H91.2871Z" fill="#191847"/>
<path fill-rule="evenodd" clip-rule="evenodd" d="M28.7275 123.984C30.0496 121.053 35.4605 91.4149 35.4605 91.4149L44.1467 91.1495C44.1467 91.1495 35.7184 123.095 35.0341 124.974C34.1452 127.414 35.9183 130.852 37.1206 133.183C37.3066 133.544 37.479 133.878 37.6257 134.178C36.0957 134.927 35.32 134.114 34.5022 133.257C33.5786 132.289 32.6013 131.264 30.4226 132.371C29.5809 132.798 28.7877 133.296 28.0127 133.783C25.3358 135.465 22.8766 137.01 19.3894 135.026C18.8366 134.712 18.1999 133.477 19.5989 132.445C23.0845 129.875 28.0812 125.416 28.7275 123.984ZM118.347 94.8495L101.758 85.1764L99.2351 93.9391L115.152 98.6497C119.997 103.255 122.631 105.111 123.053 104.216C123.409 103.461 123.003 102.833 122.629 102.254C122.337 101.803 122.065 101.382 122.188 100.955C122.469 99.98 125.377 99.7736 128.145 99.6955C130.913 99.6174 129.985 98.4817 129.26 97.9489C126.281 96.5686 122.643 95.5355 118.347 94.8495Z" fill="#B28B67"/>
<path fill-rule="evenodd" clip-rule="evenodd" d="M64.7817 50.7004L69.7243 48.0422C79.9742 64.5428 93.6208 79.8504 113.919 91.2335L110.864 99.5632C93.6573 93.143 77.6432 88.6225 69.2285 75.9197C66.4043 71.6564 65.5913 56.2508 64.7817 50.7004Z" fill="#C5CFD6"/>
<path fill-rule="evenodd" clip-rule="evenodd" d="M55.5676 103.851C55.5676 103.851 78.5389 102.262 91.0668 97.5913C92.1016 97.2056 91.955 95.388 91.2451 94.2621C80.1896 76.7288 71.9859 61.1756 69.6718 48.0515C67.7346 49.4964 62.2875 49.6842 62.2875 49.6842C55.1497 64.8882 53.5088 81.1783 55.5676 103.851Z" fill="#323337"/>
<path fill-rule="evenodd" clip-rule="evenodd" d="M59.3587 49.0318C59.5754 48.8231 59.6907 48.718 59.6907 48.718L59.7204 48.9681L63.6889 48.2683C64.0948 49.4041 65.1522 53.6926 66.694 59.9459C72.2967 82.6696 84.2962 131.338 94.6753 148.943L45.9928 157.527C43.2414 135.916 46.6361 108.895 50.9967 85.6895C46.0072 92.7648 40.7188 104.083 37.966 121.857L28.4351 121.128C30.6784 79.5092 54.2693 54.0897 58.9032 49.4783C58.9339 49.3502 58.9643 49.2228 58.9946 49.096L59.3587 49.0318Z" fill="#DDE3E9"/>
</svg>
