<svg width="146" height="214" viewBox="0 0 146 214" fill="none" xmlns="http://www.w3.org/2000/svg">
<path fill-rule="evenodd" clip-rule="evenodd" d="M83.499 44.4233C86.0342 47.058 88.7692 48.7357 90.2604 48.7495C93.9996 48.7843 97.7527 36.0637 96.3994 30.2898C95.0461 24.5159 81.7241 18.5876 78.3426 28.4031C77.1689 31.8097 77.7951 35.2984 79.2695 38.4032L70.5878 55.3701L81.7955 58.3732L83.499 44.4233Z" fill="#B28B67"/>
<path fill-rule="evenodd" clip-rule="evenodd" d="M94.7658 26.2838C94.5502 26.0616 94.0998 25.5942 93.8591 25.4041C93.8023 25.3586 93.4377 24.9158 93.4245 24.9167C93.0523 24.9405 91.9498 25.1012 91.7664 25.4462C91.7458 25.4706 91.7259 25.4932 91.7072 25.5127C91.4988 25.7301 91.3003 25.9568 91.1069 26.1883C90.6824 26.6966 90.2876 27.2409 89.9046 27.7832C89.1586 28.8394 88.4619 29.9381 87.7948 31.0476C87.1157 32.1771 86.4858 33.3351 85.8228 34.4744C84.8688 36.1136 83.792 37.6735 82.8415 39.313C82.2345 40.3598 81.7592 41.4561 81.528 42.6389C81.5251 42.6531 81.5218 42.667 81.5193 42.6815C81.5182 42.6875 81.5174 42.6934 81.5164 42.6993C81.4821 42.8815 81.4536 43.0657 81.4313 43.2521C81.4128 43.4117 81.3942 43.5718 81.3771 43.7323C82.0458 42.9794 82.6352 42.1104 83.2319 41.2955C83.2902 41.2157 83.3472 41.1348 83.4035 41.0535C83.5667 40.8995 83.7319 40.7475 83.8981 40.5965C84.9464 39.6445 85.9965 38.6974 87.0199 37.7164C88.8607 35.952 90.7016 34.1398 92.7332 32.611C93.333 32.1595 93.941 31.7196 94.5365 31.262C94.8754 31.0015 95.2093 30.7339 95.5368 30.4582C95.7709 30.261 96.7328 29.6128 96.6026 29.0336C96.5359 28.7373 95.3252 26.8601 94.7658 26.2838Z" fill="#2C2C2C"/>
<path fill-rule="evenodd" clip-rule="evenodd" d="M93.9288 25.4681C94.156 25.619 94.1738 25.0665 93.9811 24.8187C93.088 23.6708 88.8876 22.2156 84.9531 21.9913C82.3173 21.8411 79.0675 22.3543 76.6285 23.48C74.4298 24.4947 72.5507 26.5624 71.2931 28.7097C69.9726 30.9643 69.1915 33.4744 68.8952 36.0699C68.8301 36.64 68.8659 37.2095 68.82 37.7723C68.7684 38.4061 68.6691 39.003 68.7082 39.6436C68.7322 40.0357 68.8422 40.4434 68.848 40.8328C68.8546 41.2773 68.6807 41.6402 68.4826 42.0374C68.1598 42.6848 67.8039 43.3218 67.3831 43.9099C66.7513 44.7931 66.0574 45.5928 65.5038 46.5367C64.7671 47.7925 62.0234 51.7863 62.8423 53.2947L84.5658 59.1156C84.419 57.4754 83.248 55.2777 83.3441 53.5898C83.4006 52.5955 83.8586 50.5136 83.8582 50.4334C84.2737 46.9244 83.7501 45.0552 83.3082 44.3094C82.8664 43.5636 82.1173 43.1699 82.2123 42.6511C82.6052 40.5055 83.9787 38.7167 85.1157 36.9206C86.4708 34.7799 87.6466 32.5291 89.0222 30.4024C89.6313 29.4606 92.7494 24.6848 93.9288 25.4681Z" fill="#8991DC"/>
<path fill-rule="evenodd" clip-rule="evenodd" d="M82.8239 33.1693C83.6002 29.5672 84.1485 28.2256 85.6649 25.8434L85.1598 25.708C84.0846 26.5266 82.5702 29.5057 82.422 33.0616L82.8239 33.1693ZM72.9696 30.3493C72.9393 30.1098 72.9083 29.8647 72.8757 29.613L72.5132 29.6814C72.5325 33.6624 72.9975 36.8562 76.5862 40.3908L76.9772 40.2483C73.7296 36.359 73.4347 34.0268 72.9696 30.3493ZM80.159 27.5205C80.1152 27.8536 80.0718 28.1778 80.0294 28.4944C79.3785 33.3569 78.9657 36.4404 80.9087 42.7539L80.4929 42.7685C78.1185 36.7601 78.6254 32.5112 79.7925 27.4533L80.159 27.5205ZM72.4162 41.7723L71.9802 42.0843C73.5347 42.8706 74.3296 44.383 75.2409 46.1169C76.2051 47.9514 77.2995 50.0338 79.5617 51.7662L80.1107 51.6063C77.7214 49.4173 76.8146 47.6352 76.0228 46.079C75.2031 44.468 74.5066 43.0993 72.4162 41.7723Z" fill="black" fill-opacity="0.2"/>
<path fill-rule="evenodd" clip-rule="evenodd" d="M56.3927 98.1451C57.2645 110.054 113.423 145.116 113.751 146.1C113.969 146.756 96.2706 187.564 96.2706 187.564L101.18 189.473C101.18 189.473 128.326 146.255 126.932 141.65C124.935 135.057 83.3591 98.2717 83.3591 98.2717L56.3927 98.1451Z" fill="#B28B67"/>
<path fill-rule="evenodd" clip-rule="evenodd" d="M97.5625 181.42L105.577 184.34C122.478 165.253 129.102 149.504 127.895 141.48C126.687 133.456 84.4722 98.1743 84.4722 98.1743L55.818 98.1743C56.7957 125.754 108.848 146.205 109.544 147.38C110.24 148.556 103.388 160.066 97.5625 181.42Z" fill="#2F3676"/>
<path fill-rule="evenodd" clip-rule="evenodd" d="M96.7437 187.33C95.8481 186.575 94.487 186.572 93.7749 187.501C93.2727 188.157 92.7828 188.876 92.5936 189.396C92.1463 190.626 91.6976 193.135 91.6976 193.135C93.1232 193.655 117.321 202.47 117.321 202.47C117.321 202.47 119.522 199.529 117.466 198.482C115.41 197.434 114.063 196.703 114.063 196.703L104.469 187.42C104.064 187.028 103.415 187.048 103.035 187.464L101.952 188.651C101.952 188.651 99.6215 188.856 98.376 188.402C97.8883 188.224 97.2905 187.791 96.7437 187.33Z" fill="#E4E4E4"/>
<path fill-rule="evenodd" clip-rule="evenodd" d="M62.8498 98.1451L37.8327 158.261L13.2448 209.085H19.0459L82.5139 98.1451H62.8498Z" fill="#997659"/>
<path fill-rule="evenodd" clip-rule="evenodd" d="M15.281 206.621C14.1811 206.218 12.9006 206.68 12.5491 207.798C12.3013 208.586 12.0865 209.429 12.0865 209.983C12.0865 211.292 12.5222 213.803 12.5222 213.803C14.0393 213.803 39.7902 213.803 39.7902 213.803C39.7902 213.803 40.8531 210.286 38.5631 210.005C36.2731 209.725 34.7584 209.499 34.7584 209.499L22.5703 204.06C22.0556 203.83 21.4528 204.071 21.2381 204.592L20.6259 206.079C20.6259 206.079 18.506 207.069 17.1806 207.069C16.6617 207.069 15.9522 206.867 15.281 206.621Z" fill="#E4E4E4"/>
<path fill-rule="evenodd" clip-rule="evenodd" d="M15.4652 198.527L28.3553 200.946C38.3218 186.28 80.0323 126.141 84.6055 98.1451H55.9093C40.6372 118.383 24.9654 183.617 15.4652 198.527Z" fill="#5C63AB"/>
<path fill-rule="evenodd" clip-rule="evenodd" d="M115.497 111.587L104.332 96.0383L98.4839 103.007L111.05 113.757C113.588 119.922 115.231 122.682 115.978 122.037C116.608 121.493 116.494 120.755 116.388 120.075C116.306 119.546 116.229 119.052 116.514 118.712C117.165 117.937 119.893 118.928 122.443 119.979C124.992 121.03 124.608 119.618 124.164 118.838C122.015 116.371 119.126 113.954 115.497 111.587ZM32.6237 116.703C34.5185 114.116 44.139 87.3398 44.139 87.3398L54.0817 89.1334C54.0817 89.1334 39.6162 117.285 38.5605 118.977C37.1891 121.176 38.2034 124.9 38.8912 127.426C38.9976 127.817 39.0962 128.179 39.1769 128.502C37.5316 128.916 36.9447 127.961 36.3259 126.955C35.6271 125.818 34.8876 124.615 32.5365 125.244C31.6282 125.487 30.7525 125.809 29.8968 126.123C26.9413 127.21 24.2262 128.209 21.2412 125.549C20.768 125.128 20.4037 123.79 21.98 123.073C25.9071 121.286 31.6974 117.968 32.6237 116.703Z" fill="#B28B67"/>
<path fill-rule="evenodd" clip-rule="evenodd" d="M79.7828 50.5359L84.0244 50.555C87.9874 69.5287 97.523 87.8151 112.631 105.414L96.4229 119.291C82.3993 95.5528 75.2656 72.3545 79.7828 50.5359Z" fill="#191847"/>
<path fill-rule="evenodd" clip-rule="evenodd" d="M52.704 99.1595L89.3648 105.624C89.3648 105.624 82.092 72.3705 85.9135 50.6974L75.1455 47.0982C63.9873 59.5571 58.4955 76.3505 52.704 99.1595Z" fill="#DDE3E9"/>
<path fill-rule="evenodd" clip-rule="evenodd" d="M74.91 47.0647L74.9026 47.0554C74.9026 47.0554 45.2596 67.3787 33.2668 111.948L51.1357 115.099C51.3421 113.079 51.599 111.093 51.9007 109.143L75.8975 113.375C75.8975 113.375 78.8396 70.211 80.8806 56.1569L79.5562 48.0418C79.5562 48.0418 76.9254 47.4581 75.6376 47.185L74.9157 47.0577C74.9138 47.06 74.9119 47.0624 74.91 47.0647Z" fill="#2F3676"/>
<path fill-rule="evenodd" clip-rule="evenodd" d="M51.8717 109.332C53.1717 100.839 55.322 93.0286 57.84 86.0614C56.9903 94.7058 56.5478 105.21 58.5571 110.511L51.8717 109.332Z" fill="black" fill-opacity="0.1"/>
<path fill-rule="evenodd" clip-rule="evenodd" d="M59.7866 95.4944L72.609 92.0697L71.6367 97.5839L59.7866 95.4944Z" fill="white" fill-opacity="0.2"/>
</svg>
