<svg width="151" height="214" viewBox="0 0 151 214" fill="none" xmlns="http://www.w3.org/2000/svg">
<path fill-rule="evenodd" clip-rule="evenodd" d="M71.8356 39.0358C77.5769 39.0358 79.6649 32.1623 82.9267 28.3903C85.2605 25.6916 89.2435 26.4963 90.4224 22.7181C93.3871 13.2173 85.4523 6.53052 75.1008 6.53052C64.7494 6.53052 57.7699 12.395 56.2628 21.211C54.7558 30.027 61.4842 39.0358 71.8356 39.0358Z" fill="#191847"/>
<path fill-rule="evenodd" clip-rule="evenodd" d="M78.3336 37.7988C81.5867 39.7595 84.7829 40.7069 86.2833 40.3201C90.0455 39.3504 90.3914 25.5871 87.4804 20.1612C84.5694 14.7352 69.6043 12.3703 68.85 23.1208C68.5882 26.8519 70.1549 30.1817 72.4697 32.8988L68.3192 52.2441H80.3755L78.3336 37.7988Z" fill="#B28B67"/>
<path fill-rule="evenodd" clip-rule="evenodd" d="M69.6337 15.5728C60.3989 24.615 69.669 34.2258 72.2089 34.2258C72.3729 32.9212 72.873 31.6521 73.6058 30.4443C73.2166 29.9402 72.9859 29.3133 72.9859 28.6338C72.9859 26.9692 74.3706 25.6197 76.0787 25.6197C76.6122 25.6197 77.1141 25.7514 77.5521 25.9831C81.2545 22.8256 85.898 20.6245 88.2036 20.1916C92.2138 19.4388 78.8684 6.53054 69.6337 15.5728Z" fill="#191847"/>
<path fill-rule="evenodd" clip-rule="evenodd" d="M64.3005 93.939L83.2043 155.74L92.3617 208.298H99.5418L89.8655 93.939H64.3005Z" fill="#997659"/>
<path fill-rule="evenodd" clip-rule="evenodd" d="M57.5377 93.939C58.8217 127.871 57.3106 145.374 57.0233 148.457C56.7359 151.539 52.8008 171.529 43.485 209.332L51.136 206.705C65.8587 172.033 70.8757 154.014 72.5642 149.461C74.2528 144.909 78.7376 126.401 86.0187 93.939H57.5377Z" fill="#B28B67"/>
<path fill-rule="evenodd" clip-rule="evenodd" d="M45.938 206.515C44.8408 206.106 43.5615 206.57 43.2058 207.686C42.9377 208.527 42.6995 209.441 42.6995 210.034C42.6995 211.393 43.1523 214 43.1523 214C44.7286 214 71.4856 214 71.4856 214C71.4856 214 72.59 210.349 70.2105 210.058C67.831 209.767 66.2571 209.532 66.2571 209.532L53.5557 203.87C53.0411 203.64 52.4387 203.881 52.224 204.402L51.5726 205.982C51.5726 205.982 49.3698 207.01 47.9926 207.01C47.4325 207.01 46.6589 206.783 45.938 206.515Z" fill="#E4E4E4"/>
<path fill-rule="evenodd" clip-rule="evenodd" d="M93.1586 206.515C92.0614 206.106 90.7822 206.57 90.4264 207.686C90.1583 208.527 89.9202 209.441 89.9202 210.034C89.9202 211.393 90.3729 214 90.3729 214C91.9492 214 118.706 214 118.706 214C118.706 214 119.811 210.349 117.431 210.058C115.052 209.767 113.478 209.532 113.478 209.532L100.776 203.87C100.262 203.64 99.6593 203.881 99.4446 204.402L98.7932 205.982C98.7932 205.982 96.5904 207.01 95.2132 207.01C94.6532 207.01 93.8795 206.783 93.1586 206.515Z" fill="#E4E4E4"/>
<path fill-rule="evenodd" clip-rule="evenodd" d="M61.7888 93.939L69.8263 125.426H94.3762L90.7157 93.939H61.7888Z" fill="#69A1AC"/>
<path fill-rule="evenodd" clip-rule="evenodd" d="M57.2676 93.939C53.3007 105.83 55.7606 125.426 55.7606 125.426H80.8128L87.7016 93.939H57.2676Z" fill="#89C5CC"/>
<path fill-rule="evenodd" clip-rule="evenodd" d="M122.76 99.8453L108.529 85.963L103.803 94.1411L118.601 102.866C122.311 108.71 124.49 111.236 125.138 110.442C125.685 109.772 125.434 109.039 125.204 108.363C125.024 107.836 124.856 107.345 125.086 106.947C125.612 106.037 128.583 106.558 131.382 107.173C134.18 107.788 133.532 106.413 132.938 105.696C130.293 103.562 126.9 101.611 122.76 99.8453ZM38.8806 120.015C40.3527 117.028 45.3659 87.9208 45.3659 87.9208L55.8637 87.9621C55.8637 87.9621 46.1409 119.349 45.3659 121.269C44.3593 123.764 46.0692 127.389 47.2287 129.847C47.4081 130.227 47.5743 130.579 47.7152 130.895C46.1064 131.615 45.3335 130.745 44.5188 129.828C43.5985 128.791 42.6247 127.695 40.3324 128.761C39.4468 129.173 38.6087 129.661 37.79 130.137C34.9618 131.78 32.3636 133.291 28.8292 131.11C28.2689 130.764 27.6548 129.462 29.1384 128.445C32.8346 125.911 38.161 121.475 38.8806 120.015Z" fill="#B28B67"/>
<path fill-rule="evenodd" clip-rule="evenodd" d="M75.1989 43.871L79.5427 43.1259C87.0215 61.8084 100.079 78.7837 118.714 94.052L104.632 111.16C85.9989 89.4201 74.5133 66.9904 75.1989 43.871Z" fill="#191847"/>
<path fill-rule="evenodd" clip-rule="evenodd" d="M56.2629 98.4601H94.9436C94.9436 98.4601 81.5015 65.7762 81.5015 42.931L69.8334 41.1925C60.6634 55.9406 58.0738 74.0985 56.2629 98.4601Z" fill="#DDE3E9"/>
<path fill-rule="evenodd" clip-rule="evenodd" d="M38.6808 115.038C42.911 67.3125 69.5771 41.1925 69.5771 41.1925L69.5864 41.2008C69.588 41.198 69.5895 41.1953 69.591 41.1925H70.3527C71.7197 41.2396 74.5171 41.3621 74.5171 41.3621L77.3365 49.4194C77.7839 64.1549 82.5614 108.811 82.5614 108.811H57.2425C57.2855 110.859 57.3809 112.935 57.5342 115.038H38.6808Z" fill="#2F3676"/>
<path fill-rule="evenodd" clip-rule="evenodd" d="M57.2468 109.009C57.0447 100.093 57.8357 91.7207 59.1553 84.1442C59.8455 93.1345 61.288 103.953 64.3005 109.009H57.2468Z" fill="black" fill-opacity="0.1"/>
<path fill-rule="evenodd" clip-rule="evenodd" d="M62.8491 93.4367L75.3521 87.6241V93.4367H62.8491Z" fill="white" fill-opacity="0.2"/>
</svg>
