<svg width="152" height="215" viewBox="0 0 152 215" fill="none" xmlns="http://www.w3.org/2000/svg">
<path fill-rule="evenodd" clip-rule="evenodd" d="M78.5288 37.8773C81.7899 39.8421 84.9941 40.7914 86.4982 40.4039C90.2698 39.4321 90.6166 25.6402 87.6983 20.203C84.78 14.7659 69.7777 12.396 69.0216 23.1688C68.7591 26.9077 70.3297 30.2444 72.6502 32.9671L68.4894 52.3526H80.5757L78.5288 37.8773Z" fill="#B28B67"/>
<path fill-rule="evenodd" clip-rule="evenodd" d="M93.0528 12.6655C92.8025 11.7862 92.1293 11.0332 91.222 10.8098C91.002 10.7557 90.7748 10.7338 90.5484 10.7429C90.4672 10.7461 90.4444 10.7695 90.4065 10.7128C90.3783 10.6707 90.3777 10.5679 90.3661 10.5184C90.3301 10.3646 90.285 10.2128 90.2294 10.0648C90.0395 9.56025 89.7205 9.11369 89.3359 8.73752C88.6166 8.03377 87.6447 7.54807 86.6349 7.4602C86.0823 7.41213 85.5337 7.50189 85.0112 7.68159C84.7407 7.77462 84.4784 7.89046 84.2229 8.01853C84.146 8.05707 83.8964 8.24587 83.8193 8.23364C83.734 8.22015 83.5627 8.00838 83.4933 7.95522C82.6365 7.29811 81.5785 7.03976 80.5112 7.04766C79.3066 7.05655 78.1467 7.11672 77.142 7.85075C76.9293 8.00616 76.7268 8.17632 76.5339 8.35546C76.4324 8.44978 76.334 8.54763 76.2402 8.64955C76.1836 8.71104 76.1285 8.77392 76.0754 8.83848C75.9854 8.94807 75.9998 8.98407 75.8738 8.90761C75.3903 8.61398 74.83 8.47665 74.2657 8.54598C73.9306 8.58717 73.6045 8.68773 73.295 8.8201C73.1896 8.86516 72.9456 9.0449 72.8332 9.04665C72.7218 9.04837 72.4812 8.88175 72.3664 8.83941C71.7464 8.61061 71.0781 8.55421 70.4264 8.65993C69.7541 8.76902 69.0937 9.03713 68.5241 9.40762C68.2502 9.58584 68.0111 9.7833 67.8191 10.0483C67.7362 10.1627 67.6613 10.2837 67.5674 10.3898C67.5124 10.4519 67.4034 10.5157 67.3739 10.5943C67.3916 10.5472 66.6387 10.2571 66.5677 10.2385C66.1892 10.1397 65.8038 10.1598 65.4331 10.2817C64.7362 10.511 64.1368 11.0251 63.6442 11.5522C63.3912 11.8229 63.1698 12.1222 62.9819 12.4411C62.8918 12.5938 62.8095 12.7509 62.7341 12.9113C62.6976 12.9891 62.6734 13.0863 62.6253 13.1563C62.5633 13.2465 62.5216 13.2482 62.4093 13.2876C61.8389 13.4873 61.3189 13.8254 60.923 14.2822C60.5225 14.7444 60.2626 15.3136 60.1536 15.913C60.1472 15.9483 60.1434 16.0946 60.1227 16.1137C60.0944 16.14 59.9797 16.1284 59.9363 16.1335C59.786 16.1511 59.6368 16.1773 59.4896 16.2122C59.2183 16.2764 58.9541 16.3709 58.7043 16.4944C57.7303 16.9761 57.0338 17.8792 56.6929 18.8953C56.3353 19.9618 56.3416 21.1835 56.7691 22.23C56.8381 22.399 56.9203 22.5631 57.0168 22.7183C57.0761 22.8136 57.0952 22.8138 57.0567 22.9138C57.0138 23.025 56.9355 23.1331 56.8846 23.2417C56.7184 23.5964 56.6022 23.9725 56.5289 24.3566C56.4085 24.9867 56.3488 25.6489 56.4676 26.2839C56.5227 26.5787 56.6188 26.8669 56.7654 27.1295C56.8401 27.2634 56.9275 27.3903 57.0263 27.5078C57.0775 27.5688 57.132 27.627 57.1889 27.6828C57.2215 27.7147 57.2642 27.7426 57.2919 27.7782C57.3595 27.865 57.3737 27.7936 57.3388 27.9211C57.2901 28.0993 57.1796 28.2752 57.1119 28.4486C57.0422 28.6273 56.9792 28.8085 56.9216 28.9914C56.8048 29.3619 56.7061 29.739 56.6444 30.1227C56.5259 30.8593 56.5467 31.6441 56.8953 32.3201C57.0443 32.6093 57.2581 32.863 57.5174 33.0603C57.6443 33.1568 57.7818 33.24 57.926 33.3084C58.0001 33.3435 58.0947 33.3586 58.1285 33.4302C58.1649 33.5073 58.1109 33.6602 58.0986 33.7464C57.9914 34.4955 57.9377 35.2821 58.1605 36.0163C58.3657 36.6925 58.8175 37.2895 59.4041 37.6848C60.542 38.4516 62.0759 38.4084 63.2716 37.7945C63.5832 37.6345 63.8748 37.4358 64.1349 37.2014C64.7973 38.0927 66.1602 38.0645 67.1283 37.8105C68.3343 37.4942 69.3021 36.6559 69.8596 35.5545C70.622 36.4823 72.2221 36.1813 72.7507 35.1748C72.8802 34.9285 72.9569 34.657 72.9947 34.3823C73.0146 34.2378 73.0019 34.0921 73.0168 33.9488C73.0359 33.7662 73.1579 33.5887 73.2281 33.4121C73.3647 33.0683 73.4495 32.7131 73.4532 32.3423C73.455 32.1486 73.4305 31.9599 73.4121 31.7679C73.3955 31.595 73.4435 31.4339 73.4708 31.2632C73.1614 31.3141 72.7846 31.2308 72.4932 31.1411C72.2072 31.0531 71.9394 30.8214 71.7375 30.6098C71.2689 30.1184 70.9826 29.4743 70.7868 28.8332C70.3569 27.4261 70.5331 25.7379 71.949 24.9656C72.6086 24.6059 74.5846 24.607 75.3702 24.7848C76.1962 24.9718 77.1327 26.7937 77.1788 26.9649C77.2073 27.0709 77.1929 27.2021 77.2903 27.2727C77.5044 27.428 77.8574 27.1585 78.0153 27.0255C78.2878 26.796 78.4821 26.4906 78.6504 26.181C79.0172 25.5066 79.3129 24.7834 79.5217 24.0451C79.6827 23.4759 79.7857 22.889 79.9961 22.3343C80.2055 21.7823 80.5357 21.289 81.0489 20.9763C81.6073 20.6362 82.2473 20.457 82.8603 20.2433C83.4679 20.0314 84.065 19.7725 84.536 19.323C84.6396 19.2242 84.7401 19.1192 84.8235 19.0028C84.8893 18.9109 84.9543 18.735 85.0546 18.6768C85.2105 18.5862 85.4379 18.8218 85.5727 18.9074C86.2377 19.3295 86.7925 19.9183 87.2399 20.5615C87.6849 21.2012 88.05 21.8167 88.3467 22.531C88.5668 23.0608 88.7041 23.7392 89.0912 24.1734C89.264 24.3672 90.5484 24.4845 90.9645 24.3153C91.3805 24.146 91.8468 23.7066 91.9864 23.4312C92.1294 23.1493 92.1635 22.8396 92.1024 22.531C92.0665 22.3494 91.9932 22.1799 91.953 22.0015C91.9192 21.8518 91.8885 21.7102 91.8156 21.5729C91.6774 21.3129 91.4412 21.126 91.1564 21.0478C91.4528 20.7747 91.6984 20.4479 91.8683 20.0826C92.0449 19.7031 92.1946 19.2415 92.237 18.825C92.2716 18.4867 92.2183 18.1362 92.033 17.8454C91.8386 17.5404 91.4943 17.3414 91.1964 17.1512C91.6514 16.7953 92.0409 16.3624 92.3611 15.8832C92.9838 14.9513 93.369 13.7766 93.0528 12.6655Z" fill="#191847"/>
<path fill-rule="evenodd" clip-rule="evenodd" d="M64.4606 94.1341L88.6744 158.179L105.646 205.383H115.324L91.9941 94.1341L64.4606 94.1341Z" fill="#1F28CF"/>
<path fill-rule="evenodd" clip-rule="evenodd" d="M58.4761 94.1341C58.2129 116.109 58.4032 145.695 57.79 147.065C57.1767 148.435 19.6403 178.28 19.6403 178.28L24.6285 186.758C24.6285 186.758 69.1928 158.031 71.4711 154.204C73.7495 150.377 85.1959 115.157 91.1513 94.1341H58.4761Z" fill="#2B44FF"/>
<path fill-rule="evenodd" clip-rule="evenodd" d="M10.8647 183.985L19.2897 177.576L26.0876 185.674C26.8719 194.831 32.1539 206.214 32.1539 206.214L30.6108 207.508L18.3099 192.854L14.8733 187.194L14.1017 187.841L10.8647 183.985Z" fill="#191847"/>
<path fill-rule="evenodd" clip-rule="evenodd" d="M104.748 214.445L105.252 203.873L115.828 203.873C123.35 209.159 135.468 212.431 135.468 212.431V214.445H116.331L109.784 213.438V214.445H104.748Z" fill="#191847"/>
<path fill-rule="evenodd" clip-rule="evenodd" d="M123.22 99.4878L107.156 87.6965L103.605 96.4711L119.513 103.065C124.012 108.347 126.527 110.55 127.06 109.671C127.509 108.931 127.158 108.238 126.834 107.599C126.583 107.102 126.348 106.638 126.521 106.21C126.916 105.234 129.938 105.336 132.802 105.557C135.665 105.777 134.831 104.503 134.14 103.874C131.217 102.125 127.577 100.663 123.22 99.4878ZM38.9774 120.264C40.4532 117.272 45.4789 88.1035 45.4789 88.1035L56.0028 88.1448C56.0028 88.1448 46.2558 119.597 45.4789 121.521C44.4697 124.021 46.1839 127.654 47.3463 130.117C47.5261 130.498 47.6928 130.851 47.834 131.167C46.2212 131.889 45.4464 131.017 44.6296 130.097C43.707 129.059 42.7308 127.96 40.4328 129.029C39.545 129.442 38.7049 129.93 37.884 130.407C35.0488 132.054 32.4442 133.568 28.901 131.382C28.3393 131.036 27.7237 129.731 29.211 128.712C32.9163 126.172 38.256 121.727 38.9774 120.264Z" fill="#B28B67"/>
<path fill-rule="evenodd" clip-rule="evenodd" d="M75.3861 43.9622L79.7408 43.2156C95.8979 57.1673 102.534 83.9701 122.339 98.1687L117.572 104.075C83.2146 99.8227 74.6988 67.1296 75.3861 43.9622Z" fill="#E87613"/>
<path fill-rule="evenodd" clip-rule="evenodd" d="M56.403 98.6646C56.403 98.6646 82.5939 98.6646 94.934 98.6646C96.6947 98.6646 96.3629 96.1233 96.1084 94.841C93.171 80.0411 81.7044 64.0875 81.7044 43.0202L70.5902 41.2781C61.3974 56.0568 58.2184 74.2525 56.403 98.6646Z" fill="#DDE3E9"/>
<path fill-rule="evenodd" clip-rule="evenodd" d="M52.0705 109.236C50.3388 113.393 48.6407 117.021 47.0406 119.807H38.777C37.888 91.0728 48.7712 68.9628 57.8793 55.6312C55.857 55.4867 54.0316 54.6408 52.8778 52.5597C48.8155 45.2327 50.2826 41.1987 54.6239 39.8727C57.0111 39.1436 59.2562 39.6413 61.9438 40.237C64.143 40.7245 66.6384 41.2777 69.7503 41.2781C69.7513 41.2781 69.7524 41.2781 69.7534 41.2781C70.0549 41.2781 70.3294 41.2983 70.5785 41.3369L74.2664 41.5472C74.2664 41.5472 89.2402 92.2743 82.5258 109.236H52.0705Z" fill="#FF9B21"/>
<path fill-rule="evenodd" clip-rule="evenodd" d="M52.0704 109.236C54.3425 103.781 56.6724 97.4144 58.9146 90.8392C59.7492 98.0802 61.1392 105.353 63.4533 109.236H52.0704Z" fill="black" fill-opacity="0.1"/>
</svg>
