<svg width="154" height="215" viewBox="0 0 154 215" fill="none" xmlns="http://www.w3.org/2000/svg">
<path fill-rule="evenodd" clip-rule="evenodd" d="M74.7931 37.8465C71.5247 39.8097 68.3133 40.7582 66.8058 40.371C63.0257 39.4 62.6782 25.6194 65.603 20.1866C68.5278 14.7538 83.5639 12.3859 84.3217 23.1499C84.5848 26.8858 83.0107 30.2198 80.6849 32.9403L84.8551 52.31H72.7416L74.7931 37.8465Z" fill="#B28B67"/>
<path fill-rule="evenodd" clip-rule="evenodd" d="M74.1875 24.3387C73.1397 22.7839 72.1338 21.5981 70.8252 20.9094C65.4998 20.9932 64.8763 20.0419 64.8763 16.8352C65.7365 16.2219 68.7714 15.1891 72.1702 14.8986C73.9041 14.4041 75.958 14.4971 77.9366 15.3219C80.3792 16.0125 82.4473 17.4998 83.3609 20.2843C86.666 25.9684 84.1574 31.8853 80.7767 33.9065C79.8768 32.8441 79.0915 31.8144 78.3908 30.8288C78.9537 30.2808 79.3031 29.516 79.3031 28.6699C79.3031 27.0032 77.9473 25.652 76.2747 25.652C76.1518 25.652 76.0305 25.6593 75.9114 25.6735C75.8361 27.7574 75.5264 34.8076 74.7129 37.2565C73.7537 40.1437 68.1568 40.8526 66.2047 40.8526C64.5187 40.8526 64.5762 39.2616 64.6173 38.1213C64.6233 37.9571 64.6289 37.8022 64.6289 37.6628C64.6289 37.3715 65.0091 37.3723 65.4386 37.3731C65.9964 37.3742 66.6374 37.3755 66.6374 36.7378C66.6374 36.0426 65.6734 35.5093 64.8107 35.0321C64.2725 34.7344 63.7738 34.4586 63.5732 34.1788C62.9405 33.2962 62.7273 32.1058 63.6819 32.1058C64.2037 32.1058 64.9196 32.4056 65.7808 32.7662C67.081 33.3106 68.7126 33.9938 70.5078 33.9938C73.4736 33.9938 74.1789 24.4571 74.1875 24.3387Z" fill="#191847"/>
<path fill-rule="evenodd" clip-rule="evenodd" d="M29.23 131.616C30.1692 141.847 29.2305 163.839 28.7253 170.183C28.4078 174.17 22.9551 173.126 22.4461 169.935C22.3599 169.395 22.0085 167.496 21.4843 164.662C18.9137 150.767 12.1859 114.401 12.174 105.558C12.1685 101.504 21.227 98.2615 24.8509 103.159C27.8304 101.074 32.0594 100.515 34.6668 104.727C36.6406 107.915 41.3306 116.968 46.3324 127.539C50.7142 136.8 57.5611 159.28 57.5611 159.28L51.7483 161.927C51.7483 161.927 37.3897 138.921 28.3491 122.791C28.6492 125.567 28.9475 128.539 29.23 131.616Z" fill="#B28B67"/>
<path fill-rule="evenodd" clip-rule="evenodd" d="M57.1455 150.957L37.1948 103.859C32.4153 96.1976 19.015 105.418 20.6449 109.862C24.3452 119.951 43.1645 152.612 44.267 155.617L57.1455 150.957Z" fill="#1F28CF"/>
<path fill-rule="evenodd" clip-rule="evenodd" d="M11.6692 109.236C11.6692 122.585 17.5411 153.966 17.5452 156.905L31.7695 156.427C31.7695 156.427 28.0399 115.503 28.6239 115.225C29.4999 114.809 64.5336 120.057 75.0408 120.453C90.1922 121.025 96.4601 111.762 96.9687 94.1835L67.6198 94.1835C67.6198 94.1835 29.9759 98.6614 18.1376 100.412C13.0694 101.162 11.6692 105.558 11.6692 109.236Z" fill="#2B44FF"/>
<path fill-rule="evenodd" clip-rule="evenodd" d="M41.5562 148.808C46.7833 147.509 52.0804 150.692 53.3876 155.917L53.5379 156.517C54.8451 161.742 51.6675 167.031 46.4405 168.329C41.2134 169.628 35.9163 166.445 34.6091 161.22L34.4588 160.62C33.1516 155.395 36.3292 150.106 41.5562 148.808ZM44.6361 152.725C46.78 152.192 48.9527 153.497 49.4889 155.64L50.2256 158.585C50.7618 160.728 49.4585 162.897 47.3145 163.43L43.3606 164.412C41.2167 164.945 39.044 163.64 38.5078 161.497L37.7711 158.552C37.2349 156.409 38.5382 154.24 40.6822 153.707L44.6361 152.725Z" fill="#C5CFD6"/>
<path fill-rule="evenodd" clip-rule="evenodd" d="M27.1045 162.508C28.1997 162.1 29.4761 162.564 29.8328 163.677C30.1033 164.521 30.3443 165.44 30.3443 166.037C30.3443 167.398 29.8894 170.008 29.8894 170.008C28.3056 170.008 1.42169 170.008 1.42169 170.008C1.42169 170.008 0.312028 166.352 2.70281 166.06C5.0936 165.769 6.67495 165.534 6.67495 165.534L19.4429 159.862C19.9569 159.633 20.558 159.874 20.773 160.393L21.4291 161.979C21.4291 161.979 23.6424 163.009 25.0261 163.009C25.5924 163.009 26.3762 162.779 27.1045 162.508Z" fill="#E4E4E4"/>
<rect width="26.7507" height="3.52087" rx="1.76043" transform="matrix(-1 0 0 1 29.8395 170.008)" fill="#2F3676"/>
<path d="M103.53 107.075C103.53 101.553 99.053 97.0754 93.5302 97.0754H49.4294C43.9066 97.0754 39.4294 101.553 39.4294 107.075V126.751H99.5302C101.739 126.751 103.53 124.96 103.53 122.751V107.075Z" fill="#2F3676"/>
<path fill-rule="evenodd" clip-rule="evenodd" d="M44.4767 97.0754V97.0754C41.3658 97.0754 38.7123 99.3275 38.2065 102.397L27.3159 168.499H32.7093" fill="#2F3676"/>
<path fill-rule="evenodd" clip-rule="evenodd" d="M29.8395 178.558C24.8219 178.558 20.7544 174.505 20.7544 169.505C20.7544 164.505 24.8219 160.451 29.8395 160.451C34.8571 160.451 38.9247 164.505 38.9247 169.505C38.9247 174.505 34.8571 178.558 29.8395 178.558Z" fill="#191847"/>
<path fill-rule="evenodd" clip-rule="evenodd" d="M58.6092 139.326C58.6092 160.438 75.7833 177.552 96.9687 177.552C118.154 177.552 135.328 160.438 135.328 139.326C135.328 118.214 118.154 101.099 96.9687 101.099C75.7833 101.099 58.6092 118.214 58.6092 139.326ZM65.6754 139.326C65.6754 156.549 79.6859 170.511 96.9687 170.511C114.252 170.511 128.262 156.549 128.262 139.326C128.262 122.103 114.252 108.141 96.9687 108.141C79.6859 108.141 65.6754 122.103 65.6754 139.326Z" fill="#191847"/>
<rect width="4.03785" height="66.3935" transform="matrix(-1 0 0 1 98.9876 106.129)" fill="#191847"/>
<rect width="4.03085" height="66.5091" rx="2" transform="matrix(-0.708333 0.705878 0.708333 0.705878 74.841 114.43)" fill="#191847"/>
<rect width="4.02385" height="66.6244" rx="2" transform="matrix(0 1 1 0 63.6565 137.314)" fill="#191847"/>
<rect width="4.03085" height="66.5091" rx="2" transform="matrix(0.708333 0.705878 0.708333 -0.705878 71.9858 161.377)" fill="#191847"/>
<path fill-rule="evenodd" clip-rule="evenodd" d="M30.0013 99.4068L46.1013 87.6251L49.6604 96.3926L33.7171 102.981C29.2081 108.259 26.6867 110.46 26.1531 109.582C25.7031 108.842 26.0548 108.149 26.3788 107.512C26.6312 107.015 26.8668 106.551 26.6933 106.123C26.2973 105.148 23.2685 105.251 20.3983 105.471C17.5282 105.691 18.3646 104.418 19.0567 103.789C21.9864 102.042 25.6346 100.581 30.0013 99.4068ZM114.433 120.166C112.954 117.176 107.917 88.0317 107.917 88.0317L97.3697 88.0731C97.3697 88.0731 107.139 119.5 107.917 121.423C108.929 123.92 107.211 127.55 106.046 130.011C105.865 130.391 105.698 130.744 105.557 131.06C107.173 131.781 107.95 130.91 108.768 129.991C109.693 128.954 110.672 127.856 112.975 128.924C113.865 129.336 114.707 129.824 115.529 130.301C118.371 131.947 120.981 133.459 124.532 131.275C125.095 130.929 125.712 129.626 124.222 128.607C120.508 126.07 115.156 121.628 114.433 120.166Z" fill="#B28B67"/>
<path fill-rule="evenodd" clip-rule="evenodd" d="M77.9429 43.9264L73.5784 43.1804C57.3849 57.1207 50.7337 83.9018 30.8846 98.0888L35.6621 103.99C70.0968 99.7414 78.6317 67.075 77.9429 43.9264Z" fill="#E87613"/>
<path fill-rule="evenodd" clip-rule="evenodd" d="M96.9687 98.5843C96.9687 98.5843 70.7188 98.5843 58.351 98.5843C56.5864 98.5843 56.9189 96.0451 57.174 94.7638C60.118 79.9759 71.6103 64.0353 71.6103 42.9851L82.7495 41.2444C91.963 56.0112 95.1492 74.192 96.9687 98.5843Z" fill="#DDE3E9"/>
<path fill-rule="evenodd" clip-rule="evenodd" d="M95.4891 55.5859C97.5159 55.4415 99.3454 54.5963 100.502 52.5169C104.573 45.1959 103.103 41.1652 98.7518 39.8403C96.3592 39.1117 94.109 39.609 91.4154 40.2043C89.2106 40.6915 86.7086 41.2445 83.5883 41.2445C83.286 41.2445 83.0109 41.2646 82.7612 41.3032L79.0651 41.5134C79.0651 41.5134 64.0576 92.1992 70.7872 109.147H101.311C103.047 113.301 104.748 116.925 106.352 119.71H114.634C115.525 90.9987 104.618 68.9066 95.4891 55.5859Z" fill="#FF9B21"/>
<path fill-rule="evenodd" clip-rule="evenodd" d="M101.311 109.147C99.0337 103.697 96.6986 97.3351 94.4514 90.7652C93.6149 98.0003 92.2218 105.267 89.9025 109.147H101.311Z" fill="black" fill-opacity="0.1"/>
</svg>
