<svg id="Layer_1" data-name="Layer 1" xmlns="http://www.w3.org/2000/svg" viewBox="0 0 100 100"><title>Logo Komunitas</title><path d="M16.29,50.16l3.83,6.56H16.54l-2.29-4.15-1.13,1.24v2.91h-3V44.91h3V50l1-1.54,2.34-3.51h3.75Z"/><path d="M45.15,48.59a4,4,0,0,1,.72,2.68v5.45H42.94V51.28a2,2,0,0,0-.11-.73.61.61,0,0,0-.3-.34,1.26,1.26,0,0,0-.52-.09,1.2,1.2,0,0,0-1.09.62v6H38V51.29a2.1,2.1,0,0,0-.1-.76.58.58,0,0,0-.3-.33,1.43,1.43,0,0,0-.54-.08,1.18,1.18,0,0,0-.61.17,1.44,1.44,0,0,0-.47.47v6h-2.9V47.94H35.8L35.91,49A3,3,0,0,1,37,48.1a3.14,3.14,0,0,1,1.43-.32,2.18,2.18,0,0,1,2.21,1.32,2.87,2.87,0,0,1,1.06-1,3.11,3.11,0,0,1,1.48-.34A2.53,2.53,0,0,1,45.15,48.59Z"/><path d="M55.33,47.94v8.77H52.62l-.09-1a2.82,2.82,0,0,1-1,.83,3.23,3.23,0,0,1-3.47-.5,3.38,3.38,0,0,1-.79-2.46V47.94h2.91v5.69a.87.87,0,0,0,.26.66,1.09,1.09,0,0,0,.77.24,1.27,1.27,0,0,0,1.2-.57v-6Z"/><path d="M64,48.59a4,4,0,0,1,.72,2.68v5.45H61.8V51.26a1.56,1.56,0,0,0-.13-.72.67.67,0,0,0-.38-.34,2.05,2.05,0,0,0-.65-.09,1.2,1.2,0,0,0-1.05.49v6.11H56.67V47.94H59.4l.1,1a3,3,0,0,1,1.08-.88,3.26,3.26,0,0,1,1.41-.3A2.56,2.56,0,0,1,64,48.59Z"/><path d="M68.54,44.42a1.42,1.42,0,0,1,.57.52,1.39,1.39,0,0,1,.21.75,1.44,1.44,0,0,1-.2.76,1.39,1.39,0,0,1-.57.52,2,2,0,0,1-1.67,0,1.39,1.39,0,0,1-.78-1.28,1.39,1.39,0,0,1,.21-.75,1.42,1.42,0,0,1,.57-.52,1.81,1.81,0,0,1,.83-.19A1.79,1.79,0,0,1,68.54,44.42Zm-2.27,12.3V47.94h2.92v8.77Z"/><path d="M75.67,54.47v2.16a4.82,4.82,0,0,1-1.6.25,3.05,3.05,0,0,1-2.14-.67,2.75,2.75,0,0,1-.73-2.11V50h-1v-2.1h1V45.74h2.91v2.21h1.41V50H74.11v3.61a1.43,1.43,0,0,0,.07.51.45.45,0,0,0,.26.26,1.48,1.48,0,0,0,.54.08A4.83,4.83,0,0,0,75.67,54.47Z"/><path d="M84,55.77a2.92,2.92,0,0,0,.28.81v.14H81.38a3.55,3.55,0,0,1-.24-.75,2.43,2.43,0,0,1-.83.68,2.84,2.84,0,0,1-1.25.24,3.3,3.3,0,0,1-1.48-.33,2.71,2.71,0,0,1-1.09-.94,2.41,2.41,0,0,1-.41-1.37,2.49,2.49,0,0,1,1-2.13,5.28,5.28,0,0,1,3.13-.75H81V51a1.25,1.25,0,0,0-.22-.8.87.87,0,0,0-.72-.28.89.89,0,0,0-.64.2.88.88,0,0,0-.21.65h-2.9a2.57,2.57,0,0,1,.48-1.54,3.08,3.08,0,0,1,1.36-1,5.32,5.32,0,0,1,2.06-.37,4.79,4.79,0,0,1,1.91.36,2.93,2.93,0,0,1,1.32,1.08A3.08,3.08,0,0,1,83.9,51v3.45A7.47,7.47,0,0,0,84,55.77Zm-3.47-1.17a1.09,1.09,0,0,0,.46-.4V52.92h-.82a1.07,1.07,0,0,0-.9.35,1.33,1.33,0,0,0-.27.84.57.57,0,0,0,.23.47.88.88,0,0,0,.56.18A1.64,1.64,0,0,0,80.52,54.61Z"/><path d="M85.9,52.39a2.17,2.17,0,0,1-.84-1.78,2.48,2.48,0,0,1,.43-1.41,3,3,0,0,1,1.26-1,4.61,4.61,0,0,1,2-.39,5.53,5.53,0,0,1,2.07.36,3,3,0,0,1,1.37,1,2.5,2.5,0,0,1,.48,1.52H89.72A1,1,0,0,0,89.5,50a1.13,1.13,0,0,0-.79-.21,1.11,1.11,0,0,0-.64.19.59.59,0,0,0-.27.52q0,.64,1.39.86a8,8,0,0,1,1.73.45,2.93,2.93,0,0,1,1.22.88,2.33,2.33,0,0,1,.47,1.52,2.23,2.23,0,0,1-.48,1.4,3.16,3.16,0,0,1-1.36,1,5.44,5.44,0,0,1-2.05.36,4.67,4.67,0,0,1-2.1-.44,3.42,3.42,0,0,1-1.35-1.13,2.51,2.51,0,0,1-.47-1.42h2.7a1,1,0,0,0,.36.77,1.54,1.54,0,0,0,.95.26,1.28,1.28,0,0,0,.76-.19.6.6,0,0,0,.26-.51.42.42,0,0,0-.15-.33,1.48,1.48,0,0,0-.5-.25,10.33,10.33,0,0,0-1-.26A5.31,5.31,0,0,1,85.9,52.39Z"/><circle cx="26" cy="52.11" r="4.61"/></svg>