<svg width="360" height="92" viewBox="0 0 360 92" fill="none" xmlns="http://www.w3.org/2000/svg">
<g clip-path="url(#clip0)">
<rect width="360" height="92" fill="white"/>
<path d="M360 0H0V92H360V0Z" fill="#FEDEA6"/>
<path opacity="0.5" d="M0 92C0 92 81.9231 35.9375 186.923 34.5C291.923 33.0625 360 3.59375 360 3.59375V92H0Z" fill="#FAC978"/>
<g clip-path="url(#clip1)">
<path fill-rule="evenodd" clip-rule="evenodd" d="M45.7411 55.0743C47.6406 56.2654 49.5069 56.8409 50.383 56.6059C52.5799 56.0168 52.7819 47.6559 51.0821 44.3598C49.3822 41.0637 40.6438 39.627 40.2033 46.1577C40.0505 48.4243 40.9653 50.4471 42.3169 52.0976L39.8933 63.8495H46.9333L45.7411 55.0743Z" fill="#B28B67"/>
<path fill-rule="evenodd" clip-rule="evenodd" d="M47.0694 40.5609C46.1416 40.4026 43.6433 40.2938 43.1826 40.2939C42.8881 40.2939 42.5691 40.3638 42.3947 40.0826C42.2519 39.8523 42.3042 39.4628 42.2616 39.1955C42.2121 38.885 42.1418 38.5785 42.0707 38.2728C41.8684 37.403 41.5625 36.5754 41.1344 35.7984C40.3312 34.3406 39.1545 33.1988 37.6689 32.5343C36.0285 31.8007 34.1722 31.6327 32.4076 31.7815C30.5193 31.9407 28.81 32.5892 27.0271 33.1995C25.3282 33.781 23.5487 34.0099 21.7718 33.7259C19.9814 33.4398 18.6287 32.4304 17.1186 31.4722C15.5726 30.4913 13.8059 29.8498 11.9784 29.9973C10.2724 30.135 8.7001 30.8678 7.28944 31.8467C5.9696 32.7626 4.88056 33.8646 4.26572 35.4155C3.60429 37.0838 3.60489 38.915 4.69258 40.3894C6.26914 42.5266 9.19597 43.0792 11.631 43.0243C13.0394 42.9926 14.4227 42.7251 15.7524 42.2386C17.5258 41.5897 19.0582 40.4898 20.7173 39.5974C21.4959 39.1787 22.3006 38.8348 23.1442 38.587C23.9628 38.3465 24.769 38.2362 25.5102 38.7507C26.2942 39.2949 26.9968 39.8295 27.8937 40.1702C28.7542 40.4971 29.6656 40.6799 30.5823 40.6725C32.366 40.6582 34.1243 40.08 35.8566 39.6927C37.2693 39.377 38.7809 39.0623 40.2211 39.3658C40.822 39.4925 41.6999 39.754 41.9169 40.4037C38.2636 41.0926 36.8288 45.7929 37.8587 49.2434C38.4146 51.1058 41.756 53.2829 43.0551 52.3038C43.8782 51.6835 43.3785 50.8692 43.0551 50.3317C42.4358 49.3022 42.224 47.9799 43.3699 47.2632C44.3583 46.645 45.3976 48.113 45.4173 48.1113C45.6889 48.0891 48.0364 46.7079 49.6538 44.6925C51.2493 44.7909 51.4914 43.6964 51.1104 42.8013C50.7294 41.9062 48.3514 40.7798 47.0694 40.5609Z" fill="#191847"/>
<path fill-rule="evenodd" clip-rule="evenodd" d="M34.2156 89.1781C34.7445 96.688 68.818 118.798 69.0168 119.419C69.1493 119.832 58.411 145.566 58.411 145.566L61.3895 146.77C61.3895 146.77 77.8603 119.516 77.0143 116.612C75.8031 112.455 50.5771 89.2579 50.5771 89.2579L34.2156 89.1781Z" fill="#B28B67"/>
<path fill-rule="evenodd" clip-rule="evenodd" d="M59.1948 141.691L64.0577 143.533C74.3119 131.497 78.3313 121.565 77.5984 116.505C76.8655 111.445 51.2525 89.1965 51.2525 89.1965L33.8669 89.1965C34.4601 106.588 66.0419 119.485 66.4643 120.226C66.8867 120.967 62.7296 128.226 59.1948 141.691Z" fill="#2F3676"/>
<path fill-rule="evenodd" clip-rule="evenodd" d="M38.1333 89.1781L22.9545 127.088L8.0361 159.137H11.5558L50.0643 89.1781H38.1333Z" fill="#997659"/>
<path fill-rule="evenodd" clip-rule="evenodd" d="M9.3833 152.479L17.2042 154.005C23.2513 144.756 48.5586 106.832 51.3333 89.1781H33.9223C24.6561 101.94 15.1474 143.077 9.3833 152.479Z" fill="#5C63AB"/>
<path fill-rule="evenodd" clip-rule="evenodd" d="M75.1622 75.9657L64.5333 80.8218L67.9272 85.345L75.8876 78.9956C79.8636 78.2359 81.7076 77.5831 81.4195 77.0375C81.1765 76.5774 80.7245 76.5515 80.3082 76.5276C79.9838 76.509 79.6811 76.4916 79.5157 76.2712C79.1381 75.7679 80.0701 74.2132 81.0152 72.7771C81.9603 71.341 81.0745 71.3929 80.556 71.5646C78.822 72.5685 77.0241 74.0355 75.1622 75.9657ZM27.5733 83.4L21.5624 82.1593C17.4859 93.3373 15.0555 99.4628 14.2714 100.536C13.6963 101.322 10.1501 103.349 7.74982 104.431C6.78638 104.866 6.99324 105.713 7.27581 105.984C9.05821 107.693 10.7152 107.094 12.519 106.442C13.0412 106.253 13.5757 106.06 14.129 105.917C15.5614 105.547 15.9973 106.313 16.4092 107.037C16.7739 107.678 17.1198 108.286 18.1219 108.044C18.0764 107.839 18.0204 107.61 17.9599 107.362C17.5693 105.763 16.9932 103.405 17.8479 102.035C18.2865 101.331 21.5284 95.1199 27.5733 83.4Z" fill="#B28B67"/>
<path fill-rule="evenodd" clip-rule="evenodd" d="M43.9105 58.763L46.447 58.3104C51.9718 63.8858 54.2263 77.2805 57.9081 79.0535C61.3891 80.7298 66.3237 79.1077 72.1893 76.9173L73.9856 81.0926C68.6562 87.0909 57.3025 92.1586 52.7003 89.2656C45.3424 84.6402 43.6438 68.1198 43.9105 58.763Z" fill="#DB2721"/>
<path fill-rule="evenodd" clip-rule="evenodd" d="M32.8533 91.9245C32.8533 91.9245 48.1089 91.9245 55.2967 91.9245C56.3222 91.9245 56.129 90.384 55.9807 89.6066C54.2698 80.6346 47.5908 70.9633 47.5908 58.1919L41.1171 57.1358C35.7625 66.095 33.9107 77.1255 32.8533 91.9245Z" fill="#DDE3E9"/>
<path fill-rule="evenodd" clip-rule="evenodd" d="M40.7733 57.1358H40.6994C26.179 66.4447 17.4036 80.8748 14.3733 100.426L19.0777 101.385C22.1939 97.6078 26.0396 91.4265 30.6148 82.8408C29.2111 88.0127 28.1863 93.3172 27.8667 98.333H48.0692C51.9802 88.0506 43.2627 57.1358 43.2627 57.1358H41.8679H40.7733Z" fill="#FF4133"/>
</g>
<path d="M112.606 31.7598C112.506 32.8216 112.114 33.651 111.431 34.248C110.747 34.8405 109.838 35.1367 108.703 35.1367C107.91 35.1367 107.211 34.9499 106.604 34.5762C106.003 34.1979 105.538 33.6624 105.21 32.9697C104.882 32.277 104.711 31.4727 104.697 30.5566V29.627C104.697 28.6882 104.864 27.861 105.196 27.1455C105.529 26.43 106.005 25.8786 106.625 25.4912C107.249 25.1038 107.969 24.9102 108.785 24.9102C109.883 24.9102 110.768 25.2087 111.438 25.8057C112.107 26.4027 112.497 27.2458 112.606 28.335H110.884C110.802 27.6195 110.592 27.1045 110.255 26.79C109.922 26.471 109.432 26.3115 108.785 26.3115C108.033 26.3115 107.454 26.5872 107.049 27.1387C106.648 27.6855 106.443 28.4899 106.434 29.5518V30.4336C106.434 31.5091 106.625 32.3294 107.008 32.8945C107.395 33.4596 107.96 33.7422 108.703 33.7422C109.382 33.7422 109.893 33.5895 110.234 33.2842C110.576 32.9788 110.793 32.4707 110.884 31.7598H112.606ZM113.687 31.2334C113.687 30.5088 113.83 29.8571 114.117 29.2783C114.404 28.695 114.808 28.2484 115.327 27.9385C115.847 27.624 116.444 27.4668 117.118 27.4668C118.116 27.4668 118.925 27.7881 119.545 28.4307C120.169 29.0732 120.507 29.9255 120.557 30.9873L120.563 31.377C120.563 32.1061 120.422 32.7578 120.14 33.332C119.862 33.9062 119.461 34.3506 118.937 34.665C118.417 34.9795 117.815 35.1367 117.132 35.1367C116.088 35.1367 115.252 34.7904 114.623 34.0977C113.999 33.4004 113.687 32.473 113.687 31.3154V31.2334ZM115.348 31.377C115.348 32.138 115.505 32.735 115.819 33.168C116.134 33.5964 116.571 33.8105 117.132 33.8105C117.692 33.8105 118.128 33.5918 118.438 33.1543C118.752 32.7168 118.909 32.0765 118.909 31.2334C118.909 30.486 118.747 29.8936 118.424 29.4561C118.105 29.0186 117.67 28.7998 117.118 28.7998C116.576 28.7998 116.145 29.0163 115.826 29.4492C115.507 29.8776 115.348 30.5202 115.348 31.377ZM123.53 27.6035L123.578 28.376C124.098 27.7699 124.809 27.4668 125.711 27.4668C126.7 27.4668 127.377 27.8451 127.741 28.6016C128.279 27.8451 129.035 27.4668 130.011 27.4668C130.826 27.4668 131.433 27.6924 131.829 28.1436C132.23 28.5947 132.435 29.2601 132.444 30.1396V35H130.783V30.1875C130.783 29.7181 130.681 29.374 130.476 29.1553C130.271 28.9365 129.931 28.8271 129.457 28.8271C129.079 28.8271 128.769 28.9297 128.527 29.1348C128.29 29.3353 128.124 29.5996 128.028 29.9277L128.035 35H126.374V30.1328C126.351 29.2624 125.907 28.8271 125.041 28.8271C124.376 28.8271 123.904 29.0983 123.626 29.6406V35H121.965V27.6035H123.53ZM135.712 27.6035L135.76 28.376C136.279 27.7699 136.99 27.4668 137.893 27.4668C138.882 27.4668 139.558 27.8451 139.923 28.6016C140.461 27.8451 141.217 27.4668 142.192 27.4668C143.008 27.4668 143.614 27.6924 144.011 28.1436C144.412 28.5947 144.617 29.2601 144.626 30.1396V35H142.965V30.1875C142.965 29.7181 142.862 29.374 142.657 29.1553C142.452 28.9365 142.113 28.8271 141.639 28.8271C141.26 28.8271 140.951 28.9297 140.709 29.1348C140.472 29.3353 140.306 29.5996 140.21 29.9277L140.217 35H138.556V30.1328C138.533 29.2624 138.089 28.8271 137.223 28.8271C136.557 28.8271 136.086 29.0983 135.808 29.6406V35H134.146V27.6035H135.712ZM150.812 34.2754C150.325 34.8496 149.632 35.1367 148.734 35.1367C147.932 35.1367 147.324 34.902 146.909 34.4326C146.499 33.9632 146.294 33.2842 146.294 32.3955V27.6035H147.955V32.375C147.955 33.3138 148.345 33.7832 149.124 33.7832C149.931 33.7832 150.475 33.4938 150.758 32.915V27.6035H152.419V35H150.854L150.812 34.2754ZM155.652 27.6035L155.7 28.458C156.247 27.7972 156.965 27.4668 157.854 27.4668C159.394 27.4668 160.178 28.3486 160.205 30.1123V35H158.544V30.208C158.544 29.7386 158.441 29.3923 158.236 29.1689C158.036 28.9411 157.705 28.8271 157.245 28.8271C156.575 28.8271 156.076 29.1302 155.748 29.7363V35H154.087V27.6035H155.652ZM163.671 35H162.01V27.6035H163.671V35ZM161.907 25.6826C161.907 25.4274 161.987 25.2155 162.146 25.0469C162.311 24.8783 162.543 24.7939 162.844 24.7939C163.145 24.7939 163.377 24.8783 163.541 25.0469C163.705 25.2155 163.787 25.4274 163.787 25.6826C163.787 25.9333 163.705 26.1429 163.541 26.3115C163.377 26.4756 163.145 26.5576 162.844 26.5576C162.543 26.5576 162.311 26.4756 162.146 26.3115C161.987 26.1429 161.907 25.9333 161.907 25.6826ZM167.567 25.8057V27.6035H168.873V28.834H167.567V32.9629C167.567 33.2454 167.622 33.4505 167.731 33.5781C167.845 33.7012 168.046 33.7627 168.333 33.7627C168.524 33.7627 168.718 33.7399 168.914 33.6943V34.9795C168.536 35.0843 168.171 35.1367 167.82 35.1367C166.544 35.1367 165.906 34.4326 165.906 33.0244V28.834H164.689V27.6035H165.906V25.8057H167.567ZM172.735 32.6211L174.239 27.6035H176.01L173.07 36.1211C172.619 37.3652 171.854 37.9873 170.773 37.9873C170.532 37.9873 170.265 37.9463 169.974 37.8643V36.5791L170.288 36.5996C170.707 36.5996 171.022 36.5221 171.231 36.3672C171.446 36.2168 171.614 35.9616 171.737 35.6016L171.977 34.9658L169.379 27.6035H171.17L172.735 32.6211ZM182.224 35H180.562V27.6035H182.224V35ZM180.46 25.6826C180.46 25.4274 180.54 25.2155 180.699 25.0469C180.863 24.8783 181.096 24.7939 181.396 24.7939C181.697 24.7939 181.93 24.8783 182.094 25.0469C182.258 25.2155 182.34 25.4274 182.34 25.6826C182.34 25.9333 182.258 26.1429 182.094 26.3115C181.93 26.4756 181.697 26.5576 181.396 26.5576C181.096 26.5576 180.863 26.4756 180.699 26.3115C180.54 26.1429 180.46 25.9333 180.46 25.6826ZM188.185 32.9902C188.185 32.694 188.062 32.4684 187.815 32.3135C187.574 32.1585 187.171 32.0218 186.605 31.9033C186.04 31.7848 185.569 31.6344 185.19 31.4521C184.361 31.0511 183.946 30.4701 183.946 29.709C183.946 29.071 184.215 28.5378 184.753 28.1094C185.291 27.681 185.974 27.4668 186.804 27.4668C187.688 27.4668 188.401 27.6855 188.943 28.123C189.49 28.5605 189.764 29.1279 189.764 29.8252H188.103C188.103 29.5062 187.984 29.2419 187.747 29.0322C187.51 28.818 187.196 28.7109 186.804 28.7109C186.439 28.7109 186.141 28.7952 185.908 28.9639C185.68 29.1325 185.566 29.3581 185.566 29.6406C185.566 29.8958 185.674 30.0941 185.888 30.2354C186.102 30.3766 186.535 30.5202 187.187 30.666C187.838 30.8073 188.349 30.9782 188.718 31.1787C189.091 31.3747 189.367 31.6117 189.545 31.8896C189.727 32.1676 189.818 32.5049 189.818 32.9014C189.818 33.5667 189.543 34.1068 188.991 34.5215C188.44 34.9316 187.717 35.1367 186.824 35.1367C186.218 35.1367 185.678 35.0273 185.204 34.8086C184.73 34.5898 184.361 34.2891 184.097 33.9062C183.832 33.5234 183.7 33.111 183.7 32.6689H185.313C185.336 33.0609 185.484 33.3639 185.758 33.5781C186.031 33.7878 186.394 33.8926 186.845 33.8926C187.282 33.8926 187.615 33.8105 187.843 33.6465C188.071 33.4779 188.185 33.2591 188.185 32.9902ZM194.446 31.2334C194.446 30.5088 194.59 29.8571 194.877 29.2783C195.164 28.695 195.567 28.2484 196.087 27.9385C196.606 27.624 197.203 27.4668 197.878 27.4668C198.876 27.4668 199.685 27.7881 200.305 28.4307C200.929 29.0732 201.266 29.9255 201.316 30.9873L201.323 31.377C201.323 32.1061 201.182 32.7578 200.899 33.332C200.621 33.9062 200.22 34.3506 199.696 34.665C199.177 34.9795 198.575 35.1367 197.892 35.1367C196.848 35.1367 196.012 34.7904 195.383 34.0977C194.758 33.4004 194.446 32.473 194.446 31.3154V31.2334ZM196.107 31.377C196.107 32.138 196.265 32.735 196.579 33.168C196.894 33.5964 197.331 33.8105 197.892 33.8105C198.452 33.8105 198.887 33.5918 199.197 33.1543C199.512 32.7168 199.669 32.0765 199.669 31.2334C199.669 30.486 199.507 29.8936 199.184 29.4561C198.865 29.0186 198.429 28.7998 197.878 28.7998C197.336 28.7998 196.905 29.0163 196.586 29.4492C196.267 29.8776 196.107 30.5202 196.107 31.377ZM204.27 27.6035L204.317 28.458C204.864 27.7972 205.582 27.4668 206.471 27.4668C208.011 27.4668 208.795 28.3486 208.822 30.1123V35H207.161V30.208C207.161 29.7386 207.059 29.3923 206.854 29.1689C206.653 28.9411 206.323 28.8271 205.862 28.8271C205.192 28.8271 204.693 29.1302 204.365 29.7363V35H202.704V27.6035H204.27ZM213.696 31.2334C213.696 30.5088 213.84 29.8571 214.127 29.2783C214.414 28.695 214.817 28.2484 215.337 27.9385C215.856 27.624 216.453 27.4668 217.128 27.4668C218.126 27.4668 218.935 27.7881 219.555 28.4307C220.179 29.0732 220.516 29.9255 220.566 30.9873L220.573 31.377C220.573 32.1061 220.432 32.7578 220.149 33.332C219.871 33.9062 219.47 34.3506 218.946 34.665C218.427 34.9795 217.825 35.1367 217.142 35.1367C216.098 35.1367 215.262 34.7904 214.633 34.0977C214.008 33.4004 213.696 32.473 213.696 31.3154V31.2334ZM215.357 31.377C215.357 32.138 215.515 32.735 215.829 33.168C216.144 33.5964 216.581 33.8105 217.142 33.8105C217.702 33.8105 218.137 33.5918 218.447 33.1543C218.762 32.7168 218.919 32.0765 218.919 31.2334C218.919 30.486 218.757 29.8936 218.434 29.4561C218.115 29.0186 217.679 28.7998 217.128 28.7998C216.586 28.7998 216.155 29.0163 215.836 29.4492C215.517 29.8776 215.357 30.5202 215.357 31.377ZM222.562 35V28.834H221.435V27.6035H222.562V26.9268C222.562 26.1064 222.79 25.473 223.246 25.0264C223.702 24.5798 224.34 24.3564 225.16 24.3564C225.452 24.3564 225.762 24.3975 226.09 24.4795L226.049 25.7783C225.867 25.7419 225.655 25.7236 225.413 25.7236C224.62 25.7236 224.224 26.1315 224.224 26.9473V27.6035H225.728V28.834H224.224V35H222.562ZM232.509 25.8057V27.6035H233.814V28.834H232.509V32.9629C232.509 33.2454 232.563 33.4505 232.673 33.5781C232.787 33.7012 232.987 33.7627 233.274 33.7627C233.466 33.7627 233.66 33.7399 233.855 33.6943V34.9795C233.477 35.0843 233.113 35.1367 232.762 35.1367C231.486 35.1367 230.848 34.4326 230.848 33.0244V28.834H229.631V27.6035H230.848V25.8057H232.509ZM238.347 35.1367C237.294 35.1367 236.439 34.8063 235.783 34.1455C235.132 33.4801 234.806 32.596 234.806 31.4932V31.2881C234.806 30.5498 234.947 29.8913 235.229 29.3125C235.517 28.7292 235.918 28.2757 236.433 27.9521C236.948 27.6286 237.522 27.4668 238.155 27.4668C239.162 27.4668 239.939 27.7881 240.486 28.4307C241.038 29.0732 241.313 29.9824 241.313 31.1582V31.8281H236.48C236.531 32.4388 236.733 32.9219 237.089 33.2773C237.449 33.6328 237.9 33.8105 238.442 33.8105C239.203 33.8105 239.823 33.5029 240.302 32.8877L241.197 33.7422C240.901 34.1842 240.505 34.5283 240.008 34.7744C239.516 35.016 238.962 35.1367 238.347 35.1367ZM238.148 28.7998C237.693 28.7998 237.324 28.9593 237.041 29.2783C236.763 29.5973 236.585 30.0417 236.508 30.6113H239.673V30.4883C239.636 29.9323 239.488 29.513 239.229 29.2305C238.969 28.9434 238.609 28.7998 238.148 28.7998ZM252.586 31.377C252.586 32.5254 252.328 33.4391 251.813 34.1182C251.303 34.7972 250.599 35.1367 249.701 35.1367C248.835 35.1367 248.161 34.8245 247.678 34.2002L247.596 35H246.092V24.5H247.753V28.3145C248.231 27.7493 248.876 27.4668 249.688 27.4668C250.59 27.4668 251.299 27.8018 251.813 28.4717C252.328 29.1416 252.586 30.0781 252.586 31.2812V31.377ZM250.925 31.2334C250.925 30.4313 250.784 29.8298 250.501 29.4287C250.218 29.0277 249.808 28.8271 249.271 28.8271C248.55 28.8271 248.045 29.1416 247.753 29.7705V32.8193C248.049 33.4619 248.56 33.7832 249.284 33.7832C249.804 33.7832 250.205 33.5895 250.487 33.2021C250.77 32.8148 250.916 32.2292 250.925 31.4453V31.2334ZM257.241 35.1367C256.188 35.1367 255.334 34.8063 254.678 34.1455C254.026 33.4801 253.7 32.596 253.7 31.4932V31.2881C253.7 30.5498 253.841 29.8913 254.124 29.3125C254.411 28.7292 254.812 28.2757 255.327 27.9521C255.842 27.6286 256.416 27.4668 257.05 27.4668C258.057 27.4668 258.834 27.7881 259.381 28.4307C259.932 29.0732 260.208 29.9824 260.208 31.1582V31.8281H255.375C255.425 32.4388 255.628 32.9219 255.983 33.2773C256.343 33.6328 256.795 33.8105 257.337 33.8105C258.098 33.8105 258.718 33.5029 259.196 32.8877L260.092 33.7422C259.796 34.1842 259.399 34.5283 258.902 34.7744C258.41 35.016 257.856 35.1367 257.241 35.1367ZM257.043 28.7998C256.587 28.7998 256.218 28.9593 255.936 29.2783C255.658 29.5973 255.48 30.0417 255.402 30.6113H258.567V30.4883C258.531 29.9323 258.383 29.513 258.123 29.2305C257.863 28.9434 257.503 28.7998 257.043 28.7998ZM265.649 32.9902C265.649 32.694 265.526 32.4684 265.28 32.3135C265.039 32.1585 264.635 32.0218 264.07 31.9033C263.505 31.7848 263.034 31.6344 262.655 31.4521C261.826 31.0511 261.411 30.4701 261.411 29.709C261.411 29.071 261.68 28.5378 262.218 28.1094C262.756 27.681 263.439 27.4668 264.269 27.4668C265.153 27.4668 265.866 27.6855 266.408 28.123C266.955 28.5605 267.229 29.1279 267.229 29.8252H265.567C265.567 29.5062 265.449 29.2419 265.212 29.0322C264.975 28.818 264.66 28.7109 264.269 28.7109C263.904 28.7109 263.605 28.7952 263.373 28.9639C263.145 29.1325 263.031 29.3581 263.031 29.6406C263.031 29.8958 263.138 30.0941 263.353 30.2354C263.567 30.3766 264 30.5202 264.651 30.666C265.303 30.8073 265.813 30.9782 266.183 31.1787C266.556 31.3747 266.832 31.6117 267.01 31.8896C267.192 32.1676 267.283 32.5049 267.283 32.9014C267.283 33.5667 267.007 34.1068 266.456 34.5215C265.905 34.9316 265.182 35.1367 264.289 35.1367C263.683 35.1367 263.143 35.0273 262.669 34.8086C262.195 34.5898 261.826 34.2891 261.562 33.9062C261.297 33.5234 261.165 33.111 261.165 32.6689H262.778C262.801 33.0609 262.949 33.3639 263.223 33.5781C263.496 33.7878 263.858 33.8926 264.31 33.8926C264.747 33.8926 265.08 33.8105 265.308 33.6465C265.535 33.4779 265.649 33.2591 265.649 32.9902ZM270.817 25.8057V27.6035H272.123V28.834H270.817V32.9629C270.817 33.2454 270.872 33.4505 270.981 33.5781C271.095 33.7012 271.296 33.7627 271.583 33.7627C271.774 33.7627 271.968 33.7399 272.164 33.6943V34.9795C271.786 35.0843 271.421 35.1367 271.07 35.1367C269.794 35.1367 269.156 34.4326 269.156 33.0244V28.834H267.939V27.6035H269.156V25.8057H270.817ZM106.413 43.6035L106.461 44.376C106.98 43.7699 107.691 43.4668 108.594 43.4668C109.583 43.4668 110.259 43.8451 110.624 44.6016C111.162 43.8451 111.918 43.4668 112.894 43.4668C113.709 43.4668 114.315 43.6924 114.712 44.1436C115.113 44.5947 115.318 45.2601 115.327 46.1396V51H113.666V46.1875C113.666 45.7181 113.563 45.374 113.358 45.1553C113.153 44.9365 112.814 44.8271 112.34 44.8271C111.962 44.8271 111.652 44.9297 111.41 45.1348C111.173 45.3353 111.007 45.5996 110.911 45.9277L110.918 51H109.257V46.1328C109.234 45.2624 108.79 44.8271 107.924 44.8271C107.258 44.8271 106.787 45.0983 106.509 45.6406V51H104.848V43.6035H106.413ZM120.29 51.1367C119.237 51.1367 118.383 50.8063 117.727 50.1455C117.075 49.4801 116.749 48.596 116.749 47.4932V47.2881C116.749 46.5498 116.89 45.8913 117.173 45.3125C117.46 44.7292 117.861 44.2757 118.376 43.9521C118.891 43.6286 119.465 43.4668 120.099 43.4668C121.106 43.4668 121.883 43.7881 122.43 44.4307C122.981 45.0732 123.257 45.9824 123.257 47.1582V47.8281H118.424C118.474 48.4388 118.677 48.9219 119.032 49.2773C119.392 49.6328 119.843 49.8105 120.386 49.8105C121.147 49.8105 121.767 49.5029 122.245 48.8877L123.141 49.7422C122.844 50.1842 122.448 50.5283 121.951 50.7744C121.459 51.016 120.905 51.1367 120.29 51.1367ZM120.092 44.7998C119.636 44.7998 119.267 44.9593 118.984 45.2783C118.706 45.5973 118.529 46.0417 118.451 46.6113H121.616V46.4883C121.58 45.9323 121.432 45.513 121.172 45.2305C120.912 44.9434 120.552 44.7998 120.092 44.7998ZM126.634 41.8057V43.6035H127.939V44.834H126.634V48.9629C126.634 49.2454 126.688 49.4505 126.798 49.5781C126.912 49.7012 127.112 49.7627 127.399 49.7627C127.591 49.7627 127.785 49.7399 127.98 49.6943V50.9795C127.602 51.0843 127.238 51.1367 126.887 51.1367C125.611 51.1367 124.973 50.4326 124.973 49.0244V44.834H123.756V43.6035H124.973V41.8057H126.634ZM130.852 44.4102C131.394 43.7812 132.08 43.4668 132.909 43.4668C134.486 43.4668 135.286 44.3669 135.309 46.167V51H133.647V46.2285C133.647 45.7181 133.536 45.3581 133.312 45.1484C133.094 44.9342 132.77 44.8271 132.342 44.8271C131.676 44.8271 131.18 45.1234 130.852 45.7158V51H129.19V40.5H130.852V44.4102ZM136.683 47.2334C136.683 46.5088 136.826 45.8571 137.113 45.2783C137.4 44.695 137.804 44.2484 138.323 43.9385C138.843 43.624 139.44 43.4668 140.114 43.4668C141.112 43.4668 141.921 43.7881 142.541 44.4307C143.165 45.0732 143.503 45.9255 143.553 46.9873L143.56 47.377C143.56 48.1061 143.418 48.7578 143.136 49.332C142.858 49.9062 142.457 50.3506 141.933 50.665C141.413 50.9795 140.812 51.1367 140.128 51.1367C139.084 51.1367 138.248 50.7904 137.619 50.0977C136.995 49.4004 136.683 48.473 136.683 47.3154V47.2334ZM138.344 47.377C138.344 48.138 138.501 48.735 138.815 49.168C139.13 49.5964 139.567 49.8105 140.128 49.8105C140.688 49.8105 141.124 49.5918 141.434 49.1543C141.748 48.7168 141.905 48.0765 141.905 47.2334C141.905 46.486 141.743 45.8936 141.42 45.4561C141.101 45.0186 140.666 44.7998 140.114 44.7998C139.572 44.7998 139.141 45.0163 138.822 45.4492C138.503 45.8776 138.344 46.5202 138.344 47.377ZM144.653 47.2471C144.653 46.1077 144.918 45.194 145.446 44.5059C145.975 43.8132 146.684 43.4668 147.572 43.4668C148.356 43.4668 148.99 43.7402 149.473 44.2871V40.5H151.134V51H149.63L149.548 50.2344C149.051 50.8359 148.388 51.1367 147.559 51.1367C146.693 51.1367 145.991 50.7881 145.453 50.0908C144.92 49.3936 144.653 48.4456 144.653 47.2471ZM146.314 47.3906C146.314 48.1426 146.458 48.7305 146.745 49.1543C147.037 49.5736 147.449 49.7832 147.982 49.7832C148.661 49.7832 149.158 49.4801 149.473 48.874V45.7158C149.167 45.1234 148.675 44.8271 147.996 44.8271C147.458 44.8271 147.044 45.0413 146.752 45.4697C146.46 45.8936 146.314 46.5339 146.314 47.3906ZM158.435 41.8057V43.6035H159.74V44.834H158.435V48.9629C158.435 49.2454 158.489 49.4505 158.599 49.5781C158.713 49.7012 158.913 49.7627 159.2 49.7627C159.392 49.7627 159.585 49.7399 159.781 49.6943V50.9795C159.403 51.0843 159.038 51.1367 158.688 51.1367C157.411 51.1367 156.773 50.4326 156.773 49.0244V44.834H155.557V43.6035H156.773V41.8057H158.435ZM160.499 47.2334C160.499 46.5088 160.643 45.8571 160.93 45.2783C161.217 44.695 161.62 44.2484 162.14 43.9385C162.659 43.624 163.256 43.4668 163.931 43.4668C164.929 43.4668 165.738 43.7881 166.357 44.4307C166.982 45.0732 167.319 45.9255 167.369 46.9873L167.376 47.377C167.376 48.1061 167.235 48.7578 166.952 49.332C166.674 49.9062 166.273 50.3506 165.749 50.665C165.229 50.9795 164.628 51.1367 163.944 51.1367C162.901 51.1367 162.064 50.7904 161.436 50.0977C160.811 49.4004 160.499 48.473 160.499 47.3154V47.2334ZM162.16 47.377C162.16 48.138 162.317 48.735 162.632 49.168C162.946 49.5964 163.384 49.8105 163.944 49.8105C164.505 49.8105 164.94 49.5918 165.25 49.1543C165.564 48.7168 165.722 48.0765 165.722 47.2334C165.722 46.486 165.56 45.8936 165.236 45.4561C164.917 45.0186 164.482 44.7998 163.931 44.7998C163.388 44.7998 162.958 45.0163 162.639 45.4492C162.32 45.8776 162.16 46.5202 162.16 47.377ZM171.977 47.2471C171.977 46.0986 172.245 45.1826 172.783 44.499C173.326 43.8109 174.043 43.4668 174.937 43.4668C175.78 43.4668 176.443 43.7607 176.926 44.3486L177.001 43.6035H178.498V50.7744C178.498 51.7451 178.195 52.5107 177.589 53.0713C176.987 53.6318 176.174 53.9121 175.148 53.9121C174.606 53.9121 174.075 53.7982 173.556 53.5703C173.041 53.347 172.649 53.0531 172.38 52.6885L173.166 51.6904C173.676 52.2965 174.305 52.5996 175.053 52.5996C175.604 52.5996 176.039 52.4492 176.358 52.1484C176.677 51.8522 176.837 51.4147 176.837 50.8359V50.3369C176.358 50.8701 175.72 51.1367 174.923 51.1367C174.057 51.1367 173.348 50.7926 172.797 50.1045C172.25 49.4163 171.977 48.4639 171.977 47.2471ZM173.631 47.3906C173.631 48.1335 173.781 48.7191 174.082 49.1475C174.387 49.5713 174.809 49.7832 175.347 49.7832C176.017 49.7832 176.513 49.4961 176.837 48.9219V45.668C176.522 45.1074 176.03 44.8271 175.36 44.8271C174.813 44.8271 174.387 45.0436 174.082 45.4766C173.781 45.9095 173.631 46.5475 173.631 47.3906ZM184.083 45.1211C183.864 45.0846 183.639 45.0664 183.406 45.0664C182.645 45.0664 182.132 45.3581 181.868 45.9414V51H180.207V43.6035H181.793L181.834 44.4307C182.235 43.7881 182.791 43.4668 183.502 43.4668C183.739 43.4668 183.935 43.4987 184.09 43.5625L184.083 45.1211ZM184.575 47.2334C184.575 46.5088 184.719 45.8571 185.006 45.2783C185.293 44.695 185.696 44.2484 186.216 43.9385C186.735 43.624 187.332 43.4668 188.007 43.4668C189.005 43.4668 189.814 43.7881 190.434 44.4307C191.058 45.0732 191.395 45.9255 191.445 46.9873L191.452 47.377C191.452 48.1061 191.311 48.7578 191.028 49.332C190.75 49.9062 190.349 50.3506 189.825 50.665C189.306 50.9795 188.704 51.1367 188.021 51.1367C186.977 51.1367 186.141 50.7904 185.512 50.0977C184.887 49.4004 184.575 48.473 184.575 47.3154V47.2334ZM186.236 47.377C186.236 48.138 186.394 48.735 186.708 49.168C187.022 49.5964 187.46 49.8105 188.021 49.8105C188.581 49.8105 189.016 49.5918 189.326 49.1543C189.641 48.7168 189.798 48.0765 189.798 47.2334C189.798 46.486 189.636 45.8936 189.312 45.4561C188.993 45.0186 188.558 44.7998 188.007 44.7998C187.465 44.7998 187.034 45.0163 186.715 45.4492C186.396 45.8776 186.236 46.5202 186.236 47.377ZM199.354 48.71L200.53 43.6035H202.15L200.134 51H198.767L197.181 45.9209L195.622 51H194.255L192.231 43.6035H193.852L195.048 48.6553L196.565 43.6035H197.816L199.354 48.71ZM211.229 50.2754C210.741 50.8496 210.048 51.1367 209.15 51.1367C208.348 51.1367 207.74 50.902 207.325 50.4326C206.915 49.9632 206.71 49.2842 206.71 48.3955V43.6035H208.371V48.375C208.371 49.3138 208.761 49.7832 209.54 49.7832C210.347 49.7832 210.891 49.4938 211.174 48.915V43.6035H212.835V51H211.27L211.229 50.2754ZM221.004 47.377C221.004 48.5208 220.744 49.4346 220.225 50.1182C219.705 50.7972 219.008 51.1367 218.133 51.1367C217.322 51.1367 216.672 50.8701 216.185 50.3369V53.8438H214.523V43.6035H216.055L216.123 44.3555C216.611 43.763 217.274 43.4668 218.112 43.4668C219.015 43.4668 219.721 43.804 220.231 44.4785C220.746 45.1484 221.004 46.0804 221.004 47.2744V47.377ZM219.35 47.2334C219.35 46.4951 219.201 45.9095 218.905 45.4766C218.614 45.0436 218.194 44.8271 217.647 44.8271C216.968 44.8271 216.481 45.1074 216.185 45.668V48.9492C216.485 49.5234 216.978 49.8105 217.661 49.8105C218.19 49.8105 218.602 49.5986 218.898 49.1748C219.199 48.7464 219.35 48.0993 219.35 47.2334ZM226.486 51V44.834H225.358V43.6035H226.486V42.9268C226.486 42.1064 226.714 41.473 227.17 41.0264C227.626 40.5798 228.264 40.3564 229.084 40.3564C229.376 40.3564 229.686 40.3975 230.014 40.4795L229.973 41.7783C229.79 41.7419 229.578 41.7236 229.337 41.7236C228.544 41.7236 228.147 42.1315 228.147 42.9473V43.6035H229.651V44.834H228.147V51H226.486ZM230.554 47.2334C230.554 46.5088 230.697 45.8571 230.984 45.2783C231.271 44.695 231.675 44.2484 232.194 43.9385C232.714 43.624 233.311 43.4668 233.985 43.4668C234.983 43.4668 235.792 43.7881 236.412 44.4307C237.036 45.0732 237.374 45.9255 237.424 46.9873L237.431 47.377C237.431 48.1061 237.289 48.7578 237.007 49.332C236.729 49.9062 236.328 50.3506 235.804 50.665C235.284 50.9795 234.683 51.1367 233.999 51.1367C232.955 51.1367 232.119 50.7904 231.49 50.0977C230.866 49.4004 230.554 48.473 230.554 47.3154V47.2334ZM232.215 47.377C232.215 48.138 232.372 48.735 232.687 49.168C233.001 49.5964 233.438 49.8105 233.999 49.8105C234.56 49.8105 234.995 49.5918 235.305 49.1543C235.619 48.7168 235.776 48.0765 235.776 47.2334C235.776 46.486 235.615 45.8936 235.291 45.4561C234.972 45.0186 234.537 44.7998 233.985 44.7998C233.443 44.7998 233.012 45.0163 232.693 45.4492C232.374 45.8776 232.215 46.5202 232.215 47.377ZM242.708 45.1211C242.489 45.0846 242.264 45.0664 242.031 45.0664C241.27 45.0664 240.757 45.3581 240.493 45.9414V51H238.832V43.6035H240.418L240.459 44.4307C240.86 43.7881 241.416 43.4668 242.127 43.4668C242.364 43.4668 242.56 43.4987 242.715 43.5625L242.708 45.1211ZM249.831 48.6211L251.335 43.6035H253.105L250.166 52.1211C249.715 53.3652 248.949 53.9873 247.869 53.9873C247.628 53.9873 247.361 53.9463 247.069 53.8643V52.5791L247.384 52.5996C247.803 52.5996 248.118 52.5221 248.327 52.3672C248.541 52.2168 248.71 51.9616 248.833 51.6016L249.072 50.9658L246.475 43.6035H248.266L249.831 48.6211ZM253.646 47.2334C253.646 46.5088 253.789 45.8571 254.076 45.2783C254.363 44.695 254.767 44.2484 255.286 43.9385C255.806 43.624 256.403 43.4668 257.077 43.4668C258.075 43.4668 258.884 43.7881 259.504 44.4307C260.128 45.0732 260.465 45.9255 260.516 46.9873L260.522 47.377C260.522 48.1061 260.381 48.7578 260.099 49.332C259.821 49.9062 259.42 50.3506 258.896 50.665C258.376 50.9795 257.774 51.1367 257.091 51.1367C256.047 51.1367 255.211 50.7904 254.582 50.0977C253.958 49.4004 253.646 48.473 253.646 47.3154V47.2334ZM255.307 47.377C255.307 48.138 255.464 48.735 255.778 49.168C256.093 49.5964 256.53 49.8105 257.091 49.8105C257.651 49.8105 258.087 49.5918 258.396 49.1543C258.711 48.7168 258.868 48.0765 258.868 47.2334C258.868 46.486 258.706 45.8936 258.383 45.4561C258.064 45.0186 257.629 44.7998 257.077 44.7998C256.535 44.7998 256.104 45.0163 255.785 45.4492C255.466 45.8776 255.307 46.5202 255.307 47.377ZM266.408 50.2754C265.921 50.8496 265.228 51.1367 264.33 51.1367C263.528 51.1367 262.92 50.902 262.505 50.4326C262.095 49.9632 261.89 49.2842 261.89 48.3955V43.6035H263.551V48.375C263.551 49.3138 263.94 49.7832 264.72 49.7832C265.526 49.7832 266.071 49.4938 266.354 48.915V43.6035H268.015V51H266.449L266.408 50.2754ZM273.579 45.1211C273.36 45.0846 273.135 45.0664 272.902 45.0664C272.141 45.0664 271.629 45.3581 271.364 45.9414V51H269.703V43.6035H271.289L271.33 44.4307C271.731 43.7881 272.287 43.4668 272.998 43.4668C273.235 43.4668 273.431 43.4987 273.586 43.5625L273.579 45.1211ZM108.997 64.9902C108.997 64.694 108.874 64.4684 108.628 64.3135C108.386 64.1585 107.983 64.0218 107.418 63.9033C106.853 63.7848 106.381 63.6344 106.003 63.4521C105.174 63.0511 104.759 62.4701 104.759 61.709C104.759 61.071 105.028 60.5378 105.565 60.1094C106.103 59.681 106.787 59.4668 107.616 59.4668C108.5 59.4668 109.214 59.6855 109.756 60.123C110.303 60.5605 110.576 61.1279 110.576 61.8252H108.915C108.915 61.5062 108.797 61.2419 108.56 61.0322C108.323 60.818 108.008 60.7109 107.616 60.7109C107.252 60.7109 106.953 60.7952 106.721 60.9639C106.493 61.1325 106.379 61.3581 106.379 61.6406C106.379 61.8958 106.486 62.0941 106.7 62.2354C106.914 62.3766 107.347 62.5202 107.999 62.666C108.651 62.8073 109.161 62.9782 109.53 63.1787C109.904 63.3747 110.18 63.6117 110.357 63.8896C110.54 64.1676 110.631 64.5049 110.631 64.9014C110.631 65.5667 110.355 66.1068 109.804 66.5215C109.252 66.9316 108.53 67.1367 107.637 67.1367C107.031 67.1367 106.491 67.0273 106.017 66.8086C105.543 66.5898 105.174 66.2891 104.909 65.9062C104.645 65.5234 104.513 65.111 104.513 64.6689H106.126C106.149 65.0609 106.297 65.3639 106.57 65.5781C106.844 65.7878 107.206 65.8926 107.657 65.8926C108.095 65.8926 108.427 65.8105 108.655 65.6465C108.883 65.4779 108.997 65.2591 108.997 64.9902ZM114.486 63.8281L113.748 64.5869V67H112.087V56.5H113.748V62.5566L114.268 61.9072L116.312 59.6035H118.308L115.56 62.6865L118.602 67H116.681L114.486 63.8281ZM121.165 67H119.504V59.6035H121.165V67ZM119.401 57.6826C119.401 57.4274 119.481 57.2155 119.641 57.0469C119.805 56.8783 120.037 56.7939 120.338 56.7939C120.639 56.7939 120.871 56.8783 121.035 57.0469C121.199 57.2155 121.281 57.4274 121.281 57.6826C121.281 57.9333 121.199 58.1429 121.035 58.3115C120.871 58.4756 120.639 58.5576 120.338 58.5576C120.037 58.5576 119.805 58.4756 119.641 58.3115C119.481 58.1429 119.401 57.9333 119.401 57.6826ZM124.747 67H123.086V56.5H124.747V67ZM128.329 67H126.668V56.5H128.329V67Z" fill="#333333"/>
<path fill-rule="evenodd" clip-rule="evenodd" d="M312.991 52.8147C311.026 53.9982 309.096 54.57 308.191 54.3366C305.919 53.7512 305.71 45.4439 307.468 42.1689C309.225 38.894 318.262 37.4665 318.717 43.9553C318.875 46.2074 317.929 48.2172 316.532 49.8572L319.038 61.5337H311.758L312.991 52.8147Z" fill="#B28B67"/>
<path fill-rule="evenodd" clip-rule="evenodd" d="M304.825 38.4798L304.945 37.728L305.587 38.1368C305.692 38.2033 305.921 38.264 306.348 38.2701C306.755 38.2759 307.261 38.2325 307.851 38.1664C308.089 38.1397 308.34 38.1094 308.601 38.0779C309.61 37.9559 310.769 37.816 311.914 37.7988C313.357 37.7772 314.858 37.946 316.108 38.6338C317.385 39.3368 318.343 40.551 318.734 42.4904L318.787 42.7511L318.6 42.9404C318.578 42.9627 318.555 42.9843 318.531 43.0052C319.895 46.1795 318.465 49.3132 316.587 50.4396C316.046 49.7992 315.574 49.1785 315.153 48.5843C315.491 48.254 315.701 47.7929 315.701 47.2829C315.701 46.2781 314.886 45.4636 313.881 45.4636C313.646 45.4636 313.422 45.5081 313.216 45.5891C312.588 44.5815 312.038 43.7517 311.393 43.1649C311.314 43.1432 311.236 43.1209 311.159 43.0981C308.711 43.3778 306.999 43.023 305.947 42.1432C304.854 41.2288 304.604 39.8645 304.825 38.4798ZM308.82 42.1568C307.77 42.0591 307.055 41.7656 306.589 41.376C305.988 40.8734 305.72 40.1369 305.754 39.225C305.943 39.2552 306.14 39.2672 306.334 39.27C306.809 39.2767 307.369 39.2266 307.962 39.1602C308.217 39.1316 308.48 39.1 308.748 39.0676L308.748 39.0676C309.753 38.9464 310.842 38.815 311.929 38.7987C312.137 38.7956 312.343 38.7968 312.546 38.8029C310.521 38.8817 308.841 40.1597 308.82 42.1568ZM314.052 38.9616C314.622 39.0736 315.153 39.2495 315.626 39.5098C316.084 39.7623 316.5 40.1003 316.848 40.5551C315.994 39.7185 315.02 39.2026 314.052 38.9616Z" fill="#191847"/>
<path fill-rule="evenodd" clip-rule="evenodd" d="M319.353 87.9333L304.465 125.6L294.48 157.444H290.537L305.802 87.9333L319.353 87.9333Z" fill="#997659"/>
<path fill-rule="evenodd" clip-rule="evenodd" d="M322.351 87.9333C322.51 101.17 324.822 118.99 325.191 119.815C325.561 120.64 350.695 140.8 350.695 140.8L347.979 143.705C347.979 143.705 318.323 126.421 316.951 124.115C315.578 121.81 311.11 100.596 307.523 87.9333H322.351Z" fill="#B28B67"/>
<path fill-rule="evenodd" clip-rule="evenodd" d="M309.343 154.164L290.596 152.13L304.49 87.9333H321.281L309.343 154.164Z" fill="#69A1AC"/>
<path fill-rule="evenodd" clip-rule="evenodd" d="M346.817 136.113L334.52 150.663C334.52 150.663 315.092 129.452 311.866 122.983C308.641 116.514 306.068 87.9333 306.068 87.9333H324.972C324.972 87.9333 326.377 113.077 326.867 114.247C327.356 115.417 346.817 136.113 346.817 136.113Z" fill="#89C5CC"/>
<path fill-rule="evenodd" clip-rule="evenodd" d="M341.102 102.181C340.18 100.323 335.572 76.409 335.572 76.409L328.681 76.4347C328.681 76.4347 336.554 101.767 337.039 102.962C337.67 104.514 336.599 106.769 335.872 108.299C335.76 108.535 335.656 108.754 335.568 108.951C336.576 109.399 337.06 108.857 337.57 108.287C338.147 107.642 338.757 106.96 340.193 107.623C340.748 107.88 341.273 108.183 341.785 108.479C343.557 109.502 345.185 110.441 347.399 109.084C347.75 108.869 348.135 108.059 347.205 107.426C344.89 105.85 341.553 103.09 341.102 102.181ZM283.063 92.8634L291.978 84.2261L294.939 89.3143L285.669 94.7425C283.344 98.379 281.979 99.9503 281.573 99.4563C281.231 99.0398 281.388 98.5833 281.532 98.1628C281.645 97.8352 281.75 97.5295 281.606 97.2816C281.276 96.7154 279.415 97.0396 277.662 97.4223C275.909 97.805 276.315 96.9498 276.687 96.5035C278.344 95.1756 280.469 93.9622 283.063 92.8634Z" fill="#B28B67"/>
<path fill-rule="evenodd" clip-rule="evenodd" d="M314.573 56.9942L311.852 56.5306C307.565 71.5804 285.539 81.839 284.187 87.465C283.691 89.5282 285.187 90.5712 284.414 91.1996L287.951 93.7712C288.55 93.0771 289.829 94.3467 292.498 93.4586C295.167 92.5705 314.573 74.8144 314.573 56.9942Z" fill="#DB2721"/>
<path fill-rule="evenodd" clip-rule="evenodd" d="M309.98 58.2742C310.324 69.8614 306.678 76.535 303.909 81.6054C301.772 85.5162 300.157 88.4732 301.295 91.9954C303.429 98.5959 323.847 105.691 327.38 99.2213C328.797 96.628 329.447 93.4969 329.531 90.0923C330.421 92.663 331.167 94.9738 331.676 96.824C332.213 98.7759 333.665 99.7551 334.76 100.493C335.512 101.001 336.096 101.394 336.096 101.911L340.725 100.642C340.597 99.9416 340.882 99.3872 341.225 98.7176C341.727 97.7388 342.356 96.5137 342.008 94.2265C338.699 72.4441 325.997 60.7471 320.879 56.8379C320.655 55.1308 319.136 53.8714 317.395 53.9923L312.955 54.3006C311.52 54.4003 310.366 55.4084 310.014 56.7243L309.912 56.7422C309.92 56.8715 309.927 57.0003 309.933 57.1285C309.904 57.3474 309.896 57.5726 309.912 57.8017C309.923 57.963 309.946 58.1207 309.98 58.2742Z" fill="#FF4133"/>
</g>
<defs>
<clipPath id="clip0">
<rect width="360" height="92" fill="white"/>
</clipPath>
<clipPath id="clip1">
<rect width="88" height="130" fill="white" transform="translate(0 27)"/>
</clipPath>
</defs>
</svg>
