<svg width="360" height="92" viewBox="0 0 360 92" fill="none" xmlns="http://www.w3.org/2000/svg">
<g clip-path="url(#clip0)">
<rect width="360" height="92" fill="white"/>
<path d="M360 0H0V92H360V0Z" fill="#FEDEA6"/>
<path opacity="0.5" d="M0 92C0 92 81.9231 35.9375 186.923 34.5C291.923 33.0625 360 3.59375 360 3.59375V92H0Z" fill="#FAC978"/>
<g clip-path="url(#clip1)">
<path fill-rule="evenodd" clip-rule="evenodd" d="M67.572 41.6795C70.3781 43.4478 73.1352 44.3022 74.4295 43.9534C77.6748 43.0788 77.9732 30.6661 75.4621 25.7726C72.951 20.8792 60.0419 18.7463 59.3913 28.4418C59.1654 31.8068 60.5169 34.8099 62.5137 37.2603L58.9333 54.7073H69.3333L67.572 41.6795Z" fill="#B28B67"/>
<path fill-rule="evenodd" clip-rule="evenodd" d="M69.5344 20.1327C68.1637 19.8977 64.4731 19.7362 63.7924 19.7363C63.3575 19.7363 62.8861 19.8402 62.6285 19.4226C62.4176 19.0807 62.4948 18.5024 62.4319 18.1056C62.3588 17.6447 62.2549 17.1897 62.1499 16.7358C61.851 15.4444 61.3991 14.2158 60.7667 13.0622C59.5801 10.898 57.8418 9.20281 55.6473 8.21636C53.2239 7.12718 50.4816 6.87778 47.8749 7.0987C45.0854 7.33506 42.5602 8.29783 39.9265 9.20385C37.4166 10.0672 34.7878 10.407 32.1628 9.98543C29.518 9.56069 27.5196 8.06199 25.2888 6.63954C23.005 5.18329 20.3951 4.23085 17.6953 4.44979C15.1752 4.65424 12.8524 5.74217 10.7685 7.1955C8.81872 8.55526 7.20991 10.1912 6.30162 12.4937C5.32451 14.9705 5.3254 17.6892 6.93222 19.8781C9.26123 23.051 13.585 23.8715 17.1821 23.7899C19.2628 23.7429 21.3062 23.3458 23.2706 22.6234C25.8903 21.66 28.1542 20.0272 30.605 18.7024C31.7552 18.0807 32.9441 17.5701 34.1903 17.2023C35.3995 16.8453 36.5906 16.6815 37.6855 17.4452C38.8437 18.2532 39.8816 19.0469 41.2066 19.5527C42.4778 20.0379 43.8242 20.3093 45.1785 20.2984C47.8134 20.2771 50.4109 19.4188 52.97 18.8438C55.057 18.375 57.2899 17.9079 59.4175 18.3585C60.3053 18.5465 61.6021 18.9348 61.9227 19.8994C56.5258 20.922 54.4062 27.9003 55.9277 33.023C56.7488 35.7879 61.6849 39.02 63.6042 37.5664C64.82 36.6456 64.0819 35.4366 63.6042 34.6386C62.6893 33.1103 62.3763 31.1471 64.0691 30.083C65.5293 29.1653 67.0646 31.3446 67.0937 31.3422C67.495 31.3092 70.9629 29.2587 73.3521 26.2666C75.7092 26.4126 76.0668 24.7877 75.504 23.4589C74.9412 22.13 71.4282 20.4577 69.5344 20.1327Z" fill="#191847"/>
<path fill-rule="evenodd" clip-rule="evenodd" d="M50.5458 92.3105C51.3271 103.46 101.663 136.285 101.957 137.206C102.152 137.82 86.2889 176.025 86.2889 176.025L90.689 177.812C90.689 177.812 115.021 137.351 113.771 133.04C111.982 126.867 74.7162 92.4291 74.7162 92.4291L50.5458 92.3105Z" fill="#B28B67"/>
<path fill-rule="evenodd" clip-rule="evenodd" d="M87.4469 170.273L94.6307 173.007C109.779 155.137 115.717 140.393 114.634 132.881C113.551 125.369 75.7139 92.3378 75.7139 92.3378L50.0306 92.3378C50.9069 118.158 97.5619 137.305 98.1859 138.405C98.81 139.505 92.6688 150.282 87.4469 170.273Z" fill="#2F3676"/>
<path fill-rule="evenodd" clip-rule="evenodd" d="M111.035 72.6953L95.3334 79.9046L100.347 86.6199L112.107 77.1935C117.98 76.0655 120.704 75.0965 120.279 74.2864C119.92 73.6034 119.252 73.5649 118.637 73.5294C118.158 73.5018 117.711 73.476 117.466 73.1488C116.909 72.4016 118.285 70.0934 119.682 67.9613C121.078 65.8293 119.769 65.9063 119.003 66.1613C116.442 67.6516 113.786 69.8297 111.035 72.6953ZM40.7333 83.7324L31.8536 81.8903C25.8314 98.4854 22.2411 107.579 21.0827 109.172C20.2332 110.34 14.9945 113.349 11.4486 114.956C10.0253 115.601 10.3309 116.858 10.7484 117.26C13.3814 119.798 15.8293 118.908 18.4939 117.94C19.2654 117.66 20.0549 117.373 20.8724 117.161C22.9884 116.612 23.6323 117.749 24.2408 118.824C24.7796 119.776 25.2907 120.679 26.771 120.319C26.7037 120.015 26.621 119.675 26.5317 119.307C25.9546 116.933 25.1035 113.432 26.3662 111.398C27.0142 110.354 31.8032 101.132 40.7333 83.7324Z" fill="#B28B67"/>
<path fill-rule="evenodd" clip-rule="evenodd" d="M64.8679 47.1558L68.6149 46.4838C76.7765 54.7611 80.107 74.6472 85.5461 77.2794C90.6885 79.7681 97.9783 77.3598 106.643 74.108L109.297 80.3067C101.424 89.2119 84.6514 96.7354 77.8527 92.4404C66.9832 85.5735 64.4738 61.0471 64.8679 47.1558Z" fill="#DB2721"/>
<path fill-rule="evenodd" clip-rule="evenodd" d="M48.5333 96.388C48.5333 96.388 71.07 96.388 81.6883 96.388C83.2033 96.388 82.9179 94.1008 82.6988 92.9467C80.1713 79.6268 70.3046 65.2686 70.3046 46.308L60.7411 44.7401C52.8309 58.041 50.0954 74.417 48.5333 96.388Z" fill="#DDE3E9"/>
<path fill-rule="evenodd" clip-rule="evenodd" d="M60.2333 44.7401H60.1242C38.6735 58.5602 25.7099 79.9833 21.2333 109.009L28.1829 110.433C32.7864 104.825 38.4676 95.6485 45.2265 82.9021C43.1528 90.5804 41.6388 98.4555 41.1667 105.902H71.0113C76.7889 90.6367 63.9108 44.7401 63.9108 44.7401H61.8503H60.2333Z" fill="#FF4133"/>
</g>
<path d="M151.012 46V36.0469H153.951C154.831 36.0469 155.61 36.2428 156.289 36.6348C156.973 37.0267 157.501 37.5827 157.875 38.3027C158.249 39.0228 158.436 39.8477 158.436 40.7773V41.2764C158.436 42.2197 158.246 43.0492 157.868 43.7646C157.494 44.4801 156.959 45.0316 156.262 45.4189C155.569 45.8063 154.774 46 153.876 46H151.012ZM152.741 37.4414V44.6191H153.869C154.776 44.6191 155.471 44.3366 155.954 43.7715C156.442 43.2018 156.69 42.3861 156.699 41.3242V40.7705C156.699 39.6904 156.465 38.8656 155.995 38.2959C155.526 37.7262 154.844 37.4414 153.951 37.4414H152.741ZM159.687 42.2334C159.687 41.5088 159.83 40.8571 160.117 40.2783C160.404 39.695 160.808 39.2484 161.327 38.9385C161.847 38.624 162.444 38.4668 163.118 38.4668C164.116 38.4668 164.925 38.7881 165.545 39.4307C166.169 40.0732 166.507 40.9255 166.557 41.9873L166.563 42.377C166.563 43.1061 166.422 43.7578 166.14 44.332C165.862 44.9062 165.461 45.3506 164.937 45.665C164.417 45.9795 163.815 46.1367 163.132 46.1367C162.088 46.1367 161.252 45.7904 160.623 45.0977C159.999 44.4004 159.687 43.473 159.687 42.3154V42.2334ZM161.348 42.377C161.348 43.138 161.505 43.735 161.819 44.168C162.134 44.5964 162.571 44.8105 163.132 44.8105C163.692 44.8105 164.128 44.5918 164.438 44.1543C164.752 43.7168 164.909 43.0765 164.909 42.2334C164.909 41.486 164.747 40.8936 164.424 40.4561C164.105 40.0186 163.67 39.7998 163.118 39.7998C162.576 39.7998 162.145 40.0163 161.826 40.4492C161.507 40.8776 161.348 41.5202 161.348 42.377ZM169.51 38.6035L169.558 39.458C170.104 38.7972 170.822 38.4668 171.711 38.4668C173.251 38.4668 174.035 39.3486 174.062 41.1123V46H172.401V41.208C172.401 40.7386 172.299 40.3923 172.094 40.1689C171.893 39.9411 171.563 39.8271 171.103 39.8271C170.433 39.8271 169.934 40.1302 169.605 40.7363V46H167.944V38.6035H169.51ZM176.188 36.3545L176.011 39.0273H174.924V35.5H176.188V36.3545ZM179.661 36.8057V38.6035H180.967V39.834H179.661V43.9629C179.661 44.2454 179.716 44.4505 179.825 44.5781C179.939 44.7012 180.14 44.7627 180.427 44.7627C180.618 44.7627 180.812 44.7399 181.008 44.6943V45.9795C180.63 46.0843 180.265 46.1367 179.914 46.1367C178.638 46.1367 178 45.4326 178 44.0244V39.834H176.783V38.6035H178V36.8057H179.661ZM186.312 46V39.834H185.185V38.6035H186.312V37.9268C186.312 37.1064 186.54 36.473 186.996 36.0264C187.452 35.5798 188.09 35.3564 188.91 35.3564C189.202 35.3564 189.512 35.3975 189.84 35.4795L189.799 36.7783C189.617 36.7419 189.405 36.7236 189.163 36.7236C188.37 36.7236 187.974 37.1315 187.974 37.9473V38.6035H189.478V39.834H187.974V46H186.312ZM193.784 46.1367C192.731 46.1367 191.877 45.8063 191.221 45.1455C190.569 44.4801 190.243 43.596 190.243 42.4932V42.2881C190.243 41.5498 190.384 40.8913 190.667 40.3125C190.954 39.7292 191.355 39.2757 191.87 38.9521C192.385 38.6286 192.959 38.4668 193.593 38.4668C194.6 38.4668 195.377 38.7881 195.924 39.4307C196.475 40.0732 196.751 40.9824 196.751 42.1582V42.8281H191.918C191.968 43.4388 192.171 43.9219 192.526 44.2773C192.886 44.6328 193.338 44.8105 193.88 44.8105C194.641 44.8105 195.261 44.5029 195.739 43.8877L196.635 44.7422C196.339 45.1842 195.942 45.5283 195.445 45.7744C194.953 46.016 194.399 46.1367 193.784 46.1367ZM193.586 39.7998C193.13 39.7998 192.761 39.9593 192.479 40.2783C192.201 40.5973 192.023 41.0417 191.945 41.6113H195.11V41.4883C195.074 40.9323 194.926 40.513 194.666 40.2305C194.406 39.9434 194.046 39.7998 193.586 39.7998ZM201.304 46.1367C200.251 46.1367 199.396 45.8063 198.74 45.1455C198.089 44.4801 197.763 43.596 197.763 42.4932V42.2881C197.763 41.5498 197.904 40.8913 198.187 40.3125C198.474 39.7292 198.875 39.2757 199.39 38.9521C199.905 38.6286 200.479 38.4668 201.112 38.4668C202.119 38.4668 202.896 38.7881 203.443 39.4307C203.995 40.0732 204.271 40.9824 204.271 42.1582V42.8281H199.438C199.488 43.4388 199.69 43.9219 200.046 44.2773C200.406 44.6328 200.857 44.8105 201.399 44.8105C202.16 44.8105 202.78 44.5029 203.259 43.8877L204.154 44.7422C203.858 45.1842 203.462 45.5283 202.965 45.7744C202.473 46.016 201.919 46.1367 201.304 46.1367ZM201.105 39.7998C200.65 39.7998 200.281 39.9593 199.998 40.2783C199.72 40.5973 199.542 41.0417 199.465 41.6113H202.63V41.4883C202.593 40.9323 202.445 40.513 202.186 40.2305C201.926 39.9434 201.566 39.7998 201.105 39.7998ZM207.333 46H205.672V35.5H207.333V46ZM213.294 43.9902C213.294 43.694 213.171 43.4684 212.925 43.3135C212.683 43.1585 212.28 43.0218 211.715 42.9033C211.15 42.7848 210.678 42.6344 210.3 42.4521C209.47 42.0511 209.056 41.4701 209.056 40.709C209.056 40.071 209.325 39.5378 209.862 39.1094C210.4 38.681 211.084 38.4668 211.913 38.4668C212.797 38.4668 213.51 38.6855 214.053 39.123C214.6 39.5605 214.873 40.1279 214.873 40.8252H213.212C213.212 40.5062 213.093 40.2419 212.856 40.0322C212.619 39.818 212.305 39.7109 211.913 39.7109C211.549 39.7109 211.25 39.7952 211.018 39.9639C210.79 40.1325 210.676 40.3581 210.676 40.6406C210.676 40.8958 210.783 41.0941 210.997 41.2354C211.211 41.3766 211.644 41.5202 212.296 41.666C212.948 41.8073 213.458 41.9782 213.827 42.1787C214.201 42.3747 214.477 42.6117 214.654 42.8896C214.837 43.1676 214.928 43.5049 214.928 43.9014C214.928 44.5667 214.652 45.1068 214.101 45.5215C213.549 45.9316 212.827 46.1367 211.934 46.1367C211.327 46.1367 210.787 46.0273 210.313 45.8086C209.84 45.5898 209.47 45.2891 209.206 44.9062C208.942 44.5234 208.81 44.111 208.81 43.6689H210.423C210.446 44.0609 210.594 44.3639 210.867 44.5781C211.141 44.7878 211.503 44.8926 211.954 44.8926C212.392 44.8926 212.724 44.8105 212.952 44.6465C213.18 44.4779 213.294 44.2591 213.294 43.9902ZM221.504 39.4102C222.046 38.7812 222.732 38.4668 223.562 38.4668C225.138 38.4668 225.938 39.3669 225.961 41.167V46H224.3V41.2285C224.3 40.7181 224.188 40.3581 223.965 40.1484C223.746 39.9342 223.423 39.8271 222.994 39.8271C222.329 39.8271 221.832 40.1234 221.504 40.7158V46H219.843V35.5H221.504V39.4102ZM230.903 46.1367C229.851 46.1367 228.996 45.8063 228.34 45.1455C227.688 44.4801 227.362 43.596 227.362 42.4932V42.2881C227.362 41.5498 227.504 40.8913 227.786 40.3125C228.073 39.7292 228.474 39.2757 228.989 38.9521C229.504 38.6286 230.078 38.4668 230.712 38.4668C231.719 38.4668 232.496 38.7881 233.043 39.4307C233.594 40.0732 233.87 40.9824 233.87 42.1582V42.8281H229.037C229.087 43.4388 229.29 43.9219 229.646 44.2773C230.006 44.6328 230.457 44.8105 230.999 44.8105C231.76 44.8105 232.38 44.5029 232.858 43.8877L233.754 44.7422C233.458 45.1842 233.061 45.5283 232.564 45.7744C232.072 46.016 231.519 46.1367 230.903 46.1367ZM230.705 39.7998C230.249 39.7998 229.88 39.9593 229.598 40.2783C229.32 40.5973 229.142 41.0417 229.064 41.6113H232.229V41.4883C232.193 40.9323 232.045 40.513 231.785 40.2305C231.525 39.9434 231.165 39.7998 230.705 39.7998ZM239.312 43.9902C239.312 43.694 239.188 43.4684 238.942 43.3135C238.701 43.1585 238.298 43.0218 237.732 42.9033C237.167 42.7848 236.696 42.6344 236.317 42.4521C235.488 42.0511 235.073 41.4701 235.073 40.709C235.073 40.071 235.342 39.5378 235.88 39.1094C236.418 38.681 237.101 38.4668 237.931 38.4668C238.815 38.4668 239.528 38.6855 240.07 39.123C240.617 39.5605 240.891 40.1279 240.891 40.8252H239.229C239.229 40.5062 239.111 40.2419 238.874 40.0322C238.637 39.818 238.323 39.7109 237.931 39.7109C237.566 39.7109 237.268 39.7952 237.035 39.9639C236.807 40.1325 236.693 40.3581 236.693 40.6406C236.693 40.8958 236.8 41.0941 237.015 41.2354C237.229 41.3766 237.662 41.5202 238.313 41.666C238.965 41.8073 239.476 41.9782 239.845 42.1787C240.218 42.3747 240.494 42.6117 240.672 42.8896C240.854 43.1676 240.945 43.5049 240.945 43.9014C240.945 44.5667 240.67 45.1068 240.118 45.5215C239.567 45.9316 238.844 46.1367 237.951 46.1367C237.345 46.1367 236.805 46.0273 236.331 45.8086C235.857 45.5898 235.488 45.2891 235.224 44.9062C234.959 44.5234 234.827 44.111 234.827 43.6689H236.44C236.463 44.0609 236.611 44.3639 236.885 44.5781C237.158 44.7878 237.521 44.8926 237.972 44.8926C238.409 44.8926 238.742 44.8105 238.97 44.6465C239.198 44.4779 239.312 44.2591 239.312 43.9902ZM244.165 46H242.504V38.6035H244.165V46ZM242.401 36.6826C242.401 36.4274 242.481 36.2155 242.641 36.0469C242.805 35.8783 243.037 35.7939 243.338 35.7939C243.639 35.7939 243.871 35.8783 244.035 36.0469C244.199 36.2155 244.281 36.4274 244.281 36.6826C244.281 36.9333 244.199 37.1429 244.035 37.3115C243.871 37.4756 243.639 37.5576 243.338 37.5576C243.037 37.5576 242.805 37.4756 242.641 37.3115C242.481 37.1429 242.401 36.9333 242.401 36.6826ZM248.062 36.8057V38.6035H249.367V39.834H248.062V43.9629C248.062 44.2454 248.116 44.4505 248.226 44.5781C248.34 44.7012 248.54 44.7627 248.827 44.7627C249.019 44.7627 249.212 44.7399 249.408 44.6943V45.9795C249.03 46.0843 248.665 46.1367 248.314 46.1367C247.038 46.1367 246.4 45.4326 246.4 44.0244V39.834H245.184V38.6035H246.4V36.8057H248.062ZM255.062 46C254.989 45.8587 254.925 45.6286 254.87 45.3096C254.341 45.861 253.694 46.1367 252.929 46.1367C252.186 46.1367 251.58 45.9248 251.11 45.501C250.641 45.0771 250.406 44.5531 250.406 43.9287C250.406 43.1403 250.698 42.5365 251.281 42.1172C251.869 41.6934 252.708 41.4814 253.797 41.4814H254.815V40.9961C254.815 40.6133 254.708 40.3079 254.494 40.0801C254.28 39.8477 253.954 39.7314 253.517 39.7314C253.138 39.7314 252.828 39.8271 252.587 40.0186C252.345 40.2054 252.225 40.4447 252.225 40.7363H250.563C250.563 40.3307 250.698 39.9525 250.967 39.6016C251.236 39.2461 251.6 38.9681 252.061 38.7676C252.525 38.5671 253.043 38.4668 253.612 38.4668C254.478 38.4668 255.169 38.6855 255.684 39.123C256.199 39.556 256.463 40.1667 256.477 40.9551V44.291C256.477 44.9564 256.57 45.4873 256.757 45.8838V46H255.062ZM253.236 44.8037C253.564 44.8037 253.872 44.724 254.159 44.5645C254.451 44.4049 254.67 44.1908 254.815 43.9219V42.5273H253.92C253.305 42.5273 252.842 42.6344 252.532 42.8486C252.222 43.0628 252.067 43.3659 252.067 43.7578C252.067 44.0768 252.172 44.332 252.382 44.5234C252.596 44.7103 252.881 44.8037 253.236 44.8037ZM260.298 36.8057V38.6035H261.604V39.834H260.298V43.9629C260.298 44.2454 260.353 44.4505 260.462 44.5781C260.576 44.7012 260.776 44.7627 261.063 44.7627C261.255 44.7627 261.449 44.7399 261.645 44.6943V45.9795C261.266 46.0843 260.902 46.1367 260.551 46.1367C259.275 46.1367 258.637 45.4326 258.637 44.0244V39.834H257.42V38.6035H258.637V36.8057H260.298ZM266.136 46.1367C265.083 46.1367 264.229 45.8063 263.572 45.1455C262.921 44.4801 262.595 43.596 262.595 42.4932V42.2881C262.595 41.5498 262.736 40.8913 263.019 40.3125C263.306 39.7292 263.707 39.2757 264.222 38.9521C264.737 38.6286 265.311 38.4668 265.944 38.4668C266.951 38.4668 267.729 38.7881 268.275 39.4307C268.827 40.0732 269.103 40.9824 269.103 42.1582V42.8281H264.27C264.32 43.4388 264.522 43.9219 264.878 44.2773C265.238 44.6328 265.689 44.8105 266.231 44.8105C266.993 44.8105 267.612 44.5029 268.091 43.8877L268.986 44.7422C268.69 45.1842 268.294 45.5283 267.797 45.7744C267.305 46.016 266.751 46.1367 266.136 46.1367ZM265.938 39.7998C265.482 39.7998 265.113 39.9593 264.83 40.2783C264.552 40.5973 264.374 41.0417 264.297 41.6113H267.462V41.4883C267.425 40.9323 267.277 40.513 267.018 40.2305C266.758 39.9434 266.398 39.7998 265.938 39.7998ZM275.966 36.8057V38.6035H277.271V39.834H275.966V43.9629C275.966 44.2454 276.021 44.4505 276.13 44.5781C276.244 44.7012 276.444 44.7627 276.731 44.7627C276.923 44.7627 277.117 44.7399 277.312 44.6943V45.9795C276.934 46.0843 276.57 46.1367 276.219 46.1367C274.943 46.1367 274.305 45.4326 274.305 44.0244V39.834H273.088V38.6035H274.305V36.8057H275.966ZM278.03 42.2334C278.03 41.5088 278.174 40.8571 278.461 40.2783C278.748 39.695 279.151 39.2484 279.671 38.9385C280.19 38.624 280.787 38.4668 281.462 38.4668C282.46 38.4668 283.269 38.7881 283.889 39.4307C284.513 40.0732 284.85 40.9255 284.9 41.9873L284.907 42.377C284.907 43.1061 284.766 43.7578 284.483 44.332C284.205 44.9062 283.804 45.3506 283.28 45.665C282.761 45.9795 282.159 46.1367 281.476 46.1367C280.432 46.1367 279.596 45.7904 278.967 45.0977C278.342 44.4004 278.03 43.473 278.03 42.3154V42.2334ZM279.691 42.377C279.691 43.138 279.849 43.735 280.163 44.168C280.478 44.5964 280.915 44.8105 281.476 44.8105C282.036 44.8105 282.471 44.5918 282.781 44.1543C283.096 43.7168 283.253 43.0765 283.253 42.2334C283.253 41.486 283.091 40.8936 282.768 40.4561C282.449 40.0186 282.013 39.7998 281.462 39.7998C280.92 39.7998 280.489 40.0163 280.17 40.4492C279.851 40.8776 279.691 41.5202 279.691 42.377ZM291.531 38.6035V46.6562C291.531 47.4128 291.342 47.9893 290.964 48.3857C290.59 48.7868 290.041 48.9873 289.316 48.9873C289.011 48.9873 288.717 48.9486 288.435 48.8711V47.5586C288.608 47.5996 288.804 47.6201 289.022 47.6201C289.574 47.6201 289.856 47.3193 289.87 46.7178V38.6035H291.531ZM289.727 36.6826C289.727 36.4274 289.806 36.2155 289.966 36.0469C290.13 35.8783 290.362 35.7939 290.663 35.7939C290.964 35.7939 291.196 35.8783 291.36 36.0469C291.524 36.2155 291.606 36.4274 291.606 36.6826C291.606 36.9333 291.524 37.1429 291.36 37.3115C291.196 37.4756 290.964 37.5576 290.663 37.5576C290.362 37.5576 290.13 37.4756 289.966 37.3115C289.806 37.1429 289.727 36.9333 289.727 36.6826ZM293.001 42.2334C293.001 41.5088 293.145 40.8571 293.432 40.2783C293.719 39.695 294.122 39.2484 294.642 38.9385C295.161 38.624 295.758 38.4668 296.433 38.4668C297.431 38.4668 298.24 38.7881 298.859 39.4307C299.484 40.0732 299.821 40.9255 299.871 41.9873L299.878 42.377C299.878 43.1061 299.737 43.7578 299.454 44.332C299.176 44.9062 298.775 45.3506 298.251 45.665C297.731 45.9795 297.13 46.1367 296.446 46.1367C295.403 46.1367 294.566 45.7904 293.938 45.0977C293.313 44.4004 293.001 43.473 293.001 42.3154V42.2334ZM294.662 42.377C294.662 43.138 294.819 43.735 295.134 44.168C295.448 44.5964 295.886 44.8105 296.446 44.8105C297.007 44.8105 297.442 44.5918 297.752 44.1543C298.066 43.7168 298.224 43.0765 298.224 42.2334C298.224 41.486 298.062 40.8936 297.738 40.4561C297.419 40.0186 296.984 39.7998 296.433 39.7998C295.89 39.7998 295.46 40.0163 295.141 40.4492C294.822 40.8776 294.662 41.5202 294.662 42.377ZM303.05 46H301.389V38.6035H303.05V46ZM301.286 36.6826C301.286 36.4274 301.366 36.2155 301.525 36.0469C301.689 35.8783 301.922 35.7939 302.223 35.7939C302.523 35.7939 302.756 35.8783 302.92 36.0469C303.084 36.2155 303.166 36.4274 303.166 36.6826C303.166 36.9333 303.084 37.1429 302.92 37.3115C302.756 37.4756 302.523 37.5576 302.223 37.5576C301.922 37.5576 301.689 37.4756 301.525 37.3115C301.366 37.1429 301.286 36.9333 301.286 36.6826ZM306.406 38.6035L306.454 39.458C307.001 38.7972 307.719 38.4668 308.607 38.4668C310.148 38.4668 310.932 39.3486 310.959 41.1123V46H309.298V41.208C309.298 40.7386 309.195 40.3923 308.99 40.1689C308.79 39.9411 308.459 39.8271 307.999 39.8271C307.329 39.8271 306.83 40.1302 306.502 40.7363V46H304.841V38.6035H306.406ZM320.563 46C320.491 45.8587 320.427 45.6286 320.372 45.3096C319.843 45.861 319.196 46.1367 318.431 46.1367C317.688 46.1367 317.082 45.9248 316.612 45.501C316.143 45.0771 315.908 44.5531 315.908 43.9287C315.908 43.1403 316.2 42.5365 316.783 42.1172C317.371 41.6934 318.21 41.4814 319.299 41.4814H320.317V40.9961C320.317 40.6133 320.21 40.3079 319.996 40.0801C319.782 39.8477 319.456 39.7314 319.019 39.7314C318.64 39.7314 318.33 39.8271 318.089 40.0186C317.847 40.2054 317.727 40.4447 317.727 40.7363H316.065C316.065 40.3307 316.2 39.9525 316.469 39.6016C316.738 39.2461 317.102 38.9681 317.562 38.7676C318.027 38.5671 318.545 38.4668 319.114 38.4668C319.98 38.4668 320.671 38.6855 321.186 39.123C321.701 39.556 321.965 40.1667 321.979 40.9551V44.291C321.979 44.9564 322.072 45.4873 322.259 45.8838V46H320.563ZM318.738 44.8037C319.066 44.8037 319.374 44.724 319.661 44.5645C319.953 44.4049 320.172 44.1908 320.317 43.9219V42.5273H319.422C318.807 42.5273 318.344 42.6344 318.034 42.8486C317.724 43.0628 317.569 43.3659 317.569 43.7578C317.569 44.0768 317.674 44.332 317.884 44.5234C318.098 44.7103 318.383 44.8037 318.738 44.8037ZM153.89 60.8105C154.304 60.8105 154.648 60.6898 154.922 60.4482C155.195 60.2067 155.341 59.9082 155.359 59.5527H156.925C156.907 60.013 156.763 60.4437 156.494 60.8447C156.225 61.2412 155.861 61.5557 155.4 61.7881C154.94 62.0205 154.443 62.1367 153.91 62.1367C152.876 62.1367 152.055 61.8018 151.449 61.1318C150.843 60.4619 150.54 59.5368 150.54 58.3564V58.1855C150.54 57.0599 150.841 56.1598 151.442 55.4854C152.044 54.8063 152.864 54.4668 153.903 54.4668C154.783 54.4668 155.498 54.7243 156.05 55.2393C156.606 55.7497 156.897 56.4219 156.925 57.2559H155.359C155.341 56.832 155.195 56.4834 154.922 56.21C154.653 55.9365 154.309 55.7998 153.89 55.7998C153.352 55.7998 152.937 55.9958 152.646 56.3877C152.354 56.7751 152.206 57.3652 152.201 58.1582V58.4248C152.201 59.2269 152.345 59.8262 152.632 60.2227C152.924 60.6146 153.343 60.8105 153.89 60.8105ZM157.868 58.2334C157.868 57.5088 158.012 56.8571 158.299 56.2783C158.586 55.695 158.989 55.2484 159.509 54.9385C160.028 54.624 160.625 54.4668 161.3 54.4668C162.298 54.4668 163.107 54.7881 163.727 55.4307C164.351 56.0732 164.688 56.9255 164.738 57.9873L164.745 58.377C164.745 59.1061 164.604 59.7578 164.321 60.332C164.043 60.9062 163.642 61.3506 163.118 61.665C162.599 61.9795 161.997 62.1367 161.313 62.1367C160.27 62.1367 159.434 61.7904 158.805 61.0977C158.18 60.4004 157.868 59.473 157.868 58.3154V58.2334ZM159.529 58.377C159.529 59.138 159.687 59.735 160.001 60.168C160.315 60.5964 160.753 60.8105 161.313 60.8105C161.874 60.8105 162.309 60.5918 162.619 60.1543C162.934 59.7168 163.091 59.0765 163.091 58.2334C163.091 57.486 162.929 56.8936 162.605 56.4561C162.286 56.0186 161.851 55.7998 161.3 55.7998C160.757 55.7998 160.327 56.0163 160.008 56.4492C159.689 56.8776 159.529 57.5202 159.529 58.377ZM167.712 54.6035L167.76 55.376C168.279 54.7699 168.99 54.4668 169.893 54.4668C170.882 54.4668 171.558 54.8451 171.923 55.6016C172.461 54.8451 173.217 54.4668 174.192 54.4668C175.008 54.4668 175.614 54.6924 176.011 55.1436C176.412 55.5947 176.617 56.2601 176.626 57.1396V62H174.965V57.1875C174.965 56.7181 174.862 56.374 174.657 56.1553C174.452 55.9365 174.113 55.8271 173.639 55.8271C173.26 55.8271 172.951 55.9297 172.709 56.1348C172.472 56.3353 172.306 56.5996 172.21 56.9277L172.217 62H170.556V57.1328C170.533 56.2624 170.089 55.8271 169.223 55.8271C168.557 55.8271 168.086 56.0983 167.808 56.6406V62H166.146V54.6035H167.712ZM179.894 54.6035L179.941 55.376C180.461 54.7699 181.172 54.4668 182.074 54.4668C183.063 54.4668 183.74 54.8451 184.104 55.6016C184.642 54.8451 185.399 54.4668 186.374 54.4668C187.19 54.4668 187.796 54.6924 188.192 55.1436C188.593 55.5947 188.799 56.2601 188.808 57.1396V62H187.146V57.1875C187.146 56.7181 187.044 56.374 186.839 56.1553C186.634 55.9365 186.294 55.8271 185.82 55.8271C185.442 55.8271 185.132 55.9297 184.891 56.1348C184.654 56.3353 184.487 56.5996 184.392 56.9277L184.398 62H182.737V57.1328C182.715 56.2624 182.27 55.8271 181.404 55.8271C180.739 55.8271 180.267 56.0983 179.989 56.6406V62H178.328V54.6035H179.894ZM194.994 61.2754C194.507 61.8496 193.814 62.1367 192.916 62.1367C192.114 62.1367 191.506 61.902 191.091 61.4326C190.681 60.9632 190.476 60.2842 190.476 59.3955V54.6035H192.137V59.375C192.137 60.3138 192.526 60.7832 193.306 60.7832C194.112 60.7832 194.657 60.4938 194.939 59.915V54.6035H196.601V62H195.035L194.994 61.2754ZM199.834 54.6035L199.882 55.458C200.429 54.7972 201.146 54.4668 202.035 54.4668C203.576 54.4668 204.359 55.3486 204.387 57.1123V62H202.726V57.208C202.726 56.7386 202.623 56.3923 202.418 56.1689C202.217 55.9411 201.887 55.8271 201.427 55.8271C200.757 55.8271 200.258 56.1302 199.93 56.7363V62H198.269V54.6035H199.834ZM207.853 62H206.191V54.6035H207.853V62ZM206.089 52.6826C206.089 52.4274 206.169 52.2155 206.328 52.0469C206.492 51.8783 206.725 51.7939 207.025 51.7939C207.326 51.7939 207.559 51.8783 207.723 52.0469C207.887 52.2155 207.969 52.4274 207.969 52.6826C207.969 52.9333 207.887 53.1429 207.723 53.3115C207.559 53.4756 207.326 53.5576 207.025 53.5576C206.725 53.5576 206.492 53.4756 206.328 53.3115C206.169 53.1429 206.089 52.9333 206.089 52.6826ZM211.749 52.8057V54.6035H213.055V55.834H211.749V59.9629C211.749 60.2454 211.804 60.4505 211.913 60.5781C212.027 60.7012 212.228 60.7627 212.515 60.7627C212.706 60.7627 212.9 60.7399 213.096 60.6943V61.9795C212.717 62.0843 212.353 62.1367 212.002 62.1367C210.726 62.1367 210.088 61.4326 210.088 60.0244V55.834H208.871V54.6035H210.088V52.8057H211.749ZM216.917 59.6211L218.421 54.6035H220.191L217.252 63.1211C216.801 64.3652 216.035 64.9873 214.955 64.9873C214.714 64.9873 214.447 64.9463 214.155 64.8643V63.5791L214.47 63.5996C214.889 63.5996 215.203 63.5221 215.413 63.3672C215.627 63.2168 215.796 62.9616 215.919 62.6016L216.158 61.9658L213.561 54.6035H215.352L216.917 59.6211ZM229.058 62C228.985 61.8587 228.921 61.6286 228.866 61.3096C228.338 61.861 227.69 62.1367 226.925 62.1367C226.182 62.1367 225.576 61.9248 225.106 61.501C224.637 61.0771 224.402 60.5531 224.402 59.9287C224.402 59.1403 224.694 58.5365 225.277 58.1172C225.865 57.6934 226.704 57.4814 227.793 57.4814H228.812V56.9961C228.812 56.6133 228.704 56.3079 228.49 56.0801C228.276 55.8477 227.95 55.7314 227.513 55.7314C227.134 55.7314 226.825 55.8271 226.583 56.0186C226.341 56.2054 226.221 56.4447 226.221 56.7363H224.56C224.56 56.3307 224.694 55.9525 224.963 55.6016C225.232 55.2461 225.596 54.9681 226.057 54.7676C226.521 54.5671 227.039 54.4668 227.608 54.4668C228.474 54.4668 229.165 54.6855 229.68 55.123C230.195 55.556 230.459 56.1667 230.473 56.9551V60.291C230.473 60.9564 230.566 61.4873 230.753 61.8838V62H229.058ZM227.232 60.8037C227.561 60.8037 227.868 60.724 228.155 60.5645C228.447 60.4049 228.666 60.1908 228.812 59.9219V58.5273H227.916C227.301 58.5273 226.838 58.6344 226.528 58.8486C226.218 59.0628 226.063 59.3659 226.063 59.7578C226.063 60.0768 226.168 60.332 226.378 60.5234C226.592 60.7103 226.877 60.8037 227.232 60.8037ZM236.085 56.1211C235.866 56.0846 235.641 56.0664 235.408 56.0664C234.647 56.0664 234.134 56.3581 233.87 56.9414V62H232.209V54.6035H233.795L233.836 55.4307C234.237 54.7881 234.793 54.4668 235.504 54.4668C235.741 54.4668 235.937 54.4987 236.092 54.5625L236.085 56.1211ZM236.577 58.2334C236.577 57.5088 236.721 56.8571 237.008 56.2783C237.295 55.695 237.698 55.2484 238.218 54.9385C238.737 54.624 239.334 54.4668 240.009 54.4668C241.007 54.4668 241.816 54.7881 242.436 55.4307C243.06 56.0732 243.397 56.9255 243.447 57.9873L243.454 58.377C243.454 59.1061 243.313 59.7578 243.03 60.332C242.752 60.9062 242.351 61.3506 241.827 61.665C241.308 61.9795 240.706 62.1367 240.022 62.1367C238.979 62.1367 238.143 61.7904 237.514 61.0977C236.889 60.4004 236.577 59.473 236.577 58.3154V58.2334ZM238.238 58.377C238.238 59.138 238.396 59.735 238.71 60.168C239.024 60.5964 239.462 60.8105 240.022 60.8105C240.583 60.8105 241.018 60.5918 241.328 60.1543C241.643 59.7168 241.8 59.0765 241.8 58.2334C241.8 57.486 241.638 56.8936 241.314 56.4561C240.995 56.0186 240.56 55.7998 240.009 55.7998C239.466 55.7998 239.036 56.0163 238.717 56.4492C238.398 56.8776 238.238 57.5202 238.238 58.377ZM249.34 61.2754C248.852 61.8496 248.16 62.1367 247.262 62.1367C246.46 62.1367 245.851 61.902 245.437 61.4326C245.026 60.9632 244.821 60.2842 244.821 59.3955V54.6035H246.482V59.375C246.482 60.3138 246.872 60.7832 247.651 60.7832C248.458 60.7832 249.003 60.4938 249.285 59.915V54.6035H250.946V62H249.381L249.34 61.2754ZM254.18 54.6035L254.228 55.458C254.774 54.7972 255.492 54.4668 256.381 54.4668C257.921 54.4668 258.705 55.3486 258.732 57.1123V62H257.071V57.208C257.071 56.7386 256.969 56.3923 256.764 56.1689C256.563 55.9411 256.233 55.8271 255.772 55.8271C255.103 55.8271 254.604 56.1302 254.275 56.7363V62H252.614V54.6035H254.18ZM260.12 58.2471C260.12 57.1077 260.384 56.194 260.913 55.5059C261.442 54.8132 262.15 54.4668 263.039 54.4668C263.823 54.4668 264.456 54.7402 264.939 55.2871V51.5H266.601V62H265.097L265.015 61.2344C264.518 61.8359 263.855 62.1367 263.025 62.1367C262.16 62.1367 261.458 61.7881 260.92 61.0908C260.387 60.3936 260.12 59.4456 260.12 58.2471ZM261.781 58.3906C261.781 59.1426 261.925 59.7305 262.212 60.1543C262.504 60.5736 262.916 60.7832 263.449 60.7832C264.128 60.7832 264.625 60.4801 264.939 59.874V56.7158C264.634 56.1234 264.142 55.8271 263.463 55.8271C262.925 55.8271 262.51 56.0413 262.219 56.4697C261.927 56.8936 261.781 57.5339 261.781 58.3906ZM274.407 59.6211L275.911 54.6035H277.682L274.742 63.1211C274.291 64.3652 273.525 64.9873 272.445 64.9873C272.204 64.9873 271.937 64.9463 271.646 64.8643V63.5791L271.96 63.5996C272.379 63.5996 272.694 63.5221 272.903 63.3672C273.118 63.2168 273.286 62.9616 273.409 62.6016L273.648 61.9658L271.051 54.6035H272.842L274.407 59.6211ZM278.222 58.2334C278.222 57.5088 278.365 56.8571 278.652 56.2783C278.939 55.695 279.343 55.2484 279.862 54.9385C280.382 54.624 280.979 54.4668 281.653 54.4668C282.651 54.4668 283.46 54.7881 284.08 55.4307C284.704 56.0732 285.042 56.9255 285.092 57.9873L285.099 58.377C285.099 59.1061 284.957 59.7578 284.675 60.332C284.397 60.9062 283.996 61.3506 283.472 61.665C282.952 61.9795 282.351 62.1367 281.667 62.1367C280.623 62.1367 279.787 61.7904 279.158 61.0977C278.534 60.4004 278.222 59.473 278.222 58.3154V58.2334ZM279.883 58.377C279.883 59.138 280.04 59.735 280.354 60.168C280.669 60.5964 281.106 60.8105 281.667 60.8105C282.228 60.8105 282.663 60.5918 282.973 60.1543C283.287 59.7168 283.444 59.0765 283.444 58.2334C283.444 57.486 283.283 56.8936 282.959 56.4561C282.64 56.0186 282.205 55.7998 281.653 55.7998C281.111 55.7998 280.68 56.0163 280.361 56.4492C280.042 56.8776 279.883 57.5202 279.883 58.377ZM290.984 61.2754C290.497 61.8496 289.804 62.1367 288.906 62.1367C288.104 62.1367 287.496 61.902 287.081 61.4326C286.671 60.9632 286.466 60.2842 286.466 59.3955V54.6035H288.127V59.375C288.127 60.3138 288.517 60.7832 289.296 60.7832C290.103 60.7832 290.647 60.4938 290.93 59.915V54.6035H292.591V62H291.025L290.984 61.2754Z" fill="#333333"/>
</g>
<defs>
<clipPath id="clip0">
<rect width="360" height="92" fill="white"/>
</clipPath>
<clipPath id="clip1">
<rect width="130" height="193" fill="white"/>
</clipPath>
</defs>
</svg>
