<svg id="Layer_1" data-name="Layer 1" xmlns="http://www.w3.org/2000/svg" viewBox="0 0 312 64"><defs><style>.cls-1{fill:#fedea6;}.cls-2{fill:#f5a570;}.cls-3{fill:#fac978;}.cls-4{fill:#faf0e3;}</style></defs><title>Bannerr 1 </title><rect class="cls-1" width="312" height="64"/><path class="cls-2" d="M264.67,39.5A29.12,29.12,0,0,1,251.33,64H219.67a29.17,29.17,0,1,1,45-25.8C264.66,38.63,264.67,39.06,264.67,39.5Z"/><path class="cls-3" d="M260.5,39.5c0,.16,0,.33,0,.49a25,25,0,0,1-17.8,23.46c-.72.22-1.46.4-2.21.55h-10a25,25,0,0,1-20-23.14c0-.45,0-.9,0-1.36a25,25,0,0,1,50,0Z"/><path class="cls-3" d="M312,21.08V64H242.57a5.4,5.4,0,0,1,.12-.55A34,34,0,0,1,260.49,40a31.85,31.85,0,0,1,4.15-1.79A34,34,0,0,1,293,40.84a33.45,33.45,0,0,1,4-7.63A34.12,34.12,0,0,1,312,21.08Z"/><path class="cls-2" d="M305,53.29V64H189.17A34,34,0,0,1,206.5,42.62a32.25,32.25,0,0,1,4-1.76A34,34,0,0,1,239,43.47a34.14,34.14,0,0,1,16.63-18.72,35.93,35.93,0,0,1,3.93-1.67A34,34,0,0,1,305,53.29Z"/><path class="cls-2" d="M43.15,64H0V55.38A34,34,0,0,1,43.15,64Z"/><path class="cls-4" d="M55.47,0A26.17,26.17,0,0,1,30.85,17.33,26,26,0,0,1,17.73,13.8,26.2,26.2,0,0,1,0,30.07V0Z"/></svg>