<svg width="24" height="24" viewBox="0 0 24 24" fill="none" xmlns="http://www.w3.org/2000/svg">
<path fill-rule="evenodd" clip-rule="evenodd" d="M11.4338 18.0166H9.3244V12.2246H3.40057V18.0166H1.29999V5.16699H3.40057V10.4229H9.3244V5.16699H11.4338V18.0166ZM13.9474 12.541C13.9474 7.51365 15.9953 5 20.091 5C20.7355 5 21.2805 5.0498 21.7258 5.14941V6.87207C21.2805 6.74316 20.7648 6.67871 20.1789 6.67871C18.8019 6.67871 17.7678 7.04785 17.0764 7.78613C16.3849 8.52442 16.0099 9.708 15.9514 11.3369H16.0568C16.3322 10.8623 16.7189 10.4946 17.217 10.2339C17.715 9.97314 18.301 9.84277 18.9748 9.84277C20.1408 9.84277 21.049 10.2002 21.6994 10.915C22.3498 11.6299 22.675 12.5996 22.675 13.8242C22.675 15.1719 22.2985 16.2368 21.5456 17.019C20.7927 17.8013 19.7658 18.1924 18.465 18.1924C17.5451 18.1924 16.7453 17.9712 16.0656 17.5288C15.3859 17.0864 14.863 16.4419 14.4968 15.5952C14.1306 14.7485 13.9474 13.7305 13.9474 12.541ZM18.4299 16.4873C19.1389 16.4873 19.6852 16.2588 20.069 15.8018C20.4528 15.3447 20.6447 14.6914 20.6447 13.8418C20.6447 13.1035 20.4645 12.5234 20.1042 12.1016C19.7438 11.6797 19.2033 11.4688 18.4826 11.4688C18.0373 11.4688 17.6271 11.564 17.2521 11.7544C16.8771 11.9448 16.5812 12.2056 16.3644 12.5366C16.1476 12.8677 16.0392 13.2061 16.0392 13.5518C16.0392 14.3779 16.2634 15.0737 16.7116 15.6392C17.1599 16.2046 17.7326 16.4873 18.4299 16.4873Z" fill="#212122"/>
</svg>
