<svg width="24" height="24" viewBox="0 0 24 24" fill="none" xmlns="http://www.w3.org/2000/svg">
<path d="M21.2145 7.08557H13.5191C13.3556 7.08557 13.2231 6.90824 13.2231 6.68951C13.2231 6.47077 13.3556 6.29344 13.5191 6.29344H21.2145C21.378 6.29344 21.5105 6.47077 21.5105 6.68951C21.5105 6.90824 21.378 7.08557 21.2145 7.08557Z" fill="#455A64" stroke="#212122"/>
<path d="M21.2145 11.8382H13.5191C13.3556 11.8382 13.2231 11.6609 13.2231 11.4421C13.2231 11.2234 13.3556 11.0461 13.5191 11.0461H21.2145C21.378 11.0461 21.5105 11.2234 21.5105 11.4421C21.5105 11.6609 21.378 11.8382 21.2145 11.8382Z" fill="#455A64" stroke="#212122"/>
<path d="M21.1144 16.5908H2.89606C2.67733 16.5908 2.5 16.4135 2.5 16.1947C2.5 15.976 2.67733 15.7987 2.89606 15.7987H21.1145C21.3332 15.7987 21.5105 15.976 21.5105 16.1947C21.5105 16.4135 21.3332 16.5908 21.1144 16.5908Z" fill="#455A64" stroke="#212122"/>
<path d="M21.1144 21.3434H2.89606C2.67733 21.3434 2.5 21.1661 2.5 20.9474C2.5 20.7286 2.67733 20.5513 2.89606 20.5513H21.1145C21.3332 20.5513 21.5105 20.7286 21.5105 20.9474C21.5105 21.1661 21.3332 21.3434 21.1144 21.3434Z" fill="#455A64" stroke="#212122"/>
<path d="M9.23288 12.3097C9.06219 12.31 8.91055 12.2008 8.85664 12.0388L6.06447 3.66075L3.27231 12.0388C3.20317 12.2464 2.97887 12.3587 2.77132 12.2895C2.56376 12.2204 2.45148 11.9961 2.52061 11.7886L5.68902 2.28331C5.78314 2.07571 6.02772 1.98374 6.23531 2.07787C6.32643 2.11919 6.39942 2.19219 6.44075 2.28331L9.60915 11.7886C9.67855 11.996 9.56667 12.2204 9.35927 12.2898C9.35912 12.2898 9.35901 12.2899 9.35886 12.29C9.3182 12.3033 9.27565 12.31 9.23288 12.3097Z" fill="#212122" stroke="#212122"/>
<path d="M8.04471 9.1413H4.08422C3.86549 9.1413 3.68816 8.96397 3.68816 8.74524C3.68816 8.52651 3.86549 8.34921 4.08422 8.34921H8.04475C8.26348 8.34921 8.44082 8.52654 8.44082 8.74528C8.44082 8.96401 8.26345 9.1413 8.04471 9.1413Z" fill="#212122" stroke="#212122"/>
</svg>
