<svg width="24" height="24" viewBox="0 0 24 24" fill="none" xmlns="http://www.w3.org/2000/svg">
<path d="M21.8175 10.335L12.6508 4.08495C12.4605 3.95562 12.2013 4.00507 12.072 4.19542C12.0252 4.26437 12.0001 4.34577 12 4.42913V8.18745C5.59168 8.45245 2.08332 14.7941 2 19.4083V19.4291C2 19.6593 2.18656 19.8458 2.41668 19.8458C2.64422 19.8459 2.82969 19.6633 2.83336 19.4358V19.4116C2.88 18.2925 7.26 13.465 12 13.1916V16.9291C12.0003 17.1593 12.187 17.3456 12.4171 17.3453C12.5005 17.3453 12.5819 17.3201 12.6509 17.2733L21.8175 11.0233C22.0076 10.8936 22.0566 10.6344 21.9268 10.4443C21.8975 10.4014 21.8604 10.3643 21.8175 10.335Z" fill="#212122"/>
</svg>
