<svg width="24" height="24" viewBox="0 0 24 24" fill="none" xmlns="http://www.w3.org/2000/svg">
<path fill-rule="evenodd" clip-rule="evenodd" d="M6.59606 7.40395C6.59606 4.42422 9.02024 2 12 2C14.9798 2 17.4039 4.42422 17.4039 7.40395V10.2729H15.7882V7.40395C15.7882 5.31512 14.0888 3.61578 12 3.61578C9.91117 3.61578 8.21184 5.31516 8.21184 7.40395V10.2729H6.59606V7.40395ZM6.59606 10.2729H5.56555C4.10637 10.2729 2.91922 11.46 2.91922 12.9192V19.3537C2.91922 20.8129 4.10637 22 5.56555 22H18.4345C19.8937 22 21.0808 20.8129 21.0808 19.3537V12.9192C21.0808 11.46 19.8937 10.2729 18.4345 10.2729H17.4039V11.0808C17.4039 11.527 17.0423 11.8887 16.5961 11.8887C16.1498 11.8887 15.7882 11.527 15.7882 11.0808V10.2729H8.21184V11.0808C8.21184 11.527 7.85012 11.8887 7.40395 11.8887C6.95777 11.8887 6.59606 11.527 6.59606 11.0808V10.2729ZM19.465 19.3537C19.465 19.9219 19.0027 20.3842 18.4345 20.3842H5.56555C4.99731 20.3842 4.53504 19.9219 4.53504 19.3537V12.9192C4.53504 12.351 4.99734 11.8887 5.56555 11.8887H18.4345C19.0027 11.8887 19.465 12.351 19.465 12.9192V19.3537Z" fill="#212122"/>
<mask id="mask0" mask-type="alpha" maskUnits="userSpaceOnUse" x="2" y="2" width="20" height="20">
<path fill-rule="evenodd" clip-rule="evenodd" d="M6.59606 7.40395C6.59606 4.42422 9.02024 2 12 2C14.9798 2 17.4039 4.42422 17.4039 7.40395V10.2729H15.7882V7.40395C15.7882 5.31512 14.0888 3.61578 12 3.61578C9.91117 3.61578 8.21184 5.31516 8.21184 7.40395V10.2729H6.59606V7.40395ZM6.59606 10.2729H5.56555C4.10637 10.2729 2.91922 11.46 2.91922 12.9192V19.3537C2.91922 20.8129 4.10637 22 5.56555 22H18.4345C19.8937 22 21.0808 20.8129 21.0808 19.3537V12.9192C21.0808 11.46 19.8937 10.2729 18.4345 10.2729H17.4039V11.0808C17.4039 11.527 17.0423 11.8887 16.5961 11.8887C16.1498 11.8887 15.7882 11.527 15.7882 11.0808V10.2729H8.21184V11.0808C8.21184 11.527 7.85012 11.8887 7.40395 11.8887C6.95777 11.8887 6.59606 11.527 6.59606 11.0808V10.2729ZM19.465 19.3537C19.465 19.9219 19.0027 20.3842 18.4345 20.3842H5.56555C4.99731 20.3842 4.53504 19.9219 4.53504 19.3537V12.9192C4.53504 12.351 4.99734 11.8887 5.56555 11.8887H18.4345C19.0027 11.8887 19.465 12.351 19.465 12.9192V19.3537Z" fill="white"/>
</mask>
<g mask="url(#mask0)">
</g>
</svg>
