<svg width="24" height="24" viewBox="0 0 24 24" fill="none" xmlns="http://www.w3.org/2000/svg">
<path fill-rule="evenodd" clip-rule="evenodd" d="M20.3333 22H3.66667C2.74619 22 2 21.2538 2 20.3333V5.33333C2 4.41286 2.74619 3.66667 3.66667 3.66667H5.33333V5.33333H3.66667V20.3333H20.3333V5.33333H18.6667V3.66667H20.3333C21.2538 3.66667 22 4.41286 22 5.33333V20.3333C22 21.2538 21.2538 22 20.3333 22ZM16.1667 16.1667H17.8333C18.2936 16.1667 18.6667 16.5398 18.6667 17C18.6667 17.4602 18.2936 17.8333 17.8333 17.8333H16.1667C15.7064 17.8333 15.3333 17.4602 15.3333 17C15.3333 16.5398 15.7064 16.1667 16.1667 16.1667ZM16.1667 12.8333H17.8333C18.2936 12.8333 18.6667 13.2064 18.6667 13.6667C18.6667 14.1269 18.2936 14.5 17.8333 14.5H16.1667C15.7064 14.5 15.3333 14.1269 15.3333 13.6667C15.3333 13.2064 15.7064 12.8333 16.1667 12.8333ZM17.8333 11.1667H16.1667C15.7064 11.1667 15.3333 10.7936 15.3333 10.3333C15.3333 9.8731 15.7064 9.5 16.1667 9.5H17.8333C18.2936 9.5 18.6667 9.8731 18.6667 10.3333C18.6667 10.7936 18.2936 11.1667 17.8333 11.1667ZM17 7C16.5398 7 16.1667 6.6269 16.1667 6.16667V2.83333C16.1667 2.3731 16.5398 2 17 2C17.4602 2 17.8333 2.3731 17.8333 2.83333V6.16667C17.8333 6.6269 17.4602 7 17 7ZM13.6667 3.66667H15.3333V5.33333H13.6667V3.66667ZM11.1667 16.1667H12.8333C13.2936 16.1667 13.6667 16.5398 13.6667 17C13.6667 17.4602 13.2936 17.8333 12.8333 17.8333H11.1667C10.7064 17.8333 10.3333 17.4602 10.3333 17C10.3333 16.5398 10.7064 16.1667 11.1667 16.1667ZM11.1667 12.8333H12.8333C13.2936 12.8333 13.6667 13.2064 13.6667 13.6667C13.6667 14.1269 13.2936 14.5 12.8333 14.5H11.1667C10.7064 14.5 10.3333 14.1269 10.3333 13.6667C10.3333 13.2064 10.7064 12.8333 11.1667 12.8333ZM12.8333 11.1667H11.1667C10.7064 11.1667 10.3333 10.7936 10.3333 10.3333C10.3333 9.8731 10.7064 9.5 11.1667 9.5H12.8333C13.2936 9.5 13.6667 9.8731 13.6667 10.3333C13.6667 10.7936 13.2936 11.1667 12.8333 11.1667ZM12 7C11.5398 7 11.1667 6.6269 11.1667 6.16667V2.83333C11.1667 2.3731 11.5398 2 12 2C12.4602 2 12.8333 2.3731 12.8333 2.83333V6.16667C12.8333 6.6269 12.4602 7 12 7ZM8.66667 3.66667H10.3333V5.33333H8.66667V3.66667ZM6.16667 16.1667H7.83333C8.29357 16.1667 8.66667 16.5398 8.66667 17C8.66667 17.4602 8.29357 17.8333 7.83333 17.8333H6.16667C5.70643 17.8333 5.33333 17.4602 5.33333 17C5.33333 16.5398 5.70643 16.1667 6.16667 16.1667ZM6.16667 12.8333H7.83333C8.29357 12.8333 8.66667 13.2064 8.66667 13.6667C8.66667 14.1269 8.29357 14.5 7.83333 14.5H6.16667C5.70643 14.5 5.33333 14.1269 5.33333 13.6667C5.33333 13.2064 5.70643 12.8333 6.16667 12.8333ZM7.83333 11.1667H6.16667C5.70643 11.1667 5.33333 10.7936 5.33333 10.3333C5.33333 9.8731 5.70643 9.5 6.16667 9.5H7.83333C8.29357 9.5 8.66667 9.8731 8.66667 10.3333C8.66667 10.7936 8.29357 11.1667 7.83333 11.1667ZM7 7C6.53976 7 6.16667 6.6269 6.16667 6.16667V2.83333C6.16667 2.3731 6.53976 2 7 2C7.46024 2 7.83333 2.3731 7.83333 2.83333V6.16667C7.83333 6.6269 7.46024 7 7 7Z" fill="#212122"/>
</svg>
