<svg width="24" height="24" viewBox="0 0 24 24" fill="none" xmlns="http://www.w3.org/2000/svg">
<path d="M16.8567 2H6.64328C5.07144 2 3.79269 3.27879 3.79269 4.85059V21.1921C3.79269 21.4947 3.96183 21.772 4.23094 21.9104C4.50004 22.0489 4.82398 22.0254 5.07019 21.8495L11.75 17.0782L18.4298 21.8495C18.5695 21.9492 18.7341 21.9999 18.8995 21.9999C19.0258 21.9999 19.1526 21.9704 19.2691 21.9104C19.5382 21.7719 19.7073 21.4946 19.7073 21.192V4.85059C19.7073 3.27879 18.4285 2 16.8567 2Z" fill="#212122"/>
<mask id="mask0" mask-type="alpha" maskUnits="userSpaceOnUse" x="3" y="2" width="17" height="21">
<path d="M16.8567 2H6.64328C5.07144 2 3.79269 3.27879 3.79269 4.85059V21.1921C3.79269 21.4947 3.96183 21.772 4.23094 21.9104C4.50004 22.0489 4.82398 22.0254 5.07019 21.8495L11.75 17.0782L18.4298 21.8495C18.5695 21.9492 18.7341 21.9999 18.8995 21.9999C19.0258 21.9999 19.1526 21.9704 19.2691 21.9104C19.5382 21.7719 19.7073 21.4946 19.7073 21.192V4.85059C19.7073 3.27879 18.4285 2 16.8567 2Z" fill="white"/>
</mask>
<g mask="url(#mask0)">
</g>
</svg>
