<svg width="24" height="24" viewBox="0 0 24 24" fill="none" xmlns="http://www.w3.org/2000/svg">
<path fill-rule="evenodd" clip-rule="evenodd" d="M12.5 14.5C11.1193 14.5 10 13.3807 10 12C10 10.6193 11.1193 9.5 12.5 9.5C13.8807 9.5 15 10.6193 15 12C15 13.3807 13.8807 14.5 12.5 14.5ZM12.5 11.1667C12.0398 11.1667 11.6667 11.5398 11.6667 12C11.6667 12.4602 12.0398 12.8333 12.5 12.8333C12.9602 12.8333 13.3333 12.4602 13.3333 12C13.3333 11.5398 12.9602 11.1667 12.5 11.1667ZM12.5 7C11.1193 7 10 5.88071 10 4.5C10 3.11929 11.1193 2 12.5 2C13.8807 2 15 3.11929 15 4.5C15 5.88071 13.8807 7 12.5 7ZM12.5 3.66667C12.0398 3.66667 11.6667 4.03976 11.6667 4.5C11.6667 4.96024 12.0398 5.33333 12.5 5.33333C12.9602 5.33333 13.3333 4.96024 13.3333 4.5C13.3333 4.03976 12.9602 3.66667 12.5 3.66667ZM12.5 17C13.8807 17 15 18.1193 15 19.5C15 20.8807 13.8807 22 12.5 22C11.1193 22 10 20.8807 10 19.5C10 18.1193 11.1193 17 12.5 17ZM12.5 20.3333C12.9602 20.3333 13.3333 19.9602 13.3333 19.5C13.3333 19.0398 12.9602 18.6667 12.5 18.6667C12.0398 18.6667 11.6667 19.0398 11.6667 19.5C11.6667 19.9602 12.0398 20.3333 12.5 20.3333Z" fill="#212122"/>
</svg>
