<svg width="24" height="24" viewBox="0 0 24 24" fill="none" xmlns="http://www.w3.org/2000/svg">
<path fill-rule="evenodd" clip-rule="evenodd" d="M6.64328 2H16.8567C18.4285 2 19.7073 3.27879 19.7073 4.85059V21.192C19.7073 21.4946 19.5382 21.7719 19.2691 21.9104C19.1526 21.9704 19.0258 21.9999 18.8995 21.9999C18.7341 21.9999 18.5695 21.9492 18.4298 21.8495L11.75 17.0782L5.07019 21.8495C4.82398 22.0254 4.50004 22.0489 4.23094 21.9104C3.96183 21.772 3.79269 21.4947 3.79269 21.1921V4.85059C3.79269 3.27879 5.07144 2 6.64328 2ZM12.2196 15.4279L18.0915 19.6221V4.85059C18.0915 4.16973 17.5375 3.61578 16.8567 3.61578H6.64328C5.96242 3.61578 5.40848 4.16973 5.40848 4.85059V19.6222L11.2804 15.428C11.4209 15.3277 11.5854 15.2775 11.75 15.2775C11.9145 15.2775 12.0791 15.3276 12.2196 15.4279Z" fill="#212122"/>
<mask id="mask0" mask-type="alpha" maskUnits="userSpaceOnUse" x="3" y="2" width="17" height="21">
<path fill-rule="evenodd" clip-rule="evenodd" d="M6.64328 2H16.8567C18.4285 2 19.7073 3.27879 19.7073 4.85059V21.192C19.7073 21.4946 19.5382 21.7719 19.2691 21.9104C19.1526 21.9704 19.0258 21.9999 18.8995 21.9999C18.7341 21.9999 18.5695 21.9492 18.4298 21.8495L11.75 17.0782L5.07019 21.8495C4.82398 22.0254 4.50004 22.0489 4.23094 21.9104C3.96183 21.772 3.79269 21.4947 3.79269 21.1921V4.85059C3.79269 3.27879 5.07144 2 6.64328 2ZM12.2196 15.4279L18.0915 19.6221V4.85059C18.0915 4.16973 17.5375 3.61578 16.8567 3.61578H6.64328C5.96242 3.61578 5.40848 4.16973 5.40848 4.85059V19.6222L11.2804 15.428C11.4209 15.3277 11.5854 15.2775 11.75 15.2775C11.9145 15.2775 12.0791 15.3276 12.2196 15.4279Z" fill="white"/>
</mask>
<g mask="url(#mask0)">
</g>
</svg>
