<svg width="24" height="24" viewBox="0 0 24 24" fill="none" xmlns="http://www.w3.org/2000/svg">
<path fill-rule="evenodd" clip-rule="evenodd" d="M16.4558 4.48023C14.8564 2.88082 12.7299 2 10.468 2C8.20609 2 6.07961 2.88082 4.48023 4.48023C2.88082 6.07961 2 8.20609 2 10.468C2 12.7299 2.88082 14.8564 4.48023 16.4557C6.07961 18.0551 8.20613 18.936 10.468 18.936C12.4584 18.936 14.344 18.2539 15.8578 17.0003L20.6208 21.7634C20.7786 21.9211 20.9854 22 21.1921 22C21.3989 22 21.6057 21.9211 21.7634 21.7634C22.0789 21.4479 22.0789 20.9363 21.7634 20.6208L17.0003 15.8578C18.2539 14.344 18.936 12.4584 18.936 10.468C18.936 8.20609 18.0552 6.07961 16.4558 4.48023ZM15.3444 15.2772C15.6617 14.9947 16.1482 15.0056 16.4524 15.3098L17.0003 15.8578C16.8293 16.0642 16.6477 16.2638 16.4558 16.4557C16.2638 16.6477 16.0642 16.8293 15.8578 17.0003L15.3098 16.4524C15.0056 16.1481 14.9948 15.6617 15.2772 15.3444C15.2998 15.3222 15.3222 15.2998 15.3444 15.2772ZM15.3444 15.2772C15.3327 15.2877 15.3211 15.2986 15.3098 15.3098C15.2986 15.3211 15.2877 15.3326 15.2772 15.3444C14.0393 16.5655 12.3401 17.3202 10.468 17.3202C6.68965 17.3202 3.61578 14.2463 3.61578 10.468C3.61578 6.68965 6.68969 3.61578 10.468 3.61578C14.2463 3.61578 17.3202 6.68965 17.3202 10.468C17.3202 12.3401 16.5655 14.0392 15.3444 15.2772Z" fill="#212122"/>
</svg>
