<svg width="24" height="24" viewBox="0 0 24 24" fill="none" xmlns="http://www.w3.org/2000/svg">
<path fill-rule="evenodd" clip-rule="evenodd" d="M19.3452 8.60485C20.9706 10.3421 21.8397 12.0661 21.8759 12.1387C21.9894 12.3661 21.9894 12.6338 21.8759 12.8613C21.8397 12.9339 20.9706 14.6579 19.3452 16.3951C18.3794 17.4273 17.3436 18.2525 16.2665 18.848C14.8919 19.6078 13.45 19.9931 11.9805 19.9931C10.511 19.9931 9.06905 19.6078 7.69455 18.848C6.61748 18.2526 5.58169 17.4273 4.61588 16.3951C2.99038 14.6579 2.1213 12.9339 2.08512 12.8613C1.97163 12.6338 1.97163 12.3661 2.08512 12.1387C2.12134 12.0661 2.99038 10.3421 4.61588 8.60489C5.58161 7.5727 6.61744 6.74747 7.69455 6.15204C9.06905 5.39219 10.511 5.00696 11.9805 5.00696C13.45 5.00696 14.892 5.39219 16.2665 6.152C17.3436 6.74743 18.3794 7.57266 19.3452 8.60485ZM5.82087 15.3204C7.73022 17.3488 9.80262 18.3773 11.9805 18.3773C16.5095 18.3773 19.4665 13.8309 20.2347 12.5C19.9101 11.9375 19.1951 10.8003 18.1402 9.67961C16.2308 7.65122 14.1585 6.62274 11.9805 6.62274C7.45151 6.62278 4.49459 11.1691 3.72633 12.5C4.05112 13.0628 4.76617 14.1999 5.82087 15.3204ZM11.9805 9.18524C10.1563 9.18524 8.67213 10.6723 8.67213 12.5001C8.67213 14.3279 10.1563 15.8149 11.9805 15.8149C13.8048 15.8149 15.2889 14.3279 15.2889 12.5001C15.2889 10.6723 13.8048 9.18524 11.9805 9.18524ZM10.2848 12.5C10.2848 13.4369 11.0455 14.199 11.9805 14.199C12.9156 14.199 13.6762 13.4368 13.6762 12.5C13.6762 11.5632 12.9156 10.801 11.9805 10.801C11.0455 10.801 10.2848 11.5632 10.2848 12.5Z" fill="#212122"/>
<path d="M18.7279 6L5.29291 19.435" stroke="#212122" stroke-width="2" stroke-linecap="square"/>
</svg>
