<svg width="24" height="24" viewBox="0 0 24 24" fill="none" xmlns="http://www.w3.org/2000/svg">
<path fill-rule="evenodd" clip-rule="evenodd" d="M10.1616 2H13.8384C15.2976 2 16.4847 3.18715 16.4847 4.64633V5.67684H14.8689V4.64633C14.8689 4.07812 14.4066 3.61582 13.8384 3.61582H10.1616C9.59336 3.61582 9.13106 4.07809 9.13106 4.64633V5.67684H7.51527V4.64633C7.51527 3.18711 8.70242 2 10.1616 2ZM8.31513 7.29262C7.87266 7.28831 7.51527 6.92826 7.51527 6.48477V5.67684H5.56555H3.72711C3.28094 5.67684 2.91922 6.03855 2.91922 6.48473C2.91922 6.9309 3.28094 7.29262 3.72711 7.29262H4.75766V19.3537C4.75766 20.8129 5.94477 22 7.40399 22H16.5961C18.0553 22 19.2424 20.8129 19.2424 19.3537V7.29262H20.2729C20.7191 7.29262 21.0808 6.9309 21.0808 6.48473C21.0808 6.03855 20.7191 5.67684 20.2729 5.67684H18.4345H16.4847V6.48477C16.4847 6.92826 16.1273 7.28831 15.6848 7.29262H15.6688C15.2263 7.28831 14.8689 6.92826 14.8689 6.48477V5.67684H9.13106V6.48477C9.13106 6.92826 8.77367 7.28831 8.3312 7.29262H8.31513ZM6.37344 7.29262V6.48473C6.37344 6.03855 6.01172 5.67684 5.56555 5.67684C5.11938 5.67684 4.75766 6.03855 4.75766 6.48473V7.29262H6.37344ZM17.6266 7.29262H19.2424V6.48473C19.2424 6.03855 18.8807 5.67684 18.4345 5.67684C17.9882 5.67684 17.6266 6.03855 17.6266 6.48473V7.29262ZM17.6266 7.29262V19.3537C17.6266 19.9219 17.1643 20.3842 16.5961 20.3842H7.40395C6.8357 20.3842 6.37344 19.9219 6.37344 19.3537V7.29262H8.31513L8.32316 7.29266L8.3312 7.29262H15.6688L15.6768 7.29266L15.6848 7.29262H17.6266ZM10.1616 10.2729C9.71539 10.2729 9.35367 10.6346 9.35367 11.0808V16.5961C9.35367 17.0423 9.71539 17.4039 10.1616 17.4039C10.6077 17.4039 10.9695 17.0423 10.9695 16.5961V11.0808C10.9695 10.6346 10.6078 10.2729 10.1616 10.2729ZM13.0305 11.0808C13.0305 10.6346 13.3922 10.2729 13.8384 10.2729C14.2846 10.2729 14.6463 10.6346 14.6463 11.0808V16.5961C14.6463 17.0423 14.2846 17.4039 13.8384 17.4039C13.3922 17.4039 13.0305 17.0423 13.0305 16.5961V11.0808Z" fill="#212122"/>
<mask id="mask0" mask-type="alpha" maskUnits="userSpaceOnUse" x="2" y="2" width="20" height="20">
<path fill-rule="evenodd" clip-rule="evenodd" d="M10.1616 2H13.8384C15.2976 2 16.4847 3.18715 16.4847 4.64633V5.67684H14.8689V4.64633C14.8689 4.07812 14.4066 3.61582 13.8384 3.61582H10.1616C9.59336 3.61582 9.13106 4.07809 9.13106 4.64633V5.67684H7.51527V4.64633C7.51527 3.18711 8.70242 2 10.1616 2ZM8.31513 7.29262C7.87266 7.28831 7.51527 6.92826 7.51527 6.48477V5.67684H5.56555H3.72711C3.28094 5.67684 2.91922 6.03855 2.91922 6.48473C2.91922 6.9309 3.28094 7.29262 3.72711 7.29262H4.75766V19.3537C4.75766 20.8129 5.94477 22 7.40399 22H16.5961C18.0553 22 19.2424 20.8129 19.2424 19.3537V7.29262H20.2729C20.7191 7.29262 21.0808 6.9309 21.0808 6.48473C21.0808 6.03855 20.7191 5.67684 20.2729 5.67684H18.4345H16.4847V6.48477C16.4847 6.92826 16.1273 7.28831 15.6848 7.29262H15.6688C15.2263 7.28831 14.8689 6.92826 14.8689 6.48477V5.67684H9.13106V6.48477C9.13106 6.92826 8.77367 7.28831 8.3312 7.29262H8.31513ZM6.37344 7.29262V6.48473C6.37344 6.03855 6.01172 5.67684 5.56555 5.67684C5.11938 5.67684 4.75766 6.03855 4.75766 6.48473V7.29262H6.37344ZM17.6266 7.29262H19.2424V6.48473C19.2424 6.03855 18.8807 5.67684 18.4345 5.67684C17.9882 5.67684 17.6266 6.03855 17.6266 6.48473V7.29262ZM17.6266 7.29262V19.3537C17.6266 19.9219 17.1643 20.3842 16.5961 20.3842H7.40395C6.8357 20.3842 6.37344 19.9219 6.37344 19.3537V7.29262H8.31513L8.32316 7.29266L8.3312 7.29262H15.6688L15.6768 7.29266L15.6848 7.29262H17.6266ZM10.1616 10.2729C9.71539 10.2729 9.35367 10.6346 9.35367 11.0808V16.5961C9.35367 17.0423 9.71539 17.4039 10.1616 17.4039C10.6077 17.4039 10.9695 17.0423 10.9695 16.5961V11.0808C10.9695 10.6346 10.6078 10.2729 10.1616 10.2729ZM13.0305 11.0808C13.0305 10.6346 13.3922 10.2729 13.8384 10.2729C14.2846 10.2729 14.6463 10.6346 14.6463 11.0808V16.5961C14.6463 17.0423 14.2846 17.4039 13.8384 17.4039C13.3922 17.4039 13.0305 17.0423 13.0305 16.5961V11.0808Z" fill="white"/>
</mask>
<g mask="url(#mask0)">
</g>
</svg>
