<svg width="24" height="24" viewBox="0 0 24 24" fill="none" xmlns="http://www.w3.org/2000/svg">
<path fill-rule="evenodd" clip-rule="evenodd" d="M16.8527 6.16715C16.6979 5.12309 16.2215 4.17672 15.4751 3.43035C14.7288 2.68398 13.7824 2.2077 12.7383 2.05285C12.263 1.98238 11.781 1.98238 11.3057 2.05285C8.64203 2.44785 6.79637 4.93621 7.19133 7.59984C7.38266 8.89016 8.06504 10.0288 9.11273 10.8058C9.96328 11.4367 10.9718 11.768 12.0117 11.768C12.2527 11.768 12.4955 11.7502 12.7383 11.7141C15.402 11.3191 17.2476 8.83078 16.8527 6.16715ZM11.9779 14.2709C6.38281 14.2709 2 16.8635 2 20.1732V21.1921C2 21.6383 2.36172 22 2.80789 22C3.25406 22 3.61578 21.6383 3.61578 21.1921V20.1732C3.61578 17.8496 7.44516 15.8866 11.9779 15.8866C16.5107 15.8866 20.3401 17.8496 20.3401 20.1732V21.1921C20.3401 21.6383 20.7018 22 21.148 22C21.5942 22 21.9559 21.6383 21.9559 21.1921V20.1732C21.9559 16.8635 17.573 14.2709 11.9779 14.2709ZM10.0754 9.50805C10.7764 10.028 11.6381 10.2439 12.5013 10.1158C14.2836 9.85156 15.5186 8.18652 15.2545 6.40422C15.0418 4.9702 13.9355 3.86383 12.5014 3.65117C12.3424 3.62762 12.1823 3.61582 12.0221 3.61582C11.862 3.61582 11.7018 3.62762 11.5428 3.65117C9.76047 3.91547 8.52547 5.58051 8.78977 7.36285C8.91777 8.22621 9.37434 8.98809 10.0754 9.50805Z" fill="#212122"/>
<mask id="mask0" mask-type="alpha" maskUnits="userSpaceOnUse" x="2" y="2" width="20" height="20">
<path fill-rule="evenodd" clip-rule="evenodd" d="M16.8527 6.16715C16.6979 5.12309 16.2215 4.17672 15.4751 3.43035C14.7288 2.68398 13.7824 2.2077 12.7383 2.05285C12.263 1.98238 11.781 1.98238 11.3057 2.05285C8.64203 2.44785 6.79637 4.93621 7.19133 7.59984C7.38266 8.89016 8.06504 10.0288 9.11273 10.8058C9.96328 11.4367 10.9718 11.768 12.0117 11.768C12.2527 11.768 12.4955 11.7502 12.7383 11.7141C15.402 11.3191 17.2476 8.83078 16.8527 6.16715ZM11.9779 14.2709C6.38281 14.2709 2 16.8635 2 20.1732V21.1921C2 21.6383 2.36172 22 2.80789 22C3.25406 22 3.61578 21.6383 3.61578 21.1921V20.1732C3.61578 17.8496 7.44516 15.8866 11.9779 15.8866C16.5107 15.8866 20.3401 17.8496 20.3401 20.1732V21.1921C20.3401 21.6383 20.7018 22 21.148 22C21.5942 22 21.9559 21.6383 21.9559 21.1921V20.1732C21.9559 16.8635 17.573 14.2709 11.9779 14.2709ZM10.0754 9.50805C10.7764 10.028 11.6381 10.2439 12.5013 10.1158C14.2836 9.85156 15.5186 8.18652 15.2545 6.40422C15.0418 4.9702 13.9355 3.86383 12.5014 3.65117C12.3424 3.62762 12.1823 3.61582 12.0221 3.61582C11.862 3.61582 11.7018 3.62762 11.5428 3.65117C9.76047 3.91547 8.52547 5.58051 8.78977 7.36285C8.91777 8.22621 9.37434 8.98809 10.0754 9.50805Z" fill="white"/>
</mask>
<g mask="url(#mask0)">
</g>
</svg>
