<svg width="24" height="24" viewBox="0 0 24 24" fill="none" xmlns="http://www.w3.org/2000/svg">
<path d="M2.1825 10.335L11.3492 4.08495C11.5395 3.95562 11.7987 4.00507 11.928 4.19542C11.9748 4.26437 11.9999 4.34577 12 4.42913V8.18745C18.4083 8.45245 21.9167 14.7941 22 19.4083V19.4291C22 19.6593 21.8134 19.8458 21.5833 19.8458C21.3558 19.8459 21.1703 19.6633 21.1666 19.4358V19.4116C21.12 18.2925 16.74 13.465 12 13.1916V16.9291C11.9997 17.1593 11.813 17.3456 11.5829 17.3453C11.4995 17.3453 11.4181 17.3201 11.3491 17.2733L2.18246 11.0233C1.99238 10.8936 1.94344 10.6344 2.07316 10.4443C2.1025 10.4014 2.13957 10.3643 2.1825 10.335Z" fill="#212122"/>
</svg>
