<svg width="24" height="24" viewBox="0 0 24 24" fill="none" xmlns="http://www.w3.org/2000/svg">
<path d="M8.25 3.66668H6.58332C6.3532 3.66668 6.16664 3.48012 6.16664 3.25C6.16664 3.01988 6.3532 2.83332 6.58332 2.83332H8.25C8.48012 2.83332 8.66668 3.01988 8.66668 3.25C8.66668 3.48012 8.48012 3.66668 8.25 3.66668Z" fill="#212122"/>
<path d="M12.8333 3.66668H11.1666C10.9366 3.66668 10.75 3.48012 10.75 3.25C10.75 3.01988 10.9366 2.83332 11.1667 2.83332H12.8334C13.0634 2.83332 13.25 3.01988 13.25 3.25C13.25 3.48012 13.0634 3.66668 12.8333 3.66668Z" fill="#212122"/>
<path d="M17.4167 3.66668H15.75C15.5199 3.66668 15.3333 3.48012 15.3333 3.25C15.3333 3.01988 15.5199 2.83332 15.75 2.83332H17.4167C17.6468 2.83332 17.8334 3.01988 17.8334 3.25C17.8334 3.48012 17.6468 3.66668 17.4167 3.66668Z" fill="#212122"/>
<path d="M8.25 21.1667H6.58332C6.3532 21.1667 6.16664 20.9801 6.16664 20.75C6.16664 20.5199 6.3532 20.3333 6.58332 20.3333H8.25C8.48012 20.3333 8.66668 20.5199 8.66668 20.75C8.66668 20.9801 8.48012 21.1667 8.25 21.1667Z" fill="#212122"/>
<path d="M12.8333 21.1667H11.1666C10.9365 21.1667 10.75 20.9801 10.75 20.75C10.75 20.5199 10.9365 20.3333 11.1666 20.3333H12.8333C13.0634 20.3333 13.25 20.5199 13.25 20.75C13.25 20.9801 13.0634 21.1667 12.8333 21.1667Z" fill="#212122"/>
<path d="M17.4167 21.1667H15.75C15.5199 21.1667 15.3333 20.9801 15.3333 20.75C15.3333 20.5199 15.5199 20.3333 15.75 20.3333H17.4167C17.6468 20.3333 17.8334 20.5199 17.8334 20.75C17.8333 20.9801 17.6468 21.1667 17.4167 21.1667Z" fill="#212122"/>
<path d="M3.25 17.8333C3.01988 17.8333 2.83332 17.6468 2.83332 17.4166V15.75C2.83332 15.5199 3.01988 15.3333 3.25 15.3333C3.48012 15.3333 3.66668 15.5199 3.66668 15.75V17.4167C3.66668 17.6468 3.48012 17.8333 3.25 17.8333Z" fill="#212122"/>
<path d="M3.25 13.25C3.01988 13.25 2.83332 13.0634 2.83332 12.8333V11.1666C2.83332 10.9366 3.01988 10.75 3.25 10.75C3.48012 10.75 3.66668 10.9366 3.66668 11.1667V12.8334C3.66668 13.0634 3.48012 13.25 3.25 13.25Z" fill="#212122"/>
<path d="M3.25 8.66668C3.01988 8.66668 2.83332 8.48012 2.83332 8.25V6.58332C2.83332 6.3532 3.01988 6.16664 3.25 6.16664C3.48012 6.16664 3.66668 6.3532 3.66668 6.58332V8.25C3.66668 8.48012 3.48012 8.66668 3.25 8.66668Z" fill="#212122"/>
<path d="M20.75 17.8333C20.5199 17.8333 20.3333 17.6468 20.3333 17.4166V15.75C20.3333 15.5199 20.5199 15.3333 20.75 15.3333C20.9801 15.3333 21.1667 15.5199 21.1667 15.75V17.4167C21.1667 17.6468 20.9801 17.8333 20.75 17.8333Z" fill="#212122"/>
<path d="M20.75 13.25C20.5199 13.25 20.3333 13.0634 20.3333 12.8333V11.1666C20.3333 10.9365 20.5199 10.75 20.75 10.75C20.9801 10.75 21.1667 10.9365 21.1667 11.1666V12.8333C21.1667 13.0634 20.9801 13.25 20.75 13.25Z" fill="#212122"/>
<path d="M20.75 8.66668C20.5199 8.66668 20.3333 8.48012 20.3333 8.25V6.58332C20.3333 6.3532 20.5199 6.16664 20.75 6.16664C20.9801 6.16664 21.1667 6.3532 21.1667 6.58332V8.25C21.1667 8.48012 20.9801 8.66668 20.75 8.66668Z" fill="#212122"/>
<path fill-rule="evenodd" clip-rule="evenodd" d="M19.9166 4.5H21.5833C21.8134 4.5 22 4.31344 22 4.08336V2.41668C22 2.18656 21.8134 2 21.5834 2H19.9167C19.6866 2 19.5 2.18656 19.5 2.41668V4.08332C19.5 4.31344 19.6866 4.5 19.9166 4.5ZM21.1666 3.66668H20.3333V2.83332H21.1666V3.66668Z" fill="#212122"/>
<path fill-rule="evenodd" clip-rule="evenodd" d="M2.41668 4.5H4.08332C4.31344 4.5 4.5 4.31344 4.5 4.08336V2.41668C4.5 2.18656 4.31344 2 4.08336 2H2.41668C2.18656 2 2 2.18656 2 2.41668V4.08332C2 4.31344 2.18656 4.5 2.41668 4.5ZM3.66664 3.66668H2.83332V2.83332H3.66664V3.66668Z" fill="#212122"/>
<path fill-rule="evenodd" clip-rule="evenodd" d="M19.9166 22H21.5833C21.8134 22 22 21.8134 22 21.5833V19.9166C22 19.6865 21.8134 19.5 21.5833 19.5H19.9166C19.6865 19.5 19.5 19.6865 19.5 19.9166V21.5833C19.5 21.8134 19.6865 22 19.9166 22ZM21.1666 21.1667H20.3333V20.3334H21.1666V21.1667Z" fill="#212122"/>
<path fill-rule="evenodd" clip-rule="evenodd" d="M2.41668 22H4.08332C4.31344 22 4.5 21.8134 4.5 21.5834V19.9167C4.5 19.6866 4.31344 19.5 4.08336 19.5H2.41668C2.18656 19.5 2 19.6866 2 19.9166V21.5833C2 21.8134 2.18656 22 2.41668 22ZM3.66664 21.1667H2.83332V20.3334H3.66664V21.1667Z" fill="#212122"/>
<path d="M16.1306 9.10505C15.9388 9.10505 15.7833 8.94958 15.7833 8.75782V7.71615H8.14443V8.75782C8.14443 8.94958 7.98896 9.10505 7.7972 9.10505C7.60543 9.10505 7.45 8.94958 7.45 8.75782V7.36892C7.45 7.17715 7.60547 7.02168 7.79723 7.02168H16.1306C16.3223 7.02168 16.4778 7.17715 16.4778 7.36892V8.75782C16.4778 8.94958 16.3223 9.10505 16.1306 9.10505Z" fill="#212122" stroke="#212122"/>
<path d="M11.9639 16.7439C11.7721 16.7439 11.6167 16.5884 11.6167 16.3967V7.36892C11.6167 7.17715 11.7721 7.02168 11.9639 7.02168C12.1557 7.02168 12.3111 7.17715 12.3111 7.36892V16.3967C12.3111 16.5885 12.1557 16.7439 11.9639 16.7439Z" fill="#212122" stroke="#212122"/>
<path d="M13.3528 16.7439H10.575C10.3832 16.7439 10.2278 16.5885 10.2278 16.3967C10.2278 16.2049 10.3832 16.0495 10.575 16.0495H13.3528C13.5445 16.0495 13.7 16.2049 13.7 16.3967C13.7 16.5885 13.5445 16.7439 13.3528 16.7439Z" fill="#212122" stroke="#212122"/>
</svg>
