<svg width="24" height="24" viewBox="0 0 24 24" fill="none" xmlns="http://www.w3.org/2000/svg">
<path fill-rule="evenodd" clip-rule="evenodd" d="M20.7689 8.60465L12.496 2.17019C12.2043 1.94332 11.7957 1.94328 11.504 2.17019L3.2311 8.60465C3.0343 8.75769 2.91918 8.99305 2.91918 9.24234V19.3537C2.91918 20.8128 4.10633 22 5.56551 22H14.7558C14.3104 21.999 13.9497 21.6377 13.9497 21.1921V20.3842H15.5655V21.1921C15.5654 21.6377 15.2047 21.999 14.7593 22H18.4345C19.8937 22 21.0808 20.8128 21.0808 19.3537V9.24234C21.0808 8.99305 20.9657 8.75773 20.7689 8.60465ZM8.43446 20.3842H5.56551C4.99727 20.3842 4.535 19.9219 4.535 19.3537V9.63746L12 3.83137L19.465 9.63746V19.3537C19.465 19.9219 19.0027 20.3842 18.4345 20.3842H15.5655V12C15.5655 11.5538 15.2038 11.1921 14.7576 11.1921H9.24235C8.79617 11.1921 8.43446 11.5538 8.43446 12V20.3842ZM8.43446 20.3842H10.0502V21.1921C10.0502 21.6383 9.68852 22 9.24235 22C8.79617 22 8.43446 21.6383 8.43446 21.1921V20.3842ZM10.0502 20.3842V12.8079H13.9497V20.3842H10.0502Z" fill="#212122"/>
<mask id="mask0" mask-type="alpha" maskUnits="userSpaceOnUse" x="2" y="2" width="20" height="20">
<path fill-rule="evenodd" clip-rule="evenodd" d="M20.7689 8.60465L12.496 2.17019C12.2043 1.94332 11.7957 1.94328 11.504 2.17019L3.2311 8.60465C3.0343 8.75769 2.91918 8.99305 2.91918 9.24234V19.3537C2.91918 20.8128 4.10633 22 5.56551 22H14.7558C14.3104 21.999 13.9497 21.6377 13.9497 21.1921V20.3842H15.5655V21.1921C15.5654 21.6377 15.2047 21.999 14.7593 22H18.4345C19.8937 22 21.0808 20.8128 21.0808 19.3537V9.24234C21.0808 8.99305 20.9657 8.75773 20.7689 8.60465ZM8.43446 20.3842H5.56551C4.99727 20.3842 4.535 19.9219 4.535 19.3537V9.63746L12 3.83137L19.465 9.63746V19.3537C19.465 19.9219 19.0027 20.3842 18.4345 20.3842H15.5655V12C15.5655 11.5538 15.2038 11.1921 14.7576 11.1921H9.24235C8.79617 11.1921 8.43446 11.5538 8.43446 12V20.3842ZM8.43446 20.3842H10.0502V21.1921C10.0502 21.6383 9.68852 22 9.24235 22C8.79617 22 8.43446 21.6383 8.43446 21.1921V20.3842ZM10.0502 20.3842V12.8079H13.9497V20.3842H10.0502Z" fill="white"/>
</mask>
<g mask="url(#mask0)">
</g>
</svg>
