<svg width="24" height="24" viewBox="0 0 24 24" fill="none" xmlns="http://www.w3.org/2000/svg">
<path d="M19 9C19 8.17157 18.3284 7.5 17.5 7.5H11.5C10.6716 7.5 10 8.17157 10 9C10 9.82843 10.6716 10.5 11.5 10.5H17.5C18.3284 10.5 19 9.82843 19 9Z" fill="black"/>
<path d="M22 3C22 2.17157 21.3284 1.5 20.5 1.5H11.5C10.6716 1.5 10 2.17157 10 3C10 3.82843 10.6716 4.5 11.5 4.5H20.5C21.3284 4.5 22 3.82843 22 3Z" fill="black"/>
<path d="M19 21C19 20.1716 18.3284 19.5 17.5 19.5H11.5C10.6716 19.5 10 20.1716 10 21C10 21.8284 10.6716 22.5 11.5 22.5H17.5C18.3284 22.5 19 21.8284 19 21Z" fill="black"/>
<path d="M22 15C22 14.1716 21.3284 13.5 20.5 13.5H11.5C10.6716 13.5 10 14.1716 10 15C10 15.8284 10.6716 16.5 11.5 16.5H20.5C21.3284 16.5 22 15.8284 22 15Z" fill="black"/>
<path d="M6.91951 11.7517C6.87331 11.6858 6.80864 11.6299 6.73249 11.5899C6.73218 11.5897 6.73188 11.5896 6.73157 11.5894L2.84065 9.56775C2.84029 9.56757 2.83992 9.56737 2.83956 9.56719C2.57585 9.43185 2.2341 9.50745 2.07775 9.73569C2.02691 9.80991 2.00001 9.89475 2 9.98103C2 9.98105 2 9.98106 2 9.98107V14.0189C2.00005 14.2842 2.24945 14.5 2.556 14.5C2.55602 14.5 2.55607 14.5 2.55609 14.5C2.6558 14.5 2.75382 14.4767 2.83957 14.4327C2.83989 14.4325 2.84021 14.4324 2.84053 14.4322L6.73146 12.4133C6.73181 12.4131 6.73216 12.413 6.73251 12.4128C6.99461 12.2752 7.07851 11.9786 6.91951 11.7517Z" fill="black"/>
<mask id="mask0" mask-type="alpha" maskUnits="userSpaceOnUse" x="2" y="9" width="5" height="6">
<path d="M6.91951 11.7517C6.87331 11.6858 6.80864 11.6299 6.73249 11.5899C6.73218 11.5897 6.73188 11.5896 6.73157 11.5894L2.84065 9.56775C2.84029 9.56757 2.83992 9.56737 2.83956 9.56719C2.57585 9.43185 2.2341 9.50745 2.07775 9.73569C2.02691 9.80991 2.00001 9.89475 2 9.98103C2 9.98105 2 9.98106 2 9.98107V14.0189C2.00005 14.2842 2.24945 14.5 2.556 14.5C2.55602 14.5 2.55607 14.5 2.55609 14.5C2.6558 14.5 2.75382 14.4767 2.83957 14.4327C2.83989 14.4325 2.84021 14.4324 2.84053 14.4322L6.73146 12.4133C6.73181 12.4131 6.73216 12.413 6.73251 12.4128C6.99461 12.2752 7.07851 11.9786 6.91951 11.7517Z" fill="white"/>
</mask>
<g mask="url(#mask0)">
</g>
</svg>
