<svg width="24" height="24" viewBox="0 0 24 24" fill="none" xmlns="http://www.w3.org/2000/svg">
<path fill-rule="evenodd" clip-rule="evenodd" d="M11.4338 18.0342H9.32442V12.2422H3.40059V18.0342H1.3V5.18457H3.40059V10.4404H9.32442V5.18457H11.4338V18.0342ZM22.6223 18.0342H13.9123V16.4697L17.2258 13.1387C18.2043 12.1367 18.8532 11.4263 19.1726 11.0073C19.4919 10.5884 19.7248 10.1943 19.8713 9.8252C20.0178 9.45605 20.091 9.06055 20.091 8.63867C20.091 8.05859 19.9167 7.60156 19.5681 7.26758C19.2194 6.93359 18.7375 6.7666 18.1223 6.7666C17.6301 6.7666 17.154 6.85742 16.694 7.03906C16.2341 7.2207 15.7023 7.54883 15.0988 8.02344L13.9826 6.66113C14.6975 6.05761 15.3918 5.62988 16.0656 5.37793C16.7395 5.12598 17.4572 5 18.2189 5C19.4143 5 20.3723 5.31201 21.093 5.93604C21.8137 6.56006 22.174 7.39941 22.174 8.4541C22.174 9.03418 22.07 9.58496 21.862 10.1064C21.654 10.6279 21.3347 11.1655 20.904 11.7192C20.4733 12.273 19.757 13.0215 18.7551 13.9648L16.5227 16.127V16.2148H22.6223V18.0342Z" fill="#212122"/>
</svg>
