<svg width="24" height="24" viewBox="0 0 24 24" fill="none" xmlns="http://www.w3.org/2000/svg">
<path fill-rule="evenodd" clip-rule="evenodd" d="M11.5338 17.8496H9.42441V12.0576H3.50058V17.8496H1.39999V5H3.50058V10.2559H9.42441V5H11.5338V17.8496ZM18.3717 9.8252C19.6666 9.8252 20.692 10.168 21.4478 10.8535C22.2037 11.5391 22.5816 12.4736 22.5816 13.6572C22.5816 15.0283 22.1524 16.0991 21.294 16.8696C20.4356 17.6401 19.2154 18.0254 17.6334 18.0254C16.1978 18.0254 15.0699 17.7939 14.2496 17.3311V15.459C14.7242 15.7285 15.2691 15.9365 15.8844 16.083C16.4996 16.2295 17.0709 16.3027 17.5982 16.3027C18.5299 16.3027 19.2389 16.0947 19.7252 15.6787C20.2115 15.2627 20.4547 14.6533 20.4547 13.8506C20.4547 12.3154 19.4762 11.5479 17.5191 11.5479C17.2437 11.5479 16.9039 11.5757 16.4996 11.6313C16.0953 11.687 15.7408 11.75 15.4361 11.8203L14.5133 11.2754L15.0055 5H21.6852V6.83691H16.8248L16.5348 10.0186C16.7398 9.9834 16.9903 9.94238 17.2862 9.89551C17.5821 9.84863 17.9439 9.8252 18.3717 9.8252Z" fill="#212122"/>
</svg>
