<svg width="24" height="24" viewBox="0 0 24 24" fill="none" xmlns="http://www.w3.org/2000/svg">
<path d="M10 9C10 8.17157 10.6716 7.5 11.5 7.5H17.5C18.3284 7.5 19 8.17157 19 9C19 9.82843 18.3284 10.5 17.5 10.5H11.5C10.6716 10.5 10 9.82843 10 9Z" fill="black"/>
<path d="M10 3C10 2.17157 10.6716 1.5 11.5 1.5H20.5C21.3284 1.5 22 2.17157 22 3C22 3.82843 21.3284 4.5 20.5 4.5H11.5C10.6716 4.5 10 3.82843 10 3Z" fill="black"/>
<path d="M10 21C10 20.1716 10.6716 19.5 11.5 19.5H17.5C18.3284 19.5 19 20.1716 19 21C19 21.8284 18.3284 22.5 17.5 22.5H11.5C10.6716 22.5 10 21.8284 10 21Z" fill="black"/>
<path d="M10 15C10 14.1716 10.6716 13.5 11.5 13.5H20.5C21.3284 13.5 22 14.1716 22 15C22 15.8284 21.3284 16.5 20.5 16.5H11.5C10.6716 16.5 10 15.8284 10 15Z" fill="black"/>
<path d="M2.08049 11.7517C2.12669 11.6858 2.19136 11.6299 2.26751 11.5899C2.26782 11.5897 2.26812 11.5896 2.26843 11.5894L6.15935 9.56775C6.15971 9.56757 6.16008 9.56737 6.16044 9.56719C6.42415 9.43185 6.7659 9.50745 6.92225 9.73569C6.97309 9.80991 6.99999 9.89475 7 9.98103C7 9.98105 7 9.98106 7 9.98107V14.0189C6.99995 14.2842 6.75055 14.5 6.444 14.5C6.44398 14.5 6.44393 14.5 6.44391 14.5C6.3442 14.5 6.24618 14.4767 6.16043 14.4327C6.16011 14.4325 6.15979 14.4324 6.15947 14.4322L2.26854 12.4133C2.26819 12.4131 2.26784 12.413 2.26749 12.4128C2.00539 12.2752 1.92149 11.9786 2.08049 11.7517Z" fill="black"/>
<mask id="mask0" mask-type="alpha" maskUnits="userSpaceOnUse" x="2" y="9" width="5" height="6">
<path d="M2.08049 11.7517C2.12669 11.6858 2.19136 11.6299 2.26751 11.5899C2.26782 11.5897 2.26812 11.5896 2.26843 11.5894L6.15935 9.56775C6.15971 9.56757 6.16008 9.56737 6.16044 9.56719C6.42415 9.43185 6.7659 9.50745 6.92225 9.73569C6.97309 9.80991 6.99999 9.89475 7 9.98103C7 9.98105 7 9.98106 7 9.98107V14.0189C6.99995 14.2842 6.75055 14.5 6.444 14.5C6.44398 14.5 6.44393 14.5 6.44391 14.5C6.3442 14.5 6.24618 14.4767 6.16043 14.4327C6.16011 14.4325 6.15979 14.4324 6.15947 14.4322L2.26854 12.4133C2.26819 12.4131 2.26784 12.413 2.26749 12.4128C2.00539 12.2752 1.92149 11.9786 2.08049 11.7517Z" fill="white"/>
</mask>
<g mask="url(#mask0)">
</g>
</svg>
