<svg width="24" height="24" viewBox="0 0 24 24" fill="none" xmlns="http://www.w3.org/2000/svg">
<path fill-rule="evenodd" clip-rule="evenodd" d="M2 17.7711V8.95988C2 7.68425 3.04082 6.64092 4.32245 6.64092H7.56735L7.6449 6.30265C7.96327 4.94551 9.15918 4 10.551 4H13.4449C14.8408 4 16.0367 4.94551 16.351 6.30265L16.4286 6.64092H19.6776C20.9592 6.64092 22 7.68017 22 8.95988V17.7711C22 19.116 20.9061 20.2082 19.5592 20.2082H4.44082C3.09388 20.2082 2 19.116 2 17.7711ZM8.45306 7.25225C8.4 7.48047 8.2 7.63942 7.96735 7.63942H4.32245C3.59184 7.63942 3 8.23036 3 8.95988V17.7711C3 18.5658 3.6449 19.2097 4.44082 19.2097H19.5551C20.351 19.2097 20.9959 18.5658 20.9959 17.7711V8.95988C20.9959 8.23036 20.4041 7.63942 19.6735 7.63942H16.0286C15.7959 7.63942 15.5959 7.4764 15.5429 7.25225L15.3755 6.52681C15.1633 5.62612 14.3714 4.9985 13.4449 4.9985H10.551C9.62449 4.9985 8.83265 5.62612 8.62041 6.52681L8.45306 7.25225ZM12 17.6448C14.3143 17.6448 16.2 15.7619 16.2 13.4511C16.2 11.1403 14.3143 9.25739 12 9.25739C9.68571 9.25739 7.8 11.1362 7.8 13.4511C7.8 15.766 9.68571 17.6448 12 17.6448ZM15.2 13.4511C15.2 11.6905 13.7633 10.2559 12 10.2559C10.2367 10.2559 8.8 11.6905 8.8 13.4511C8.8 15.2117 10.2367 16.6463 12 16.6463C13.7633 16.6463 15.2 15.2117 15.2 13.4511Z" fill="#212122"/>
<path d="M7.56735 6.64092V6.89092H7.76652L7.81103 6.69679L7.56735 6.64092ZM7.6449 6.30265L7.4015 6.24556L7.40122 6.24679L7.6449 6.30265ZM16.351 6.30265L16.5947 6.24679L16.5946 6.24625L16.351 6.30265ZM16.4286 6.64092L16.1849 6.69679L16.2294 6.89092H16.4286V6.64092ZM8.45306 7.25225L8.69657 7.30886L8.69666 7.30844L8.45306 7.25225ZM15.5429 7.25225L15.2993 7.30844L15.2996 7.30983L15.5429 7.25225ZM15.3755 6.52681L15.6191 6.47061L15.6188 6.46947L15.3755 6.52681ZM8.62041 6.52681L8.37707 6.46947L8.37681 6.47061L8.62041 6.52681ZM1.75 8.95988V17.7711H2.25V8.95988H1.75ZM4.32245 6.39092C2.90281 6.39092 1.75 7.54611 1.75 8.95988H2.25C2.25 7.82239 3.17882 6.89092 4.32245 6.89092V6.39092ZM7.56735 6.39092H4.32245V6.89092H7.56735V6.39092ZM7.40122 6.24679L7.32367 6.58506L7.81103 6.69679L7.88858 6.35852L7.40122 6.24679ZM10.551 3.75C9.0433 3.75 7.74643 4.77523 7.40151 6.24556L7.88829 6.35975C8.18011 5.1158 9.27507 4.25 10.551 4.25V3.75ZM13.4449 3.75H10.551V4.25H13.4449V3.75ZM16.5946 6.24625C16.2539 4.775 14.9564 3.75 13.4449 3.75V4.25C14.7253 4.25 15.8196 5.11603 16.1075 6.35906L16.5946 6.24625ZM16.6722 6.58506L16.5947 6.24679L16.1073 6.35852L16.1849 6.69679L16.6722 6.58506ZM19.6776 6.39092H16.4286V6.89092H19.6776V6.39092ZM22.25 8.95988C22.25 7.54175 21.0969 6.39092 19.6776 6.39092V6.89092C20.8215 6.89092 21.75 7.8186 21.75 8.95988H22.25ZM22.25 17.7711V8.95988H21.75V17.7711H22.25ZM19.5592 20.4582C21.0438 20.4582 22.25 19.2544 22.25 17.7711H21.75C21.75 18.9776 20.7684 19.9582 19.5592 19.9582V20.4582ZM4.44082 20.4582H19.5592V19.9582H4.44082V20.4582ZM1.75 17.7711C1.75 19.2544 2.95616 20.4582 4.44082 20.4582V19.9582C3.23159 19.9582 2.25 18.9776 2.25 17.7711H1.75ZM7.96735 7.88942C8.31685 7.88942 8.61731 7.64976 8.69657 7.30886L8.20956 7.19563C8.18269 7.31119 8.08316 7.38942 7.96735 7.38942V7.88942ZM4.32245 7.88942H7.96735V7.38942H4.32245V7.88942ZM3.25 8.95988C3.25 8.36879 3.72955 7.88942 4.32245 7.88942V7.38942C3.45412 7.38942 2.75 8.09194 2.75 8.95988H3.25ZM3.25 17.7711V8.95988H2.75V17.7711H3.25ZM4.44082 18.9597C3.78261 18.9597 3.25 18.4274 3.25 17.7711H2.75C2.75 18.7042 3.50718 19.4597 4.44082 19.4597V18.9597ZM19.5551 18.9597H4.44082V19.4597H19.5551V18.9597ZM20.7459 17.7711C20.7459 18.4274 20.2133 18.9597 19.5551 18.9597V19.4597C20.4887 19.4597 21.2459 18.7042 21.2459 17.7711H20.7459ZM20.7459 8.95988V17.7711H21.2459V8.95988H20.7459ZM19.6735 7.88942C20.2664 7.88942 20.7459 8.36879 20.7459 8.95988H21.2459C21.2459 8.09194 20.5418 7.38942 19.6735 7.38942V7.88942ZM16.0286 7.88942H19.6735V7.38942H16.0286V7.88942ZM15.2996 7.30983C15.3786 7.64385 15.6771 7.88942 16.0286 7.88942V7.38942C15.9148 7.38942 15.8132 7.30895 15.7861 7.19466L15.2996 7.30983ZM15.1319 6.583L15.2993 7.30844L15.7865 7.19605L15.6191 6.47061L15.1319 6.583ZM13.4449 5.2485C14.2554 5.2485 14.9465 5.79631 15.1322 6.58415L15.6188 6.46947C15.38 5.45593 14.4875 4.7485 13.4449 4.7485V5.2485ZM10.551 5.2485H13.4449V4.7485H10.551V5.2485ZM8.86374 6.58415C9.0494 5.79631 9.74052 5.2485 10.551 5.2485V4.7485C9.50846 4.7485 8.61591 5.45593 8.37707 6.46947L8.86374 6.58415ZM8.69666 7.30844L8.86401 6.583L8.37681 6.47061L8.20946 7.19605L8.69666 7.30844ZM15.95 13.4511C15.95 15.6235 14.1766 17.3948 12 17.3948V17.8948C14.452 17.8948 16.45 15.9003 16.45 13.4511H15.95ZM12 9.50739C14.1766 9.50739 15.95 11.2787 15.95 13.4511H16.45C16.45 11.0018 14.452 9.00739 12 9.00739V9.50739ZM8.05 13.4511C8.05 11.2748 9.82327 9.50739 12 9.50739V9.00739C9.54816 9.00739 7.55 10.9976 7.55 13.4511H8.05ZM12 17.3948C9.82327 17.3948 8.05 15.6274 8.05 13.4511H7.55C7.55 15.9045 9.54816 17.8948 12 17.8948V17.3948ZM12 10.5059C13.6255 10.5059 14.95 11.8289 14.95 13.4511H15.45C15.45 11.552 13.901 10.0059 12 10.0059V10.5059ZM9.05 13.4511C9.05 11.8289 10.3745 10.5059 12 10.5059V10.0059C10.099 10.0059 8.55 11.552 8.55 13.4511H9.05ZM12 16.3963C10.3745 16.3963 9.05 15.0733 9.05 13.4511H8.55C8.55 15.3501 10.099 16.8963 12 16.8963V16.3963ZM14.95 13.4511C14.95 15.0733 13.6255 16.3963 12 16.3963V16.8963C13.901 16.8963 15.45 15.3501 15.45 13.4511H14.95Z" fill="#212122"/>
</svg>
