<svg width="24" height="24" viewBox="0 0 24 24" fill="none" xmlns="http://www.w3.org/2000/svg">
<path d="M14.0833 4.5C13.8532 4.5 13.6666 4.31344 13.6666 4.08332V2.83332H2.83332V4.08332C2.83332 4.31344 2.6468 4.5 2.41668 4.5C2.18656 4.5 2 4.31344 2 4.08332V2.41668C2 2.18656 2.18656 2 2.41668 2H14.0834C14.3134 2 14.5 2.18656 14.5 2.41668V4.08336C14.5 4.31344 14.3134 4.5 14.0833 4.5Z" fill="#212122" stroke="#212122"/>
<path d="M8.25 22C8.01988 22 7.83332 21.8134 7.83332 21.5833V2.41668C7.83332 2.18656 8.01988 2 8.25 2C8.48012 2 8.66668 2.18656 8.66668 2.41668V21.5834C8.66668 21.8134 8.48012 22 8.25 22Z" fill="#212122" stroke="#212122"/>
<path d="M21.5833 12.8333C21.3532 12.8333 21.1666 12.6468 21.1666 12.4166V12H15.3333V12.4167C15.3333 12.6468 15.1468 12.8334 14.9166 12.8334C14.6865 12.8334 14.5 12.6468 14.5 12.4167V11.5834C14.5 11.3532 14.6865 11.1667 14.9166 11.1667H21.5833C21.8134 11.1667 22 11.3532 22 11.5834V12.4167C22 12.6468 21.8134 12.8333 21.5833 12.8333Z" fill="#212122" stroke="#212122"/>
<path d="M18.25 22C18.0199 22 17.8333 21.8134 17.8333 21.5833V11.5833C17.8333 11.3532 18.0199 11.1666 18.25 11.1666C18.4801 11.1666 18.6667 11.3532 18.6667 11.5833V21.5833C18.6667 21.8134 18.4801 22 18.25 22Z" fill="#212122" stroke="#212122"/>
<path d="M9.91668 22H6.58336C6.35324 22 6.16668 21.8134 6.16668 21.5833C6.16668 21.3532 6.35324 21.1666 6.58336 21.1666H9.91668C10.1468 21.1666 10.3334 21.3532 10.3334 21.5833C10.3334 21.8134 10.1468 22 9.91668 22Z" fill="#212122" stroke="#212122"/>
<path d="M19.0833 22H17.4166C17.1865 22 17 21.8134 17 21.5833C17 21.3532 17.1865 21.1666 17.4166 21.1666H19.0833C19.3134 21.1666 19.5 21.3532 19.5 21.5833C19.5 21.8134 19.3134 22 19.0833 22Z" fill="#212122" stroke="#212122"/>
</svg>
