<svg width="24" height="24" viewBox="0 0 24 24" fill="none" xmlns="http://www.w3.org/2000/svg">
<path fill-rule="evenodd" clip-rule="evenodd" d="M12 2C14.6711 2 17.1823 3.0402 19.0711 4.92895C20.9598 6.81766 22 9.32891 22 12C22 14.6711 20.9598 17.1823 19.0711 19.0711C17.1823 20.9598 14.6711 22 12 22C9.32891 22 6.81766 20.9598 4.92895 19.0711C3.0402 17.1823 2 14.6711 2 12C2 9.32891 3.0402 6.81766 4.92895 4.92895C6.8177 3.04023 9.32891 2 12 2ZM3.61578 12C3.61578 16.623 7.37695 20.3842 12 20.3842C16.623 20.3842 20.3842 16.623 20.3842 12C20.3842 7.37695 16.623 3.61578 12 3.61578C7.37695 3.61578 3.61578 7.37695 3.61578 12ZM12 11.1921C11.5538 11.1921 11.1921 11.5538 11.1921 12V15.6768C11.1921 16.123 11.5538 16.4847 12 16.4847C12.4462 16.4847 12.8079 16.123 12.8079 15.6768V12C12.8079 11.5538 12.4462 11.1921 12 11.1921ZM12 7.51523C12.2126 7.51523 12.4208 7.60141 12.5713 7.75187C12.7217 7.90234 12.8079 8.11059 12.8079 8.32316C12.8079 8.53574 12.7218 8.74398 12.5713 8.89445C12.4208 9.04492 12.2126 9.13109 12 9.13109C11.7874 9.13109 11.5792 9.04488 11.4287 8.89445C11.2782 8.74398 11.1921 8.53574 11.1921 8.32316C11.1921 8.11059 11.2782 7.9023 11.4287 7.75187C11.5792 7.60141 11.7874 7.51523 12 7.51523Z" fill="#212122"/>
<mask id="mask0" mask-type="alpha" maskUnits="userSpaceOnUse" x="2" y="2" width="20" height="20">
<path fill-rule="evenodd" clip-rule="evenodd" d="M12 2C14.6711 2 17.1823 3.0402 19.0711 4.92895C20.9598 6.81766 22 9.32891 22 12C22 14.6711 20.9598 17.1823 19.0711 19.0711C17.1823 20.9598 14.6711 22 12 22C9.32891 22 6.81766 20.9598 4.92895 19.0711C3.0402 17.1823 2 14.6711 2 12C2 9.32891 3.0402 6.81766 4.92895 4.92895C6.8177 3.04023 9.32891 2 12 2ZM3.61578 12C3.61578 16.623 7.37695 20.3842 12 20.3842C16.623 20.3842 20.3842 16.623 20.3842 12C20.3842 7.37695 16.623 3.61578 12 3.61578C7.37695 3.61578 3.61578 7.37695 3.61578 12ZM12 11.1921C11.5538 11.1921 11.1921 11.5538 11.1921 12V15.6768C11.1921 16.123 11.5538 16.4847 12 16.4847C12.4462 16.4847 12.8079 16.123 12.8079 15.6768V12C12.8079 11.5538 12.4462 11.1921 12 11.1921ZM12 7.51523C12.2126 7.51523 12.4208 7.60141 12.5713 7.75187C12.7217 7.90234 12.8079 8.11059 12.8079 8.32316C12.8079 8.53574 12.7218 8.74398 12.5713 8.89445C12.4208 9.04492 12.2126 9.13109 12 9.13109C11.7874 9.13109 11.5792 9.04488 11.4287 8.89445C11.2782 8.74398 11.1921 8.53574 11.1921 8.32316C11.1921 8.11059 11.2782 7.9023 11.4287 7.75187C11.5792 7.60141 11.7874 7.51523 12 7.51523Z" fill="white"/>
</mask>
<g mask="url(#mask0)">
</g>
</svg>
