<svg width="24" height="24" viewBox="0 0 24 24" fill="none" xmlns="http://www.w3.org/2000/svg">
<path d="M19.53 12.6877H19.0651C19.1917 12.6877 18.9438 12.6842 19.6328 12.68C20.4343 12.68 21.0841 12.0303 21.0841 11.2288C21.0841 10.4273 20.4343 9.77759 19.6328 9.77759H18.0723C17.6689 9.77759 17.1946 9.77759 16.734 9.77759C16.2273 9.77759 15.7368 9.77759 15.3748 9.77759C15.1761 9.77759 15.0541 9.55884 15.1598 9.39058C16.5204 7.22357 16.5859 4.86438 16.5486 4.17515C16.4621 2.57368 14.7055 1.97117 13.9349 3.38453C13.7004 3.81464 13.6206 4.35309 13.533 4.92128C13.325 5.79479 12.6677 7.45545 10.6174 8.41287C10.023 8.59958 9.42229 8.91235 8.89004 9.3108C8.54074 9.57228 8.26436 9.91899 8.0772 10.3132C7.80517 10.8859 7.22768 11.2509 6.59366 11.2509H5.24901C5.26775 11.3495 5.27794 11.4511 5.27794 11.5551C5.26702 19.8922 5.30399 19.5385 5.24724 19.8276C6.51978 19.9103 7.50953 19.5695 8.56805 20.3543C9.52104 21.0609 10.6864 21.418 11.6838 21.418H15.711V21.4179C15.8948 21.4179 18.8885 21.4179 18.76 21.4179C19.9716 21.4179 20.6164 20.1314 20.0217 19.1883C19.824 18.8745 19.505 18.6343 19.1179 18.5453C18.8935 18.4938 18.5457 18.5078 19.0652 18.5078C19.3255 18.5078 19.5718 18.4391 19.7869 18.316C21.0813 17.5749 20.5444 15.5978 19.0653 15.5977C19.5851 15.5977 20.1245 15.666 20.6191 15.1402C20.8847 14.8584 21.0207 14.4912 21.0148 14.1221C21.0139 14.0629 20.3795 12.6877 19.53 12.6877Z" fill="white"/>
<path d="M9.93004 8.64207C9.10281 9.03314 8.44251 9.50229 8.07713 10.2714C7.8051 10.8441 7.22761 11.2091 6.59359 11.2091H5.24901C5.26775 11.3077 5.27794 11.4093 5.27794 11.5134C5.26702 19.8505 5.30399 19.4968 5.24724 19.7859C6.53218 19.8693 7.50835 19.5269 8.56805 20.3125C8.9468 20.5934 9.35934 20.818 9.78126 20.988C7.37012 17.2302 7.41491 12.362 9.93004 8.64207Z" fill="#F5F5F5"/>
<path d="M4.2127 9.89668C3.31668 9.89668 2.59041 10.623 2.59041 11.519V19.4773C2.59041 20.3734 3.31676 21.0996 4.2127 21.0996C5.10864 21.0996 5.83498 20.3733 5.83498 19.4773V11.519C5.83498 10.623 5.10871 9.89668 4.2127 9.89668Z" fill="#F5F5F5"/>
<path d="M4.2127 16.1684C3.31668 16.1684 2.59041 15.4421 2.59041 14.5461V19.4886C2.59041 20.3847 3.31676 21.1109 4.2127 21.1109C5.10864 21.1109 5.83498 20.3846 5.83498 19.4886V14.5461C5.83498 15.4421 5.10871 16.1684 4.2127 16.1684Z" fill="#F5F5F5"/>
<path d="M19.6365 9.18816H15.9024C17.2067 6.80299 17.1202 4.39207 17.1049 4.10934C16.9877 1.9424 14.4881 1.18462 13.4524 3.08373C13.1737 3.5948 13.0818 4.20137 12.9929 4.77834C12.7987 5.57613 12.2069 7.01192 10.4183 7.86063C9.77683 8.06698 9.13579 8.40218 8.5617 8.83177C8.14827 9.14122 7.809 9.55908 7.58059 10.0398C7.20214 10.8366 6.32029 10.6325 6.17513 10.6615C5.84162 9.88705 5.07107 9.34343 4.17579 9.34343C2.97609 9.34321 2 10.3194 2 11.5192V12.3749C2 12.6807 2.24775 12.9285 2.55351 12.9285C2.85926 12.9285 3.10701 12.6807 3.10701 12.3749V11.5192C3.10701 10.9299 3.58642 10.4504 4.17579 10.4504C4.77697 10.4504 5.24458 10.9451 5.24458 11.5192V19.4775C5.24458 20.0534 4.77528 20.5462 4.17579 20.5462C3.58657 20.5462 3.10701 20.0668 3.10701 19.4775V14.9581C3.10701 14.6524 2.85926 14.4046 2.55351 14.4046C2.24775 14.4046 2 14.6524 2 14.9581V19.4775C2 20.6773 2.97609 21.6533 4.17587 21.6533C5.06731 21.6533 5.83483 21.1144 6.1707 20.3452C6.71978 20.3918 7.4521 20.1774 8.24199 20.7629C9.24694 21.5082 10.5028 21.9355 11.6874 21.9355H14.7932C15.099 21.9355 15.3467 21.6878 15.3467 21.382C15.3467 21.0763 15.099 20.8285 14.7932 20.8285H11.6874C10.7492 20.8285 9.70767 20.4716 8.9014 19.8736C7.78258 19.0442 6.7197 19.2788 6.35181 19.2381V11.7684H6.5972C7.44044 11.7684 8.21897 11.2763 8.58074 10.5147C8.73232 10.1957 8.9552 9.92011 9.22524 9.7179C10.0565 9.09591 10.7567 8.92432 10.8552 8.87842C13.1063 7.82735 13.8387 6.0058 14.0751 5.01355C14.0786 4.99908 14.0815 4.98432 14.0837 4.96963C14.1506 4.53524 14.2272 3.97524 14.4245 3.61355C14.935 2.67687 15.9444 3.14867 15.9996 4.16897C16.0139 4.43406 16.099 6.82336 14.6946 9.06011C14.3594 9.59399 14.7422 10.2951 15.3785 10.2951H19.6366C20.1316 10.2951 20.5343 10.6978 20.5343 11.1927C20.5343 11.6876 20.1317 12.0904 19.6366 12.0904H19.2189C19.1997 12.0904 19.1805 12.0914 19.1615 12.0933C19.1543 12.0941 19.1472 12.0945 19.1399 12.0949L19.1158 12.0968C19.1003 12.0976 19.0847 12.098 19.0689 12.098C18.7632 12.098 18.5154 12.3458 18.5154 12.6516C18.5154 12.9573 18.7632 13.2051 19.0689 13.2051H19.5641C19.9621 13.2051 20.3511 13.4658 20.4516 13.9503C20.5266 14.3702 20.277 14.6489 20.2737 14.6622L20.1891 14.7558C20.1816 14.7626 20.1514 14.7905 20.1588 14.7837C20.112 14.8242 20.006 14.893 20.0134 14.888C19.7391 15.0458 19.4607 15.0079 19.069 15.0082C18.7633 15.0082 18.5155 15.2559 18.5155 15.5617C18.5155 15.8673 18.7632 16.1152 19.0689 16.1152C20.045 16.1153 20.3337 17.483 19.398 17.8559C19.1604 17.9485 19.0049 17.9085 18.7939 17.9182C18.4881 17.9182 18.2404 18.1659 18.2404 18.4717C18.2404 18.7731 18.4813 19.0182 18.781 19.0251C19.0041 19.0306 19.1643 19.1042 19.1569 19.1015C19.29 19.1645 19.3922 19.2521 19.3818 19.2439C20.0077 19.7915 19.6356 20.8282 18.7937 20.8282H17.3763C17.0706 20.8282 16.8228 21.0759 16.8228 21.3817C16.8228 21.6874 17.0706 21.9352 17.3763 21.9352H18.7937C19.7648 21.9352 20.5957 21.2422 20.77 20.2848C20.7671 20.2724 20.9893 19.3919 20.3026 18.6011C21.1854 17.911 21.3279 16.6561 20.6587 15.7903C21.7156 15.1082 21.8982 13.5916 20.979 12.6803C22.3351 11.4559 21.4711 9.18816 19.6365 9.18816Z" fill="#212122" stroke="#212122" stroke-width="0.3"/>
</svg>
