<svg width="24" height="24" viewBox="0 0 24 24" fill="none" xmlns="http://www.w3.org/2000/svg">
<path fill-rule="evenodd" clip-rule="evenodd" d="M21.8915 12.3205L21.8843 12.3043C21.9335 12.4085 21.961 12.525 21.961 12.6479C21.961 12.5351 21.9373 12.4236 21.8915 12.3205ZM2 12.6479C2 12.5256 2.02722 12.4097 2.07594 12.3059L2.06943 12.3205C2.02366 12.4236 2 12.5351 2 12.6479ZM3.61267 13.4542V12.819L4.04693 11.8416H8.31088C8.58047 11.8416 8.8322 11.9764 8.98175 12.2007L10.5772 14.5939H13.3838L14.9793 12.2007C15.1288 11.9764 15.3806 11.8416 15.6502 11.8416H19.9141L20.3484 12.819V13.4542H16.0817L14.4862 15.8474C14.3367 16.0718 14.085 16.2065 13.8153 16.2065H10.1457C9.87602 16.2065 9.62429 16.0718 9.47474 15.8474L7.8793 13.4542H3.61267ZM3.61267 13.4542H2.80632C2.36101 13.4543 2 13.0932 2 12.6479V17.235C2 18.6914 3.18483 19.8762 4.64117 19.8762H19.3198C20.7762 19.8762 21.961 18.6914 21.961 17.235V12.6479V12.6479C21.961 13.0932 21.6 13.4542 21.1547 13.4542H20.3484V17.235C20.3484 17.8022 19.887 18.2635 19.3199 18.2635H4.64117C4.07404 18.2635 3.61267 17.8021 3.61267 17.235V13.4542ZM19.9141 11.8416H21.1547C21.4772 11.8416 21.7553 12.0308 21.8843 12.3043L18.7085 5.15636C18.2855 4.2015 17.3379 3.58485 16.2943 3.58485H16.2924H7.6692H7.66733C6.62335 3.58485 5.67583 4.20123 5.25275 5.15577L2.07594 12.3059C2.20463 12.0316 2.4833 11.8416 2.80632 11.8416H4.04693L6.72667 5.81027L6.72702 5.80945C6.89174 5.43764 7.26078 5.19752 7.66795 5.19752H7.66865H16.2929H16.2937C16.7003 5.19752 17.0693 5.43772 17.2344 5.81031L19.9141 11.8416Z" fill="#212122"/>
<mask id="mask0" mask-type="alpha" maskUnits="userSpaceOnUse" x="2" y="3" width="20" height="17">
<path fill-rule="evenodd" clip-rule="evenodd" d="M21.8915 12.3205L21.8843 12.3043C21.9335 12.4085 21.961 12.525 21.961 12.6479C21.961 12.5351 21.9373 12.4236 21.8915 12.3205ZM2 12.6479C2 12.5256 2.02722 12.4097 2.07594 12.3059L2.06943 12.3205C2.02366 12.4236 2 12.5351 2 12.6479ZM3.61267 13.4542V12.819L4.04693 11.8416H8.31088C8.58047 11.8416 8.8322 11.9764 8.98175 12.2007L10.5772 14.5939H13.3838L14.9793 12.2007C15.1288 11.9764 15.3806 11.8416 15.6502 11.8416H19.9141L20.3484 12.819V13.4542H16.0817L14.4862 15.8474C14.3367 16.0718 14.085 16.2065 13.8153 16.2065H10.1457C9.87602 16.2065 9.62429 16.0718 9.47474 15.8474L7.8793 13.4542H3.61267ZM3.61267 13.4542H2.80632C2.36101 13.4543 2 13.0932 2 12.6479V17.235C2 18.6914 3.18483 19.8762 4.64117 19.8762H19.3198C20.7762 19.8762 21.961 18.6914 21.961 17.235V12.6479V12.6479C21.961 13.0932 21.6 13.4542 21.1547 13.4542H20.3484V17.235C20.3484 17.8022 19.887 18.2635 19.3199 18.2635H4.64117C4.07404 18.2635 3.61267 17.8021 3.61267 17.235V13.4542ZM19.9141 11.8416H21.1547C21.4772 11.8416 21.7553 12.0308 21.8843 12.3043L18.7085 5.15636C18.2855 4.2015 17.3379 3.58485 16.2943 3.58485H16.2924H7.6692H7.66733C6.62335 3.58485 5.67583 4.20123 5.25275 5.15577L2.07594 12.3059C2.20463 12.0316 2.4833 11.8416 2.80632 11.8416H4.04693L6.72667 5.81027L6.72702 5.80945C6.89174 5.43764 7.26078 5.19752 7.66795 5.19752H7.66865H16.2929H16.2937C16.7003 5.19752 17.0693 5.43772 17.2344 5.81031L19.9141 11.8416Z" fill="white"/>
</mask>
<g mask="url(#mask0)">
</g>
</svg>
