<svg width="24" height="24" viewBox="0 0 24 24" fill="none" xmlns="http://www.w3.org/2000/svg">
<path d="M10.9442 6.05873C11.1355 6.05873 11.2907 5.90356 11.2907 5.71217C11.2907 5.52078 11.1355 5.36562 10.9442 5.36562C6.92684 5.3702 3.67128 8.62575 3.6667 12.6431V14.7223C3.66069 16.8338 5.36745 18.5503 7.47885 18.5563C9.59029 18.5623 11.3068 16.8556 11.3128 14.7442C11.3188 12.6327 9.61209 10.9162 7.50069 10.9102C6.25397 10.9066 5.08379 11.5112 4.36534 12.5301C4.4295 8.94115 7.35458 6.06383 10.9442 6.05873Z" fill="#212122" stroke="#212122"/>
<path d="M16.4888 10.9104C15.2493 10.9114 14.0878 11.5157 13.3755 12.5302C13.4397 8.94116 16.3648 6.06384 19.9543 6.05877C20.1457 6.05877 20.3009 5.90361 20.3009 5.71222C20.3009 5.52083 20.1457 5.36566 19.9543 5.36566C15.937 5.37024 12.6814 8.6258 12.6768 12.6431V14.7224C12.6768 16.8277 14.3835 18.5344 16.4888 18.5344C18.5941 18.5344 20.3008 16.8277 20.3008 14.7224C20.3008 12.6171 18.5942 10.9104 16.4888 10.9104Z" fill="#212122" stroke="#212122"/>
</svg>
