<svg width="24" height="24" viewBox="0 0 24 24" fill="none" xmlns="http://www.w3.org/2000/svg">
<path fill-rule="evenodd" clip-rule="evenodd" d="M11.5338 18.0342H9.42441V12.2422H3.50058V18.0342H1.39999V5.18457H3.50058V10.4404H9.42441V5.18457H11.5338V18.0342ZM22.2389 8.1377C22.2389 8.95215 22.0016 9.63037 21.5269 10.1724C21.0523 10.7144 20.3844 11.0791 19.523 11.2666V11.3369C20.5543 11.4658 21.3277 11.7866 21.8434 12.2993C22.359 12.812 22.6168 13.4932 22.6168 14.3428C22.6168 15.5791 22.1803 16.5327 21.3072 17.2036C20.4342 17.8745 19.192 18.21 17.5807 18.21C16.1568 18.21 14.9557 17.9785 13.9771 17.5156V15.6787C14.5221 15.9482 15.0992 16.1562 15.7086 16.3027C16.318 16.4492 16.9039 16.5225 17.4664 16.5225C18.4625 16.5225 19.2066 16.3379 19.6988 15.9688C20.191 15.5996 20.4371 15.0283 20.4371 14.2549C20.4371 13.5693 20.1646 13.0654 19.6197 12.7432C19.0748 12.4209 18.2193 12.2598 17.0533 12.2598H15.9371V10.5811H17.0709C19.1217 10.5811 20.1471 9.87208 20.1471 8.4541C20.1471 7.90332 19.9684 7.47852 19.6109 7.17969C19.2535 6.88086 18.7262 6.73145 18.0289 6.73145C17.5426 6.73145 17.0738 6.80029 16.6227 6.93799C16.1715 7.07568 15.6383 7.34375 15.023 7.74219L14.0123 6.30078C15.19 5.43359 16.5582 5 18.1168 5C19.4117 5 20.4225 5.27832 21.149 5.83496C21.8756 6.3916 22.2389 7.15917 22.2389 8.1377Z" fill="#212122"/>
</svg>
