<svg width="24" height="24" viewBox="0 0 24 24" fill="none" xmlns="http://www.w3.org/2000/svg">
<path fill-rule="evenodd" clip-rule="evenodd" d="M15.8677 2.04336L13.648 2.63813C12.6057 2.91741 11.985 3.99259 12.2643 5.03485L16.4277 20.5729C16.707 21.6152 17.7821 22.2359 18.8244 21.9566L21.0441 21.3619C22.0864 21.0826 22.7071 20.0074 22.4279 18.9652L18.2645 3.42711C17.9852 2.38485 16.91 1.76408 15.8677 2.04336ZM6.00496 2H8.30297C9.38199 2 10.2599 2.87789 10.2598 3.95691V20.0431C10.2598 21.1221 9.38195 22 8.30293 22H6.00492C4.92589 22 4.048 21.1221 4.048 20.0431V3.95691C4.048 2.87789 4.92589 2 6.00496 2ZM8.30297 20.3842C8.49101 20.3842 8.64406 20.2312 8.64406 20.0431V3.95691C8.64406 3.76887 8.49105 3.61582 8.30297 3.61582H6.00496C5.81691 3.61582 5.66386 3.76883 5.66386 3.95691V20.0431C5.66386 20.2311 5.81687 20.3842 6.00496 20.3842H8.30297ZM20.6259 19.8011C20.8075 19.7524 20.9158 19.565 20.8671 19.3834L16.7037 3.84531C16.655 3.66367 16.4676 3.55544 16.2859 3.60412L14.0662 4.19888C13.8846 4.24756 13.7763 4.43497 13.825 4.61665L17.9884 20.1547C18.0371 20.3363 18.2245 20.4446 18.4062 20.3959L20.6259 19.8011Z" fill="#212122"/>
<mask id="mask0" mask-type="alpha" maskUnits="userSpaceOnUse" x="4" y="1" width="19" height="22">
<path fill-rule="evenodd" clip-rule="evenodd" d="M15.8677 2.04336L13.648 2.63813C12.6057 2.91741 11.985 3.99259 12.2643 5.03485L16.4277 20.5729C16.707 21.6152 17.7821 22.2359 18.8244 21.9566L21.0441 21.3619C22.0864 21.0826 22.7071 20.0074 22.4279 18.9652L18.2645 3.42711C17.9852 2.38485 16.91 1.76408 15.8677 2.04336ZM6.00496 2H8.30297C9.38199 2 10.2599 2.87789 10.2598 3.95691V20.0431C10.2598 21.1221 9.38195 22 8.30293 22H6.00492C4.92589 22 4.048 21.1221 4.048 20.0431V3.95691C4.048 2.87789 4.92589 2 6.00496 2ZM8.30297 20.3842C8.49101 20.3842 8.64406 20.2312 8.64406 20.0431V3.95691C8.64406 3.76887 8.49105 3.61582 8.30297 3.61582H6.00496C5.81691 3.61582 5.66386 3.76883 5.66386 3.95691V20.0431C5.66386 20.2311 5.81687 20.3842 6.00496 20.3842H8.30297ZM20.6259 19.8011C20.8075 19.7524 20.9158 19.565 20.8671 19.3834L16.7037 3.84531C16.655 3.66367 16.4676 3.55544 16.2859 3.60412L14.0662 4.19888C13.8846 4.24756 13.7763 4.43497 13.825 4.61665L17.9884 20.1547C18.0371 20.3363 18.2245 20.4446 18.4062 20.3959L20.6259 19.8011Z" fill="white"/>
</mask>
<g mask="url(#mask0)">
</g>
</svg>
