<svg width="24" height="24" viewBox="0 0 24 24" fill="none" xmlns="http://www.w3.org/2000/svg">
<path fill-rule="evenodd" clip-rule="evenodd" d="M20.6209 2.23618C20.9364 1.92129 21.4479 1.92129 21.7634 2.23618C22.0789 2.55107 22.0789 3.0616 21.7634 3.37645L13.1425 11.9805L12 10.8402L20.6209 2.23618ZM10.8575 11.9805L2.23664 3.37649C1.92113 3.0616 1.92113 2.55107 2.23664 2.23622C2.55211 1.92133 3.06367 1.92133 3.37914 2.23622L12 10.8402L10.8575 11.9805ZM10.8575 11.9805L12 13.1208L3.37922 21.7248C3.22144 21.8823 3.01469 21.961 2.80793 21.961C2.60117 21.961 2.39437 21.8823 2.23664 21.7248C1.92113 21.4099 1.92113 20.8994 2.23664 20.5845L10.8575 11.9805ZM12 13.1208L13.1425 11.9805L21.7634 20.5846C22.0788 20.8995 22.0788 21.41 21.7634 21.7249C21.6057 21.8823 21.3989 21.9611 21.1921 21.9611C20.9854 21.9611 20.7786 21.8823 20.6209 21.7249L12 13.1208Z" fill="#212122"/>
<mask id="mask0" mask-type="alpha" maskUnits="userSpaceOnUse" x="2" y="2" width="20" height="20">
<path fill-rule="evenodd" clip-rule="evenodd" d="M20.6209 2.23618C20.9364 1.92129 21.4479 1.92129 21.7634 2.23618C22.0789 2.55107 22.0789 3.0616 21.7634 3.37645L13.1425 11.9805L12 10.8402L20.6209 2.23618ZM10.8575 11.9805L2.23664 3.37649C1.92113 3.0616 1.92113 2.55107 2.23664 2.23622C2.55211 1.92133 3.06367 1.92133 3.37914 2.23622L12 10.8402L10.8575 11.9805ZM10.8575 11.9805L12 13.1208L3.37922 21.7248C3.22144 21.8823 3.01469 21.961 2.80793 21.961C2.60117 21.961 2.39437 21.8823 2.23664 21.7248C1.92113 21.4099 1.92113 20.8994 2.23664 20.5845L10.8575 11.9805ZM12 13.1208L13.1425 11.9805L21.7634 20.5846C22.0788 20.8995 22.0788 21.41 21.7634 21.7249C21.6057 21.8823 21.3989 21.9611 21.1921 21.9611C20.9854 21.9611 20.7786 21.8823 20.6209 21.7249L12 13.1208Z" fill="white"/>
</mask>
<g mask="url(#mask0)">
</g>
</svg>
