<svg width="24" height="24" viewBox="0 0 24 24" fill="none" xmlns="http://www.w3.org/2000/svg">
<path fill-rule="evenodd" clip-rule="evenodd" d="M12.7931 12.7931H21.2074C21.6452 12.7931 22.0005 12.4378 22 12C22 11.5617 21.6452 11.2069 21.2074 11.2069H12.7931V2.79262C12.7931 2.3548 12.4383 2 12 2C11.5622 1.99947 11.2069 2.3548 11.2069 2.79262V11.2069H2.79315C2.3548 11.2069 2 11.5622 2 12C2 12.2194 2.08883 12.4172 2.23213 12.561C2.37542 12.7043 2.57371 12.7931 2.79315 12.7931H11.2069V21.2074C11.2069 21.4263 11.2957 21.6246 11.4395 21.7679C11.5828 21.9117 11.7811 22 12 22C12.4378 22.0005 12.7931 21.6452 12.7931 21.2074V12.7931Z" fill="#1A1919"/>
</svg>
