<svg width="24" height="24" viewBox="0 0 24 24" fill="none" xmlns="http://www.w3.org/2000/svg">
<path fill-rule="evenodd" clip-rule="evenodd" d="M12 22C6.47715 22 2 17.5228 2 12C2 6.47715 6.47715 2 12 2C17.5228 2 22 6.47715 22 12C22 17.5228 17.5228 22 12 22ZM11.9333 15.6108C11.9037 15.7344 11.8402 15.8472 11.75 15.9367C11.5926 16.0951 11.3723 16.1743 11.15 16.1525C10.793 16.1774 10.4669 15.9502 10.3667 15.6067L8.01667 13.2583C7.75335 12.9616 7.76669 12.5111 8.04712 12.2304C8.32755 11.9498 8.77804 11.9361 9.075 12.1992L10.8917 14.0192L14.6083 7.43C14.7162 7.23272 14.8991 7.08738 15.1156 7.02697C15.3322 6.96655 15.564 6.9962 15.7583 7.10917C16.1606 7.35735 16.2933 7.87992 16.0583 8.29L11.9333 15.6108Z" fill="#212122"/>
</svg>
