<svg width="24" height="24" viewBox="0 0 24 24" fill="none" xmlns="http://www.w3.org/2000/svg">
<path fill-rule="evenodd" clip-rule="evenodd" d="M21.1921 15.79C20.117 15.79 19.2424 14.9154 19.2424 13.8403V9.24426C19.2424 5.25082 15.9935 2.00191 12 2.00191C8.00652 2.00191 4.75762 5.25082 4.75762 9.24426V13.8403C4.75762 14.9154 3.88297 15.79 2.80789 15.79C2.36172 15.79 2 16.1518 2 16.598C2 17.0442 2.36172 17.4059 2.80789 17.4059H21.1921C21.6383 17.4059 22 17.0442 22 16.598C22 16.1518 21.6383 15.79 21.1921 15.79ZM5.79187 15.79C6.15945 15.2294 6.37344 14.5593 6.37344 13.8403V9.24426C6.37344 6.14176 8.8975 3.6177 12 3.6177C15.1025 3.6177 17.6266 6.14176 17.6266 9.24426V13.8403C17.6266 14.5593 17.8405 15.2294 18.2081 15.79H5.79187ZM12.8914 19.8694C13.1152 19.4834 13.6096 19.352 13.9956 19.5759C14.3816 19.7998 14.5129 20.2942 14.289 20.6801C13.7987 21.5254 12.9089 21.998 11.9955 21.998C11.5451 21.998 11.0889 21.8832 10.6721 21.6413C10.2741 21.4105 9.94176 21.0781 9.7109 20.6801C9.48703 20.2942 9.6184 19.7998 10.0043 19.5759C10.3903 19.3521 10.8847 19.4834 11.1086 19.8694C11.1984 20.0243 11.3279 20.1538 11.4829 20.2437C11.9744 20.5288 12.6062 20.3609 12.8914 19.8694Z" fill="#212122"/>
<mask id="mask0" mask-type="alpha" maskUnits="userSpaceOnUse" x="2" y="2" width="20" height="20">
<path fill-rule="evenodd" clip-rule="evenodd" d="M21.1921 15.79C20.117 15.79 19.2424 14.9154 19.2424 13.8403V9.24426C19.2424 5.25082 15.9935 2.00191 12 2.00191C8.00652 2.00191 4.75762 5.25082 4.75762 9.24426V13.8403C4.75762 14.9154 3.88297 15.79 2.80789 15.79C2.36172 15.79 2 16.1518 2 16.598C2 17.0442 2.36172 17.4059 2.80789 17.4059H21.1921C21.6383 17.4059 22 17.0442 22 16.598C22 16.1518 21.6383 15.79 21.1921 15.79ZM5.79187 15.79C6.15945 15.2294 6.37344 14.5593 6.37344 13.8403V9.24426C6.37344 6.14176 8.8975 3.6177 12 3.6177C15.1025 3.6177 17.6266 6.14176 17.6266 9.24426V13.8403C17.6266 14.5593 17.8405 15.2294 18.2081 15.79H5.79187ZM12.8914 19.8694C13.1152 19.4834 13.6096 19.352 13.9956 19.5759C14.3816 19.7998 14.5129 20.2942 14.289 20.6801C13.7987 21.5254 12.9089 21.998 11.9955 21.998C11.5451 21.998 11.0889 21.8832 10.6721 21.6413C10.2741 21.4105 9.94176 21.0781 9.7109 20.6801C9.48703 20.2942 9.6184 19.7998 10.0043 19.5759C10.3903 19.3521 10.8847 19.4834 11.1086 19.8694C11.1984 20.0243 11.3279 20.1538 11.4829 20.2437C11.9744 20.5288 12.6062 20.3609 12.8914 19.8694Z" fill="white"/>
</mask>
<g mask="url(#mask0)">
</g>
</svg>
