<svg width="24" height="24" viewBox="0 0 24 24" fill="none" xmlns="http://www.w3.org/2000/svg">
<path fill-rule="evenodd" clip-rule="evenodd" d="M19.4117 14.455C19.1876 14.4558 18.9829 14.5914 18.8934 14.8003L18.89 14.8081C18.7959 15.0214 18.8397 15.2667 19.0016 15.4342L19.0478 15.4804C20.0127 16.4443 20.0136 18.0141 19.0494 18.9794C18.581 19.4483 17.9598 19.706 17.2988 19.7064H17.2974C16.637 19.7064 16.0161 19.4494 15.5488 18.9826L15.5009 18.9348C15.3335 18.7729 15.0881 18.7291 14.8749 18.8233L14.8669 18.8267C14.6581 18.9162 14.5226 19.1209 14.5216 19.3482V19.4867C14.5216 20.851 13.4116 21.961 12.0472 21.961C10.6829 21.961 9.57287 20.851 9.57287 19.4866V19.423C9.56444 19.1907 9.41883 18.9894 9.20008 18.909C9.18413 18.9031 9.16838 18.8967 9.15287 18.8899C8.93961 18.7957 8.69427 18.8396 8.52686 19.0014L8.48062 19.0477C7.51743 20.012 5.94932 20.0136 4.98386 19.0515L4.98039 19.048C4.51279 18.5809 4.25505 17.9597 4.2547 17.2988C4.25435 16.6386 4.5108 16.0177 4.97688 15.5503L4.98008 15.5471L5.02628 15.5009C5.18819 15.3334 5.23201 15.0881 5.13786 14.8748L5.13442 14.8669C5.04491 14.658 4.84027 14.5225 4.61298 14.5216H4.47442C3.11002 14.5216 2 13.4117 2 12.0473C2 10.6829 3.11002 9.5729 4.47431 9.5729H4.53797C4.77029 9.56452 4.9715 9.41887 5.05197 9.20016C5.05786 9.18421 5.06417 9.16846 5.07107 9.1529C5.16519 8.93961 5.12136 8.69431 4.95949 8.52686L4.91329 8.48066C4.446 8.01392 4.18827 7.39271 4.18791 6.73177C4.18752 6.07084 4.44456 5.44932 4.91166 4.98175C5.38004 4.51283 6.00129 4.25509 6.66222 4.25474H6.66366C7.32409 4.25474 7.94495 4.5117 8.41228 4.97848L8.46008 5.02631C8.62752 5.18819 8.8729 5.23201 9.08612 5.13785C9.13945 5.11435 9.19501 5.09672 9.25181 5.08522C9.40823 4.98136 9.50538 4.80526 9.50616 4.61298V4.47439C9.50616 3.11006 10.6161 2.00004 11.9805 2.00004C13.3449 2.00004 14.4549 3.11006 14.4549 4.47439V4.54947C14.4558 4.77349 14.5913 4.97821 14.8002 5.06772L14.8081 5.07115C15.0214 5.16526 15.2668 5.12144 15.4342 4.95961L15.4804 4.91337C15.9471 4.44608 16.5684 4.18834 17.2293 4.18799H17.2307C17.8912 4.18799 18.5121 4.44495 18.9794 4.91173L18.983 4.91544C19.4491 5.38226 19.706 6.00249 19.7064 6.6623C19.7068 7.32324 19.4497 7.94476 18.9827 8.41236L18.9791 8.41594L18.9349 8.46016C18.7729 8.6276 18.7292 8.87294 18.8233 9.0862C18.8468 9.13953 18.8644 9.19509 18.8759 9.25189C18.9798 9.4083 19.1559 9.50546 19.3482 9.50624H19.4867C20.8511 9.50624 21.9611 10.6163 21.9611 11.9806C21.9611 13.345 20.8511 14.455 19.4867 14.455H19.4117ZM17.8573 16.5707L17.8511 16.5644C17.2246 15.9239 17.0528 14.9809 17.4129 14.161C17.7568 13.3634 18.5396 12.8459 19.4085 12.8425H19.4867C19.9618 12.8425 20.3484 12.4559 20.3484 11.9808C20.3484 11.5057 19.9619 11.1191 19.4867 11.1191H19.345C18.4713 11.1156 17.6874 10.5964 17.3445 9.79637C17.315 9.72752 17.2953 9.65505 17.2858 9.58109C17.009 8.79879 17.1965 7.93131 17.7844 7.33025L17.7906 7.32394L17.8407 7.27388L17.8431 7.2715C18.0048 7.10881 18.0939 6.89298 18.0937 6.66343C18.0936 6.43325 18.0039 6.21692 17.841 6.05423L17.8382 6.05146C17.6757 5.88982 17.46 5.80086 17.2307 5.80086H17.2302C17.0001 5.80097 16.7837 5.89072 16.6211 6.05357L16.5707 6.1039L16.5643 6.11017C15.9238 6.73665 14.9809 6.9085 14.1608 6.54834C13.3631 6.20452 12.8457 5.42171 12.8423 4.55283V4.47454C12.8423 3.99941 12.4557 3.61283 11.9805 3.61283C11.5054 3.61283 11.1189 3.99938 11.1189 4.4745V4.6163C11.1154 5.4899 10.5962 6.27388 9.79614 6.61676C9.72729 6.64628 9.65481 6.66596 9.5809 6.67544C8.79856 6.9522 7.93111 6.76476 7.33006 6.17684L7.32374 6.17056L7.27368 6.12054C7.10998 5.957 6.89372 5.86748 6.6637 5.86748H6.6632C6.43302 5.8676 6.21669 5.95735 6.054 6.12019C5.89002 6.28437 5.80047 6.50082 5.80062 6.73095C5.80074 6.96113 5.89049 7.17746 6.05333 7.34016L6.10366 7.39053L6.10994 7.39684C6.73146 8.03224 6.90542 8.96534 6.55657 9.78078C6.2393 10.6141 5.4616 11.1645 4.56823 11.1854L4.54936 11.1856H4.47427C3.99918 11.1857 3.61259 11.5722 3.61259 12.0473C3.61259 12.5225 3.99914 12.909 4.47427 12.909H4.61606C5.48819 12.9126 6.27099 13.4299 6.61478 14.2276C6.97481 15.0477 6.80308 15.9907 6.17661 16.6311L6.17033 16.6375L6.12207 16.6858L6.1193 16.6885C5.95665 16.8514 5.8671 17.0678 5.86725 17.298C5.86741 17.5274 5.95653 17.743 6.11836 17.9055L6.12129 17.9084C6.45747 18.2442 7.00417 18.2439 7.33992 17.9077L7.39029 17.8573L7.39661 17.8511C8.03201 17.2296 8.96519 17.0556 9.78062 17.4045C10.6139 17.7218 11.1643 18.4995 11.1852 19.3928L11.1855 19.4117V19.4867C11.1855 19.9618 11.572 20.3484 12.0471 20.3484C12.5223 20.3484 12.9088 19.9619 12.9088 19.4867V19.3449C12.9124 18.4729 13.4297 17.6901 14.2273 17.3463C15.0474 16.9862 15.9904 17.1579 16.6309 17.7844L16.6373 17.7907L16.6873 17.8407C16.851 18.0042 17.0673 18.0938 17.2973 18.0938H17.2978C17.528 18.0936 17.7443 18.0039 17.907 17.841C18.2441 17.5035 18.2437 16.9569 17.9076 16.6211L17.8573 16.5707ZM11.9805 8.6722C10.1563 8.6722 8.67212 10.1563 8.67212 11.9806C8.67212 13.8048 10.1563 15.289 11.9805 15.289C13.8048 15.289 15.2889 13.8048 15.2889 11.9806C15.2889 10.1563 13.8047 8.6722 11.9805 8.6722ZM10.2848 11.9805C10.2848 12.9156 11.0455 13.6763 11.9805 13.6763C12.9156 13.6763 13.6762 12.9156 13.6762 11.9805C13.6762 11.0455 12.9156 10.2848 11.9805 10.2848C11.0455 10.2848 10.2848 11.0455 10.2848 11.9805Z" fill="#212122"/>
<mask id="mask0" mask-type="alpha" maskUnits="userSpaceOnUse" x="2" y="2" width="20" height="20">
<path fill-rule="evenodd" clip-rule="evenodd" d="M19.4117 14.455C19.1876 14.4558 18.9829 14.5914 18.8934 14.8003L18.89 14.8081C18.7959 15.0214 18.8397 15.2667 19.0016 15.4342L19.0478 15.4804C20.0127 16.4443 20.0136 18.0141 19.0494 18.9794C18.581 19.4483 17.9598 19.706 17.2988 19.7064H17.2974C16.637 19.7064 16.0161 19.4494 15.5488 18.9826L15.5009 18.9348C15.3335 18.7729 15.0881 18.7291 14.8749 18.8233L14.8669 18.8267C14.6581 18.9162 14.5226 19.1209 14.5216 19.3482V19.4867C14.5216 20.851 13.4116 21.961 12.0472 21.961C10.6829 21.961 9.57287 20.851 9.57287 19.4866V19.423C9.56444 19.1907 9.41883 18.9894 9.20008 18.909C9.18413 18.9031 9.16838 18.8967 9.15287 18.8899C8.93961 18.7957 8.69427 18.8396 8.52686 19.0014L8.48062 19.0477C7.51743 20.012 5.94932 20.0136 4.98386 19.0515L4.98039 19.048C4.51279 18.5809 4.25505 17.9597 4.2547 17.2988C4.25435 16.6386 4.5108 16.0177 4.97688 15.5503L4.98008 15.5471L5.02628 15.5009C5.18819 15.3334 5.23201 15.0881 5.13786 14.8748L5.13442 14.8669C5.04491 14.658 4.84027 14.5225 4.61298 14.5216H4.47442C3.11002 14.5216 2 13.4117 2 12.0473C2 10.6829 3.11002 9.5729 4.47431 9.5729H4.53797C4.77029 9.56452 4.9715 9.41887 5.05197 9.20016C5.05786 9.18421 5.06417 9.16846 5.07107 9.1529C5.16519 8.93961 5.12136 8.69431 4.95949 8.52686L4.91329 8.48066C4.446 8.01392 4.18827 7.39271 4.18791 6.73177C4.18752 6.07084 4.44456 5.44932 4.91166 4.98175C5.38004 4.51283 6.00129 4.25509 6.66222 4.25474H6.66366C7.32409 4.25474 7.94495 4.5117 8.41228 4.97848L8.46008 5.02631C8.62752 5.18819 8.8729 5.23201 9.08612 5.13785C9.13945 5.11435 9.19501 5.09672 9.25181 5.08522C9.40823 4.98136 9.50538 4.80526 9.50616 4.61298V4.47439C9.50616 3.11006 10.6161 2.00004 11.9805 2.00004C13.3449 2.00004 14.4549 3.11006 14.4549 4.47439V4.54947C14.4558 4.77349 14.5913 4.97821 14.8002 5.06772L14.8081 5.07115C15.0214 5.16526 15.2668 5.12144 15.4342 4.95961L15.4804 4.91337C15.9471 4.44608 16.5684 4.18834 17.2293 4.18799H17.2307C17.8912 4.18799 18.5121 4.44495 18.9794 4.91173L18.983 4.91544C19.4491 5.38226 19.706 6.00249 19.7064 6.6623C19.7068 7.32324 19.4497 7.94476 18.9827 8.41236L18.9791 8.41594L18.9349 8.46016C18.7729 8.6276 18.7292 8.87294 18.8233 9.0862C18.8468 9.13953 18.8644 9.19509 18.8759 9.25189C18.9798 9.4083 19.1559 9.50546 19.3482 9.50624H19.4867C20.8511 9.50624 21.9611 10.6163 21.9611 11.9806C21.9611 13.345 20.8511 14.455 19.4867 14.455H19.4117ZM17.8573 16.5707L17.8511 16.5644C17.2246 15.9239 17.0528 14.9809 17.4129 14.161C17.7568 13.3634 18.5396 12.8459 19.4085 12.8425H19.4867C19.9618 12.8425 20.3484 12.4559 20.3484 11.9808C20.3484 11.5057 19.9619 11.1191 19.4867 11.1191H19.345C18.4713 11.1156 17.6874 10.5964 17.3445 9.79637C17.315 9.72752 17.2953 9.65505 17.2858 9.58109C17.009 8.79879 17.1965 7.93131 17.7844 7.33025L17.7906 7.32394L17.8407 7.27388L17.8431 7.2715C18.0048 7.10881 18.0939 6.89298 18.0937 6.66343C18.0936 6.43325 18.0039 6.21692 17.841 6.05423L17.8382 6.05146C17.6757 5.88982 17.46 5.80086 17.2307 5.80086H17.2302C17.0001 5.80097 16.7837 5.89072 16.6211 6.05357L16.5707 6.1039L16.5643 6.11017C15.9238 6.73665 14.9809 6.9085 14.1608 6.54834C13.3631 6.20452 12.8457 5.42171 12.8423 4.55283V4.47454C12.8423 3.99941 12.4557 3.61283 11.9805 3.61283C11.5054 3.61283 11.1189 3.99938 11.1189 4.4745V4.6163C11.1154 5.4899 10.5962 6.27388 9.79614 6.61676C9.72729 6.64628 9.65481 6.66596 9.5809 6.67544C8.79856 6.9522 7.93111 6.76476 7.33006 6.17684L7.32374 6.17056L7.27368 6.12054C7.10998 5.957 6.89372 5.86748 6.6637 5.86748H6.6632C6.43302 5.8676 6.21669 5.95735 6.054 6.12019C5.89002 6.28437 5.80047 6.50082 5.80062 6.73095C5.80074 6.96113 5.89049 7.17746 6.05333 7.34016L6.10366 7.39053L6.10994 7.39684C6.73146 8.03224 6.90542 8.96534 6.55657 9.78078C6.2393 10.6141 5.4616 11.1645 4.56823 11.1854L4.54936 11.1856H4.47427C3.99918 11.1857 3.61259 11.5722 3.61259 12.0473C3.61259 12.5225 3.99914 12.909 4.47427 12.909H4.61606C5.48819 12.9126 6.27099 13.4299 6.61478 14.2276C6.97481 15.0477 6.80308 15.9907 6.17661 16.6311L6.17033 16.6375L6.12207 16.6858L6.1193 16.6885C5.95665 16.8514 5.8671 17.0678 5.86725 17.298C5.86741 17.5274 5.95653 17.743 6.11836 17.9055L6.12129 17.9084C6.45747 18.2442 7.00417 18.2439 7.33992 17.9077L7.39029 17.8573L7.39661 17.8511C8.03201 17.2296 8.96519 17.0556 9.78062 17.4045C10.6139 17.7218 11.1643 18.4995 11.1852 19.3928L11.1855 19.4117V19.4867C11.1855 19.9618 11.572 20.3484 12.0471 20.3484C12.5223 20.3484 12.9088 19.9619 12.9088 19.4867V19.3449C12.9124 18.4729 13.4297 17.6901 14.2273 17.3463C15.0474 16.9862 15.9904 17.1579 16.6309 17.7844L16.6373 17.7907L16.6873 17.8407C16.851 18.0042 17.0673 18.0938 17.2973 18.0938H17.2978C17.528 18.0936 17.7443 18.0039 17.907 17.841C18.2441 17.5035 18.2437 16.9569 17.9076 16.6211L17.8573 16.5707ZM11.9805 8.6722C10.1563 8.6722 8.67212 10.1563 8.67212 11.9806C8.67212 13.8048 10.1563 15.289 11.9805 15.289C13.8048 15.289 15.2889 13.8048 15.2889 11.9806C15.2889 10.1563 13.8047 8.6722 11.9805 8.6722ZM10.2848 11.9805C10.2848 12.9156 11.0455 13.6763 11.9805 13.6763C12.9156 13.6763 13.6762 12.9156 13.6762 11.9805C13.6762 11.0455 12.9156 10.2848 11.9805 10.2848C11.0455 10.2848 10.2848 11.0455 10.2848 11.9805Z" fill="white"/>
</mask>
<g mask="url(#mask0)">
</g>
</svg>
