<svg width="24" height="24" viewBox="0 0 24 24" fill="none" xmlns="http://www.w3.org/2000/svg">
<path fill-rule="evenodd" clip-rule="evenodd" d="M12 2C6.5 2 2 6.5 2 12C2 17.5 6.5 22 12 22C17.5 22 22 17.5 22 12C22 6.5 17.5 2 12 2Z" fill="#212122"/>
<path fill-rule="evenodd" clip-rule="evenodd" d="M15.4483 8.09447C15.5745 7.96851 15.7792 7.96851 15.9054 8.09447C16.0315 8.22042 16.0315 8.42464 15.9054 8.55058L12.457 11.9922L12 11.5361L15.4483 8.09447ZM11.543 11.9922L8.09465 8.55059C7.96845 8.42464 7.96845 8.22042 8.09465 8.09448C8.22084 7.96853 8.42546 7.96853 8.55165 8.09448L12 11.5361L11.543 11.9922ZM11.543 11.9922L12 12.4483L8.55168 15.8899C8.48857 15.9529 8.40587 15.9844 8.32317 15.9844C8.24046 15.9844 8.15775 15.9529 8.09465 15.8899C7.96845 15.764 7.96845 15.5598 8.09465 15.4338L11.543 11.9922ZM12 12.4483L12.457 11.9922L15.9053 15.4338C16.0315 15.5598 16.0315 15.764 15.9054 15.89C15.8423 15.9529 15.7596 15.9844 15.6769 15.9844C15.5942 15.9844 15.5114 15.9529 15.4483 15.8899L12 12.4483Z" fill="white"/>
<path d="M15.9054 8.09447L16.2586 7.74059L16.2586 7.74057L15.9054 8.09447ZM15.4483 8.09447L15.8015 8.44837L15.8015 8.44837L15.4483 8.09447ZM15.9054 8.55058L16.2586 8.90448V8.90447L15.9054 8.55058ZM8.09465 8.55059L7.74144 8.90449L7.74144 8.90449L8.09465 8.55059ZM8.09465 8.09448L8.44784 8.4484L8.44788 8.44836L8.09465 8.09448ZM8.55165 8.09448L8.19842 8.44836L8.19844 8.44838L8.55165 8.09448ZM8.55168 15.8899L8.19848 15.536L8.19843 15.5361L8.55168 15.8899ZM8.09465 15.8899L8.44795 15.5361L8.44786 15.536L8.09465 15.8899ZM8.09465 15.4338L7.74144 15.0799H7.74144L8.09465 15.4338ZM15.9053 15.4338L16.2586 15.0799L16.2585 15.0799L15.9053 15.4338ZM15.9054 15.89L16.2586 16.2438L16.2586 16.2438L15.9054 15.89ZM15.4483 15.8899L15.8016 15.5361L15.8015 15.536L15.4483 15.8899ZM16.2586 7.74057C15.9372 7.41981 15.4165 7.41981 15.0951 7.74057L15.8015 8.44837C15.7326 8.51721 15.6211 8.51721 15.5521 8.44837L16.2586 7.74057ZM16.2586 8.90447C16.5805 8.58318 16.5805 8.06187 16.2586 7.74059L15.5521 8.44834C15.4826 8.37898 15.4826 8.26609 15.5521 8.19668L16.2586 8.90447ZM12.8102 12.3461L16.2586 8.90448L15.5521 8.19668L12.1038 11.6383L12.8102 12.3461ZM12.8102 11.6383L12.3532 11.1822L11.6468 11.89L12.1038 12.3461L12.8102 11.6383ZM15.0951 7.74057L11.6468 11.1822L12.3532 11.89L15.8015 8.44837L15.0951 7.74057ZM7.74144 8.90449L11.1898 12.3461L11.8962 11.6383L8.44786 8.19669L7.74144 8.90449ZM7.74147 7.74056C7.4195 8.06186 7.41953 8.5832 7.74144 8.90449L8.44786 8.19669C8.51737 8.26607 8.5174 8.37899 8.44784 8.4484L7.74147 7.74056ZM8.90488 7.74061C8.58351 7.41982 8.0628 7.41982 7.74142 7.74061L8.44788 8.44836C8.37888 8.51723 8.26742 8.51723 8.19842 8.44836L8.90488 7.74061ZM12.3532 11.1822L8.90486 7.74058L8.19844 8.44838L11.6468 11.89L12.3532 11.1822ZM11.6468 11.1822L11.1898 11.6383L11.8962 12.3461L12.3532 11.89L11.6468 11.1822ZM11.1898 12.3461L11.6468 12.8022L12.3532 12.0944L11.8962 11.6383L11.1898 12.3461ZM8.90489 16.2438L12.3532 12.8022L11.6468 12.0944L8.19848 15.536L8.90489 16.2438ZM8.32317 16.4844C8.53276 16.4844 8.74421 16.4042 8.90494 16.2438L8.19843 15.5361C8.23294 15.5016 8.27899 15.4844 8.32317 15.4844V16.4844ZM7.74136 16.2437C7.90215 16.4043 8.11368 16.4844 8.32317 16.4844V15.4844C8.36725 15.4844 8.41334 15.5016 8.44795 15.5361L7.74136 16.2437ZM7.74144 15.0799C7.41952 15.4012 7.41952 15.9225 7.74144 16.2438L8.44786 15.536C8.51738 15.6054 8.51738 15.7183 8.44786 15.7877L7.74144 15.0799ZM11.1898 11.6383L7.74144 15.0799L8.44786 15.7877L11.8962 12.3461L11.1898 11.6383ZM12.3532 12.8022L12.8102 12.3461L12.1038 11.6383L11.6468 12.0944L12.3532 12.8022ZM16.2585 15.0799L12.8102 11.6383L12.1038 12.3461L15.5521 15.7877L16.2585 15.0799ZM16.2586 16.2438C16.5804 15.9225 16.5805 15.4012 16.2586 15.0799L15.5521 15.7877C15.4826 15.7183 15.4826 15.6055 15.5521 15.5361L16.2586 16.2438ZM15.6769 16.4844C15.8864 16.4844 16.0979 16.4043 16.2586 16.2438L15.5521 15.5361C15.5867 15.5016 15.6327 15.4844 15.6769 15.4844V16.4844ZM15.0951 16.2438C15.2558 16.4043 15.4673 16.4844 15.6769 16.4844V15.4844C15.721 15.4844 15.767 15.5016 15.8016 15.5361L15.0951 16.2438ZM11.6468 12.8022L15.0951 16.2438L15.8015 15.536L12.3532 12.0944L11.6468 12.8022Z" fill="white"/>
<mask id="mask0" mask-type="alpha" maskUnits="userSpaceOnUse" x="7" y="7" width="10" height="10">
<path fill-rule="evenodd" clip-rule="evenodd" d="M15.4483 8.09447C15.5745 7.96851 15.7792 7.96851 15.9054 8.09447C16.0315 8.22042 16.0315 8.42464 15.9054 8.55058L12.457 11.9922L12 11.5361L15.4483 8.09447ZM11.543 11.9922L8.09465 8.55059C7.96845 8.42464 7.96845 8.22042 8.09465 8.09448C8.22084 7.96853 8.42546 7.96853 8.55165 8.09448L12 11.5361L11.543 11.9922ZM11.543 11.9922L12 12.4483L8.55168 15.8899C8.48857 15.9529 8.40587 15.9844 8.32317 15.9844C8.24046 15.9844 8.15775 15.9529 8.09465 15.8899C7.96845 15.764 7.96845 15.5598 8.09465 15.4338L11.543 11.9922ZM12 12.4483L12.457 11.9922L15.9053 15.4338C16.0315 15.5598 16.0315 15.764 15.9054 15.89C15.8423 15.9529 15.7596 15.9844 15.6769 15.9844C15.5942 15.9844 15.5114 15.9529 15.4483 15.8899L12 12.4483Z" fill="white"/>
<path d="M15.9054 8.09447L16.2586 7.74059L16.2586 7.74057L15.9054 8.09447ZM15.4483 8.09447L15.8015 8.44837L15.8015 8.44837L15.4483 8.09447ZM15.9054 8.55058L16.2586 8.90448V8.90447L15.9054 8.55058ZM8.09465 8.55059L7.74144 8.90449L7.74144 8.90449L8.09465 8.55059ZM8.09465 8.09448L8.44784 8.4484L8.44788 8.44836L8.09465 8.09448ZM8.55165 8.09448L8.19842 8.44836L8.19844 8.44838L8.55165 8.09448ZM8.55168 15.8899L8.19848 15.536L8.19843 15.5361L8.55168 15.8899ZM8.09465 15.8899L8.44795 15.5361L8.44786 15.536L8.09465 15.8899ZM8.09465 15.4338L7.74144 15.0799H7.74144L8.09465 15.4338ZM15.9053 15.4338L16.2586 15.0799L16.2585 15.0799L15.9053 15.4338ZM15.9054 15.89L16.2586 16.2438L16.2586 16.2438L15.9054 15.89ZM15.4483 15.8899L15.8016 15.5361L15.8015 15.536L15.4483 15.8899ZM16.2586 7.74057C15.9372 7.41981 15.4165 7.41981 15.0951 7.74057L15.8015 8.44837C15.7326 8.51721 15.6211 8.51721 15.5521 8.44837L16.2586 7.74057ZM16.2586 8.90447C16.5805 8.58318 16.5805 8.06187 16.2586 7.74059L15.5521 8.44834C15.4826 8.37898 15.4826 8.26609 15.5521 8.19668L16.2586 8.90447ZM12.8102 12.3461L16.2586 8.90448L15.5521 8.19668L12.1038 11.6383L12.8102 12.3461ZM12.8102 11.6383L12.3532 11.1822L11.6468 11.89L12.1038 12.3461L12.8102 11.6383ZM15.0951 7.74057L11.6468 11.1822L12.3532 11.89L15.8015 8.44837L15.0951 7.74057ZM7.74144 8.90449L11.1898 12.3461L11.8962 11.6383L8.44786 8.19669L7.74144 8.90449ZM7.74147 7.74056C7.4195 8.06186 7.41953 8.5832 7.74144 8.90449L8.44786 8.19669C8.51737 8.26607 8.5174 8.37899 8.44784 8.4484L7.74147 7.74056ZM8.90488 7.74061C8.58351 7.41982 8.0628 7.41982 7.74142 7.74061L8.44788 8.44836C8.37888 8.51723 8.26742 8.51723 8.19842 8.44836L8.90488 7.74061ZM12.3532 11.1822L8.90486 7.74058L8.19844 8.44838L11.6468 11.89L12.3532 11.1822ZM11.6468 11.1822L11.1898 11.6383L11.8962 12.3461L12.3532 11.89L11.6468 11.1822ZM11.1898 12.3461L11.6468 12.8022L12.3532 12.0944L11.8962 11.6383L11.1898 12.3461ZM8.90489 16.2438L12.3532 12.8022L11.6468 12.0944L8.19848 15.536L8.90489 16.2438ZM8.32317 16.4844C8.53276 16.4844 8.74421 16.4042 8.90494 16.2438L8.19843 15.5361C8.23294 15.5016 8.27899 15.4844 8.32317 15.4844V16.4844ZM7.74136 16.2437C7.90215 16.4043 8.11368 16.4844 8.32317 16.4844V15.4844C8.36725 15.4844 8.41334 15.5016 8.44795 15.5361L7.74136 16.2437ZM7.74144 15.0799C7.41952 15.4012 7.41952 15.9225 7.74144 16.2438L8.44786 15.536C8.51738 15.6054 8.51738 15.7183 8.44786 15.7877L7.74144 15.0799ZM11.1898 11.6383L7.74144 15.0799L8.44786 15.7877L11.8962 12.3461L11.1898 11.6383ZM12.3532 12.8022L12.8102 12.3461L12.1038 11.6383L11.6468 12.0944L12.3532 12.8022ZM16.2585 15.0799L12.8102 11.6383L12.1038 12.3461L15.5521 15.7877L16.2585 15.0799ZM16.2586 16.2438C16.5804 15.9225 16.5805 15.4012 16.2586 15.0799L15.5521 15.7877C15.4826 15.7183 15.4826 15.6055 15.5521 15.5361L16.2586 16.2438ZM15.6769 16.4844C15.8864 16.4844 16.0979 16.4043 16.2586 16.2438L15.5521 15.5361C15.5867 15.5016 15.6327 15.4844 15.6769 15.4844V16.4844ZM15.0951 16.2438C15.2558 16.4043 15.4673 16.4844 15.6769 16.4844V15.4844C15.721 15.4844 15.767 15.5016 15.8016 15.5361L15.0951 16.2438ZM11.6468 12.8022L15.0951 16.2438L15.8015 15.536L12.3532 12.0944L11.6468 12.8022Z" fill="white"/>
</mask>
<g mask="url(#mask0)">
</g>
</svg>
