<svg width="24" height="24" viewBox="0 0 24 24" fill="none" xmlns="http://www.w3.org/2000/svg">
<path fill-rule="evenodd" clip-rule="evenodd" d="M4.85059 2H19.1494C20.7213 2 22 3.2763 22 4.84503V15.0386C22 16.6073 20.7212 17.8837 19.1494 17.8837H7.22793L3.37918 21.7249C3.22465 21.8791 3.01801 21.9611 2.80777 21.9611C2.70371 21.9611 2.59871 21.9409 2.49879 21.8996C2.19684 21.7748 2 21.4808 2 21.1547V4.84503C2 3.2763 3.27879 2 4.85059 2ZM19.1494 16.271C19.8302 16.271 20.3842 15.7181 20.3842 15.0385V4.84503C20.3842 4.1655 19.8303 3.61263 19.1494 3.61263H4.85059C4.16973 3.61263 3.61578 4.1655 3.61578 4.84503V19.2081L6.32199 16.5071C6.47352 16.3559 6.67898 16.271 6.89328 16.271H19.1494Z" fill="#212122"/>
<mask id="mask0" mask-type="alpha" maskUnits="userSpaceOnUse" x="2" y="2" width="20" height="20">
<path fill-rule="evenodd" clip-rule="evenodd" d="M4.85059 2H19.1494C20.7213 2 22 3.2763 22 4.84503V15.0386C22 16.6073 20.7212 17.8837 19.1494 17.8837H7.22793L3.37918 21.7249C3.22465 21.8791 3.01801 21.9611 2.80777 21.9611C2.70371 21.9611 2.59871 21.9409 2.49879 21.8996C2.19684 21.7748 2 21.4808 2 21.1547V4.84503C2 3.2763 3.27879 2 4.85059 2ZM19.1494 16.271C19.8302 16.271 20.3842 15.7181 20.3842 15.0385V4.84503C20.3842 4.1655 19.8303 3.61263 19.1494 3.61263H4.85059C4.16973 3.61263 3.61578 4.1655 3.61578 4.84503V19.2081L6.32199 16.5071C6.47352 16.3559 6.67898 16.271 6.89328 16.271H19.1494Z" fill="white"/>
</mask>
<g mask="url(#mask0)">
</g>
<path d="M7.5 8.25C7.08579 8.25 6.75 7.91421 6.75 7.5C6.75 7.08579 7.08579 6.75 7.5 6.75H17.5C17.9142 6.75 18.25 7.08579 18.25 7.5C18.25 7.91421 17.9142 8.25 17.5 8.25H7.5Z" fill="#212122"/>
<path d="M7.5 13.25C7.08579 13.25 6.75 12.9142 6.75 12.5C6.75 12.0858 7.08579 11.75 7.5 11.75H17.5C17.9142 11.75 18.25 12.0858 18.25 12.5C18.25 12.9142 17.9142 13.25 17.5 13.25H7.5Z" fill="#212122"/>
</svg>
