<svg width="24" height="24" viewBox="0 0 24 24" fill="none" xmlns="http://www.w3.org/2000/svg">
<path fill-rule="evenodd" clip-rule="evenodd" d="M13.9497 5.56555C13.9497 3.59949 15.5492 2 17.5152 2C19.4813 2 21.0808 3.59949 21.0808 5.56555C21.0808 7.5316 19.4813 9.13109 17.5152 9.13109C16.4954 9.13109 15.5742 8.70068 14.9237 8.01197L15.5417 7.65133C15.9156 7.43311 16.0492 6.96095 15.8514 6.58109C16.1944 7.14096 16.8119 7.51527 17.5152 7.51527C18.5904 7.51527 19.465 6.64062 19.465 5.56555C19.465 4.49047 18.5904 3.61582 17.5152 3.61582C16.4402 3.61582 15.5655 4.49047 15.5655 5.56555C15.5655 5.9086 15.6546 6.23125 15.8108 6.51158C15.5771 6.15333 15.1008 6.03784 14.7273 6.25578L14.108 6.6172C14.0051 6.28464 13.9497 5.93144 13.9497 5.56555ZM9.07629 9.55355L14.108 6.6172C14.2711 7.14461 14.5535 7.6201 14.9237 8.01197L9.89202 10.9483C9.7289 10.4209 9.44642 9.94542 9.07629 9.55355ZM8.14839 10.9842C7.95087 10.6043 8.08448 10.1324 8.45825 9.91422L9.07629 9.55355C8.4258 8.86485 7.50459 8.43445 6.48474 8.43445C4.51872 8.43445 2.91919 10.0339 2.91919 12C2.91919 13.9661 4.51868 15.5655 6.48474 15.5655C7.50475 15.5655 8.42609 15.135 9.0766 14.4461L14.1092 17.3788C14.0056 17.7125 13.9497 18.0671 13.9497 18.4345C13.9497 20.4005 15.5492 22 17.5152 22C19.4813 22 21.0808 20.4005 21.0808 18.4345C21.0808 16.4684 19.4813 14.8689 17.5152 14.8689C16.4969 14.8689 15.577 15.298 14.9266 15.9849L9.89216 13.0512C9.99493 12.7188 10.0503 12.3657 10.0503 12C10.0503 11.6341 9.99488 11.2809 9.89202 10.9483L9.27267 11.3098C9.14466 11.3845 9.00446 11.42 8.86622 11.42C8.60122 11.42 8.343 11.2896 8.18936 11.0543C8.17618 11.0306 8.16252 11.0072 8.14839 10.9842ZM8.14869 13.0153C7.95062 13.3955 8.08447 13.868 8.45876 14.0861L9.0766 14.4461C9.44668 14.0542 9.7291 13.5787 9.89216 13.0512L9.27224 12.69C8.89866 12.4723 8.42259 12.588 8.18909 12.9462C8.34537 12.6659 8.43446 12.3431 8.43446 12C8.43446 11.6571 8.34547 11.3345 8.18936 11.0543C8.18189 11.0428 8.17467 11.0312 8.16771 11.0192C8.16095 11.0076 8.15451 10.996 8.14839 10.9842C7.80537 10.4245 7.18793 10.0503 6.48474 10.0503C5.40966 10.0503 4.53501 10.9249 4.53501 12C4.53501 13.0751 5.40966 13.9497 6.48474 13.9497C7.18813 13.9497 7.80573 13.5753 8.14869 13.0153ZM8.14869 13.0153C8.15465 13.0039 8.16091 12.9925 8.16747 12.9813C8.17442 12.9694 8.18163 12.9577 8.18909 12.9462C8.17609 12.9696 8.16262 12.9926 8.14869 13.0153ZM15.8873 17.3625C16.0448 16.9932 15.9063 16.5558 15.5504 16.3484L14.9266 15.9849C14.556 16.3764 14.273 16.8516 14.1092 17.3788L14.7369 17.7445C14.8649 17.8191 15.0048 17.8545 15.1429 17.8545C15.3874 17.8545 15.6261 17.7434 15.7823 17.5415C15.6438 17.8092 15.5655 18.1129 15.5655 18.4345C15.5655 19.5096 16.4401 20.3842 17.5152 20.3842C18.5904 20.3842 19.465 19.5096 19.465 18.4345C19.465 17.3594 18.5904 16.4848 17.5152 16.4848C16.8358 16.4848 16.2365 16.8341 15.8873 17.3625ZM15.8873 17.3625C15.8742 17.3933 15.859 17.4236 15.8417 17.4533C15.8236 17.4844 15.8037 17.5138 15.7823 17.5415C15.8142 17.4799 15.8493 17.4201 15.8873 17.3625ZM15.8108 6.51158C15.8239 6.53505 15.8374 6.55822 15.8514 6.58109C15.8453 6.56941 15.8389 6.55782 15.8322 6.54633C15.8253 6.5345 15.8182 6.52292 15.8108 6.51158Z" fill="#212122"/>
<mask id="mask0" mask-type="alpha" maskUnits="userSpaceOnUse" x="2" y="2" width="20" height="20">
<path fill-rule="evenodd" clip-rule="evenodd" d="M13.9497 5.56555C13.9497 3.59949 15.5492 2 17.5152 2C19.4813 2 21.0808 3.59949 21.0808 5.56555C21.0808 7.5316 19.4813 9.13109 17.5152 9.13109C16.4954 9.13109 15.5742 8.70068 14.9237 8.01197L15.5417 7.65133C15.9156 7.43311 16.0492 6.96095 15.8514 6.58109C16.1944 7.14096 16.8119 7.51527 17.5152 7.51527C18.5904 7.51527 19.465 6.64062 19.465 5.56555C19.465 4.49047 18.5904 3.61582 17.5152 3.61582C16.4402 3.61582 15.5655 4.49047 15.5655 5.56555C15.5655 5.9086 15.6546 6.23125 15.8108 6.51158C15.5771 6.15333 15.1008 6.03784 14.7273 6.25578L14.108 6.6172C14.0051 6.28464 13.9497 5.93144 13.9497 5.56555ZM9.07629 9.55355L14.108 6.6172C14.2711 7.14461 14.5535 7.6201 14.9237 8.01197L9.89202 10.9483C9.7289 10.4209 9.44642 9.94542 9.07629 9.55355ZM8.14839 10.9842C7.95087 10.6043 8.08448 10.1324 8.45825 9.91422L9.07629 9.55355C8.4258 8.86485 7.50459 8.43445 6.48474 8.43445C4.51872 8.43445 2.91919 10.0339 2.91919 12C2.91919 13.9661 4.51868 15.5655 6.48474 15.5655C7.50475 15.5655 8.42609 15.135 9.0766 14.4461L14.1092 17.3788C14.0056 17.7125 13.9497 18.0671 13.9497 18.4345C13.9497 20.4005 15.5492 22 17.5152 22C19.4813 22 21.0808 20.4005 21.0808 18.4345C21.0808 16.4684 19.4813 14.8689 17.5152 14.8689C16.4969 14.8689 15.577 15.298 14.9266 15.9849L9.89216 13.0512C9.99493 12.7188 10.0503 12.3657 10.0503 12C10.0503 11.6341 9.99488 11.2809 9.89202 10.9483L9.27267 11.3098C9.14466 11.3845 9.00446 11.42 8.86622 11.42C8.60122 11.42 8.343 11.2896 8.18936 11.0543C8.17618 11.0306 8.16252 11.0072 8.14839 10.9842ZM8.14869 13.0153C7.95062 13.3955 8.08447 13.868 8.45876 14.0861L9.0766 14.4461C9.44668 14.0542 9.7291 13.5787 9.89216 13.0512L9.27224 12.69C8.89866 12.4723 8.42259 12.588 8.18909 12.9462C8.34537 12.6659 8.43446 12.3431 8.43446 12C8.43446 11.6571 8.34547 11.3345 8.18936 11.0543C8.18189 11.0428 8.17467 11.0312 8.16771 11.0192C8.16095 11.0076 8.15451 10.996 8.14839 10.9842C7.80537 10.4245 7.18793 10.0503 6.48474 10.0503C5.40966 10.0503 4.53501 10.9249 4.53501 12C4.53501 13.0751 5.40966 13.9497 6.48474 13.9497C7.18813 13.9497 7.80573 13.5753 8.14869 13.0153ZM8.14869 13.0153C8.15465 13.0039 8.16091 12.9925 8.16747 12.9813C8.17442 12.9694 8.18163 12.9577 8.18909 12.9462C8.17609 12.9696 8.16262 12.9926 8.14869 13.0153ZM15.8873 17.3625C16.0448 16.9932 15.9063 16.5558 15.5504 16.3484L14.9266 15.9849C14.556 16.3764 14.273 16.8516 14.1092 17.3788L14.7369 17.7445C14.8649 17.8191 15.0048 17.8545 15.1429 17.8545C15.3874 17.8545 15.6261 17.7434 15.7823 17.5415C15.6438 17.8092 15.5655 18.1129 15.5655 18.4345C15.5655 19.5096 16.4401 20.3842 17.5152 20.3842C18.5904 20.3842 19.465 19.5096 19.465 18.4345C19.465 17.3594 18.5904 16.4848 17.5152 16.4848C16.8358 16.4848 16.2365 16.8341 15.8873 17.3625ZM15.8873 17.3625C15.8742 17.3933 15.859 17.4236 15.8417 17.4533C15.8236 17.4844 15.8037 17.5138 15.7823 17.5415C15.8142 17.4799 15.8493 17.4201 15.8873 17.3625ZM15.8108 6.51158C15.8239 6.53505 15.8374 6.55822 15.8514 6.58109C15.8453 6.56941 15.8389 6.55782 15.8322 6.54633C15.8253 6.5345 15.8182 6.52292 15.8108 6.51158Z" fill="white"/>
</mask>
<g mask="url(#mask0)">
</g>
</svg>
