<svg width="24" height="24" viewBox="0 0 24 24" fill="none" xmlns="http://www.w3.org/2000/svg">
<path d="M21 13H13C12.7348 13 12.4804 12.8946 12.2929 12.7071C12.1054 12.5196 12 12.2652 12 12C12 11.7348 12.1054 11.4804 12.2929 11.2929C12.4804 11.1054 12.7348 11 13 11H21C21.2652 11 21.5196 11.1054 21.7071 11.2929C21.8946 11.4804 22 11.7348 22 12C22 12.2652 21.8946 12.5196 21.7071 12.7071C21.5196 12.8946 21.2652 13 21 13Z" fill="black"/>
<path d="M14 22H5C4.20435 22 3.44129 21.6839 2.87868 21.1213C2.31607 20.5587 2 19.7956 2 19V5C2 4.20435 2.31607 3.44129 2.87868 2.87868C3.44129 2.31607 4.20435 2 5 2H14C14.7956 2 15.5587 2.31607 16.1213 2.87868C16.6839 3.44129 17 4.20435 17 5V7.81C17 8.07522 16.8946 8.32957 16.7071 8.51711C16.5196 8.70464 16.2652 8.81 16 8.81C15.7348 8.81 15.4804 8.70464 15.2929 8.51711C15.1054 8.32957 15 8.07522 15 7.81V5C15 4.73478 14.8946 4.48043 14.7071 4.29289C14.5196 4.10536 14.2652 4 14 4H5C4.73478 4 4.48043 4.10536 4.29289 4.29289C4.10536 4.48043 4 4.73478 4 5V19C4 19.2652 4.10536 19.5196 4.29289 19.7071C4.48043 19.8946 4.73478 20 5 20H14C14.2652 20 14.5196 19.8946 14.7071 19.7071C14.8946 19.5196 15 19.2652 15 19V15.69C15 15.4248 15.1054 15.1704 15.2929 14.9829C15.4804 14.7954 15.7348 14.69 16 14.69C16.2652 14.69 16.5196 14.7954 16.7071 14.9829C16.8946 15.1704 17 15.4248 17 15.69V19C17 19.7956 16.6839 20.5587 16.1213 21.1213C15.5587 21.6839 14.7956 22 14 22ZM21 13C20.8353 12.9991 20.6733 12.9576 20.5285 12.8791C20.3838 12.8006 20.2606 12.6876 20.17 12.55L18.17 9.55C18.0883 9.44132 18.0295 9.31711 17.9974 9.18496C17.9653 9.05281 17.9605 8.9155 17.9833 8.78143C18.0061 8.64736 18.056 8.51934 18.1299 8.40521C18.2038 8.29107 18.3003 8.19322 18.4133 8.11762C18.5264 8.04203 18.6536 7.99029 18.7874 7.96557C18.9211 7.94084 19.0585 7.94366 19.1911 7.97383C19.3237 8.004 19.4487 8.06091 19.5586 8.14106C19.6684 8.22122 19.7608 8.32293 19.83 8.44L21.83 11.44C21.9317 11.5905 21.9905 11.7659 22.0001 11.9473C22.0097 12.1287 21.9697 12.3093 21.8843 12.4697C21.799 12.6301 21.6716 12.7642 21.5158 12.8576C21.36 12.9511 21.1817 13.0003 21 13Z" fill="black"/>
<path d="M19 16C18.8199 15.9991 18.6434 15.9495 18.4892 15.8566C18.3349 15.7637 18.2086 15.6308 18.1236 15.4721C18.0386 15.3133 17.998 15.1346 18.0062 14.9547C18.0144 14.7748 18.071 14.6004 18.17 14.45L20.17 11.45C20.3237 11.2457 20.5497 11.108 20.8017 11.0652C21.0537 11.0224 21.3125 11.0777 21.525 11.2198C21.7375 11.3619 21.8875 11.58 21.9443 11.8292C22.001 12.0785 21.9601 12.34 21.83 12.56L19.83 15.56C19.7383 15.6957 19.6146 15.8068 19.4699 15.8835C19.3252 15.9603 19.1638 16.0002 19 16V16Z" fill="black"/>
</svg>
